<?xml version="1.0" standalone="no"?>
<!DOCTYPE svg PUBLIC "-//W3C//DTD SVG 1.1//EN" "http://www.w3.org/Graphics/SVG/1.1/DTD/svg11.dtd" >
<svg>
<metadata>
Created by FontForge 20120731 at Sat Jan 28 13:55:48 2017
 By www
Copyright (c) 2014 by Glenjan. All rights reserved.
</metadata>
<defs>
<font id="CertaSans-Medium" horiz-adv-x="600" >
  <font-face 
    font-family="Certa Sans"
    font-weight="500"
    font-stretch="normal"
    units-per-em="1000"
    panose-1="2 0 5 4 0 0 0 2 0 4"
    ascent="760"
    descent="-240"
    x-height="430"
    cap-height="630"
    bbox="-209 -329 1090 957"
    underline-thickness="73"
    underline-position="-151"
    unicode-range="U+0020-2265"
  />
<missing-glyph horiz-adv-x="644" 
d="M77 649h479v-669h-469v550zM171 576v-523l301 5v513zM260 331l-42 60q43 34 102 34q48 0 75 -23.5t27 -64.5q0 -75 -69 -94v-41l-57 -2q-14 17 -14 41q0 25 16.5 42.5t45.5 21.5q6 9 6 25q0 32 -34 32q-9 0 -19 -2q-17 -9 -37 -29zM340 527l72 3l2 -73h-74v70zM222 524
l69 3l2 -70h-71v67zM288 164l67 3l2 -67h-69v64z" />
    <glyph glyph-name="cyr.ii.l" unicode="&#x456;&#x457;" horiz-adv-x="481" 
d="M56 426l119 9v-435h-110v332zM-19 644l114 9v-116l-118 4zM297 426l119 9v-435h-111v332zM186 644l114 9v-116l-118 4zM388 644l113 9v-116l-118 4z" />
    <glyph glyph-name=".notdef" horiz-adv-x="644" 
d="M77 649h479v-669h-469v550zM171 576v-523l301 5v513zM260 331l-42 60q43 34 102 34q48 0 75 -23.5t27 -64.5q0 -75 -69 -94v-41l-57 -2q-14 17 -14 41q0 25 16.5 42.5t45.5 21.5q6 9 6 25q0 32 -34 32q-9 0 -19 -2q-17 -9 -37 -29zM340 527l72 3l2 -73h-74v70zM222 524
l69 3l2 -70h-71v67zM288 164l67 3l2 -67h-69v64z" />
    <glyph glyph-name=".null" horiz-adv-x="0" 
 />
    <glyph glyph-name="nonmarkingreturn" horiz-adv-x="333" 
 />
    <glyph glyph-name="space" unicode=" " horiz-adv-x="250" 
 />
    <glyph glyph-name="exclam" unicode="!" horiz-adv-x="255" 
d="M62 682l124 12l-12 -495h-94l-7 359zM67 114l117 6l5 -120h-123z" />
    <glyph glyph-name="quotedbl" unicode="&#x22;" horiz-adv-x="334" 
d="M205 694l111 -14l-55 -221l-91 6l23 115zM51 695l106 -16l-43 -200l-88 5l18 111z" />
    <glyph glyph-name="numbersign" unicode="#" horiz-adv-x="587" 
d="M450 564l-14 -102l99 4l-12 -95h-99l-11 -88l107 4l-11 -95h-106l-1 -99h-103l13 99h-88l-1 -99h-104l13 99h-80v80l92 7l12 92h-90v80l99 8l3 105h102l-13 -103h87l3 103h103zM245 371l-11 -89h90l12 89h-91z" />
    <glyph glyph-name="dollar" unicode="$" horiz-adv-x="546" 
d="M475 555l-72 -91q-37 38 -86 63q-20 4 -39 4q-48 0 -82 -19q-18 -24 -18 -57q0 -39 27.5 -61.5t89.5 -32.5q196 -29 196 -190q0 -70 -45.5 -117t-122.5 -60l4 -117l-109 -11l6 125q-98 7 -173 64l62 98q51 -43 114 -68q21 -3 42 -3q61 0 89 19q26 29 26 68q0 42 -25.5 63
t-89.5 29q-96 12 -147 59.5t-51 125.5q0 67 41.5 113t111.5 59l-4 112l110 11l-6 -122q89 -12 151 -64z" />
    <glyph glyph-name="percent" unicode="%" horiz-adv-x="774" 
d="M197 620q70 0 110 -42.5t40 -109.5q0 -64 -42 -108t-108 -44q-70 0 -110 42.5t-40 109.5q0 64 42 108t108 44zM197 536q-25 0 -44 -14q-13 -19 -13 -54q0 -67 57 -67q25 0 44 13q13 19 13 54q0 68 -57 68zM565 624l84 -59l-231 -288l-219 -306l-91 46l237 298zM576 291
q70 0 110 -42.5t40 -109.5q0 -63 -42 -107t-108 -44q-70 0 -110 42.5t-40 108.5q0 64 42 108t108 44zM576 207q-25 0 -44 -14q-13 -19 -13 -54q0 -67 57 -67q25 0 44 14q13 19 13 53q0 68 -57 68z" />
    <glyph glyph-name="ampersand" unicode="&#x26;" horiz-adv-x="601" 
d="M411 352l124 30q15 -54 15 -118q0 -109 -63 -185l63 -93v-15l-116 -25l-34 67q-57 -26 -123 -26q-109 0 -170.5 61.5t-61.5 161.5q0 56 24.5 104.5t67.5 80.5q-15 37 -15 84q0 68 49.5 116t135.5 48q116 0 193 -65l-77 -92q-34 36 -77 60q-24 4 -43 4q-35 0 -57 -15
q-16 -25 -16 -62q0 -49 27 -85l174 -231q13 44 13 90q-12 51 -33 105zM286 81q39 0 68 7l-166 226q-32 -38 -32 -101q0 -58 33.5 -95t96.5 -37z" />
    <glyph glyph-name="quotesingle" unicode="'" horiz-adv-x="199" 
d="M63 695l113 -16l-58 -215l-87 7l23 126z" />
    <glyph glyph-name="parenleft" unicode="(" horiz-adv-x="294" 
d="M210 610l77 -44q-68 -68 -99.5 -147.5t-31.5 -184.5q0 -184 131 -332l-89 -51q-148 145 -148 383q0 230 160 376z" />
    <glyph glyph-name="parenright" unicode=")" horiz-adv-x="294" 
d="M84 -149l-77 44q68 68 99.5 147.5t31.5 184.5q0 184 -131 332l89 51q148 -145 148 -383q0 -230 -160 -376z" />
    <glyph glyph-name="asterisk" unicode="*" horiz-adv-x="395" 
d="M200 694l88 -41l-31 -68l-24 -33l39 9l84 5l-8 -95l-76 7l-39 10l23 -37l35 -77l-99 -14l-15 65l-1 41l-28 -30l-68 -52l-43 81l64 36l37 15l-35 15l-65 41l48 83l65 -56l23 -28l4 39z" />
    <glyph glyph-name="plus" unicode="+" horiz-adv-x="497" 
d="M300 519l-4 -151l146 3l-12 -99h-136l-3 -147l-93 -12v159h-143l12 92l131 2v141z" />
    <glyph glyph-name="comma" unicode="," horiz-adv-x="238" 
d="M61 115l115 5l6 -19l-58 -203l-79 17l16 114v86z" />
    <glyph glyph-name="hyphen" unicode="-" horiz-adv-x="441" 
d="M84 265l285 7l-12 -97h-285z" />
    <glyph glyph-name="period" unicode="." horiz-adv-x="238" 
d="M63 115l118 5v-120h-123z" />
    <glyph glyph-name="slash" unicode="/" horiz-adv-x="390" 
d="M306 678l94 -46l-323 -761l-89 39z" />
    <glyph glyph-name="zero" unicode="0" horiz-adv-x="616" 
d="M308 643q117 0 181.5 -86.5t64.5 -241.5q0 -147 -67 -237.5t-179 -90.5q-118 0 -182.5 86t-64.5 242q0 147 67 237.5t180 90.5zM215 511q-41 -72 -41 -196q0 -232 136 -232q53 0 90 35q41 72 41 197q0 232 -136 232q-54 0 -90 -36z" />
    <glyph glyph-name="one" unicode="1" horiz-adv-x="354" 
d="M190 635l83 -10l-8 -129v-496h-110v447l-84 -62l-50 70l103 91z" />
    <glyph glyph-name="two" unicode="2" horiz-adv-x="528" 
d="M73 0l-12 80l204 174q51 43 76 78q17 42 17 106q0 53 -27.5 82.5t-78.5 29.5q-22 0 -44 -8q-38 -25 -80 -71l-73 88q86 84 206 84q96 0 152.5 -54t56.5 -147q0 -79 -34 -140t-106 -116l-123 -94h56l200 16l10 -11l-10 -102l-187 5h-203z" />
    <glyph glyph-name="three" unicode="3" horiz-adv-x="542" 
d="M189 381l71 -5h18q22 0 42 6q28 29 28 78q0 90 -91 90q-22 0 -37 -4q-44 -20 -85 -59l-69 86q86 70 195 70q94 0 146.5 -47t52.5 -128q0 -83 -56 -123v-7q85 -38 85 -143q0 -99 -64.5 -153.5t-172.5 -54.5q-129 0 -212 92l70 84q47 -49 101 -78q17 -4 42 -4q54 0 94 20
q29 32 29 89q0 94 -93 94h-20l-67 -9l-17 96z" />
    <glyph glyph-name="four" unicode="4" horiz-adv-x="577" 
d="M261 634l113 -9l8 -13q-32 -151 -132 -297l-79 -115h183v78l14 89l95 10v-180l79 7l-11 -97h-68v-107h-109v107h-291l-11 82l113 177q77 120 96 268z" />
    <glyph glyph-name="five" unicode="5" horiz-adv-x="538" 
d="M37 71l73 90q47 -49 99 -77q15 -3 33 -3q56 0 95 21q32 38 32 101q0 118 -107 118q-66 0 -103 -41l-66 22l22 328h143l195 9l10 -11l-15 -104l-160 11h-78l-14 -141q40 17 86 17q94 0 147.5 -55.5t53.5 -150.5q0 -98 -66 -158t-166 -60q-68 0 -118 19.5t-96 64.5z" />
    <glyph glyph-name="six" unicode="6" horiz-adv-x="545" 
d="M423 643l25 -109q-92 -7 -185 -36q-70 -55 -83 -145q43 27 85 38q11 2 36 2q90 0 140.5 -54t50.5 -145q0 -86 -59.5 -146.5t-158.5 -60.5q-104 0 -159 69.5t-55 197.5q0 161 95.5 267t267.5 122zM175 264q-3 -26 -3 -51q0 -63 27.5 -98.5t73.5 -35.5q53 0 84 23
q24 38 24 93q0 109 -97 109q-61 0 -109 -40z" />
    <glyph glyph-name="seven" unicode="7" horiz-adv-x="496" 
d="M60 634l141 -4h244l6 -79l-80 -139q-77 -135 -99 -283v-129h-122q0 209 132 444l52 93h-77l-203 -11l-9 12z" />
    <glyph glyph-name="eight" unicode="8" horiz-adv-x="566" 
d="M284 643q86 0 139 -47t53 -125q0 -79 -56 -132q89 -56 89 -156q0 -87 -63 -141.5t-162 -54.5q-104 0 -165.5 54t-61.5 140q0 104 79 169q-47 49 -47 118q0 74 54.5 124.5t140.5 50.5zM276 286q-29 4 -62 16q-47 -43 -47 -114q0 -48 31.5 -77.5t85.5 -29.5q52 0 86 20
q28 33 28 81q0 43 -29 68.5t-93 35.5zM302 381q21 -4 34 -7q32 33 32 96q0 40 -22.5 61t-61.5 21q-44 0 -70 -18q-16 -23 -16 -61q0 -39 23.5 -61t80.5 -31z" />
    <glyph glyph-name="nine" unicode="9" horiz-adv-x="545" 
d="M126 -13l-26 108q107 9 181 34q70 55 84 147q-35 -22 -86 -38q-22 -2 -36 -2q-90 0 -140.5 54t-50.5 146q0 86 59.5 146.5t157.5 60.5q102 0 159 -71t57 -197q0 -170 -89.5 -270t-269.5 -118zM369 365q3 17 3 51q0 62 -28 99t-75 37q-50 0 -82 -24q-24 -38 -24 -93
q0 -109 98 -109q64 0 108 39z" />
    <glyph glyph-name="colon" unicode=":" horiz-adv-x="238" 
d="M63 115l118 5v-120h-123zM63 429l118 5v-120h-123z" />
    <glyph glyph-name="semicolon" unicode=";" horiz-adv-x="238" 
d="M61 115l115 5l6 -19l-58 -203l-79 17l16 114v86zM63 429l118 5v-120h-123z" />
    <glyph glyph-name="less" unicode="&#x3c;" horiz-adv-x="345" 
d="M228 544l71 -57l-140 -156l139 -159l-82 -59l-176 199v28z" />
    <glyph glyph-name="equal" unicode="=" horiz-adv-x="468" 
d="M72 453l340 12l-7 -105l-339 3zM63 273l338 3l-5 -104l-339 11z" />
    <glyph glyph-name="greater" unicode="&#x3e;" horiz-adv-x="345" 
d="M46 485l82 59l177 -199v-29l-188 -203l-71 56l139 158z" />
    <glyph glyph-name="question" unicode="?" horiz-adv-x="470" 
d="M160 114l117 6l5 -120h-123zM102 528l-91 90q89 82 212 82q93 0 149 -47.5t56 -136.5q0 -48 -18 -84t-41.5 -54.5t-56.5 -45t-52 -49.5v-94l-81 -5q-33 31 -33 86q0 74 80 117q40 21 76 56q10 27 10 62q0 99 -97 99q-10 0 -26 -2q-46 -24 -87 -74z" />
    <glyph glyph-name="at" unicode="@" horiz-adv-x="832" 
d="M560 392l9 -8v-235q18 -23 43 -23q21 0 37 11q20 42 20 124q0 103 -62 163.5t-172 60.5q-115 0 -197 -60q-77 -80 -77 -218q0 -128 70 -196.5t196 -68.5q110 0 206 37l28 -89q-103 -45 -234 -45q-173 0 -272.5 96t-99.5 266q0 164 108 269.5t272 105.5q154 0 248 -89.5
t94 -230.5q0 -108 -46.5 -169t-122.5 -61q-62 0 -102 51q-47 -58 -119 -58q-65 0 -107 48t-42 136q0 85 48 138.5t121 53.5q63 0 98 -28zM471 165v124q-21 21 -55 21q-35 0 -58 -20q-19 -31 -19 -81q0 -93 65 -93q42 0 67 49z" />
    <glyph glyph-name="A" unicode="A" horiz-adv-x="614" 
d="M222 625l153 11l205 -621v-15h-129l-16 96l-18 58l-223 4l-17 -58l-8 -100h-136v15l181 520zM299 512l-79 -267l169 7l-77 260h-13z" />
    <glyph glyph-name="B" unicode="B" horiz-adv-x="586" 
d="M78 630h211q105 0 158.5 -45t53.5 -123q0 -74 -60 -112v-7q91 -45 91 -148q0 -94 -65 -144.5t-170 -50.5h-209v518zM201 286v-195h100q52 0 85 17q32 30 32 82q0 96 -114 96h-103zM201 539v-168h90q40 0 70 9q27 24 27 74q0 85 -105 85h-82z" />
    <glyph glyph-name="C" unicode="C" horiz-adv-x="587" 
d="M519 574l-73 -100q-39 39 -96 69q-12 3 -33 3q-53 0 -94 -33q-47 -77 -47 -198q0 -115 41.5 -173t109.5 -58q85 0 146 70l63 -77q-81 -90 -215 -90q-128 0 -194 87.5t-66 240.5q0 151 72.5 239.5t192.5 88.5q119 0 193 -69z" />
    <glyph glyph-name="D" unicode="D" horiz-adv-x="619" 
d="M78 630h209q129 0 201.5 -81t72.5 -234q0 -146 -73.5 -230.5t-200.5 -84.5h-199v521zM202 94h83q73 0 113 33q47 67 47 188q0 113 -43.5 167t-117.5 54h-82v-442z" />
    <glyph glyph-name="E" unicode="E" horiz-adv-x="555" 
d="M78 630h410l-12 -101l-191 9h-83v-170h68l165 9l-10 -101l-223 5v-189h85l209 11l-5 -103h-403v518z" />
    <glyph glyph-name="F" unicode="F" horiz-adv-x="545" 
d="M78 630h403l-12 -101l-187 9h-80v-180h66l161 9l-9 -100l-218 5v-272h-114v520z" />
    <glyph glyph-name="G" unicode="G" horiz-adv-x="597" 
d="M525 577l-72 -101q-41 40 -96 68q-18 4 -35 4q-57 0 -99 -33q-47 -81 -47 -200q0 -116 40 -174t109 -58q51 0 95 25v154l-119 -6l11 95h228l3 -16l-15 -94v-241l-21 -5l-63 26q-56 -34 -129 -34q-126 0 -190 87t-64 241q0 150 74.5 239t195.5 89q117 0 194 -66z" />
    <glyph glyph-name="H" unicode="H" horiz-adv-x="646" 
d="M78 625l124 9v-269l242 8v145l-11 107l125 9v-634h-114v269l-242 5v-274h-114v518z" />
    <glyph glyph-name="I" unicode="I" horiz-adv-x="291" 
d="M78 625l124 9v-634h-114v515z" />
    <glyph glyph-name="J" unicode="J" horiz-adv-x="291" 
d="M77 625l125 9v-570q0 -216 -208 -273l-36 102q60 13 101 33q33 38 33 120v23l-4 87v362z" />
    <glyph glyph-name="K" unicode="K" horiz-adv-x="625" 
d="M78 625l124 9v-294l77 43q74 77 106 168l27 80l126 -5v-15q-41 -124 -117 -210l-56 -62q82 -174 215 -324v-15l-136 -6q-98 132 -161 283l-81 -50v-227h-114v518z" />
    <glyph glyph-name="L" unicode="L" horiz-adv-x="530" 
d="M78 625l124 9v-543h64l211 14l11 -11l-10 -94h-390v521z" />
    <glyph glyph-name="M" unicode="M" horiz-adv-x="773" 
d="M93 625l159 9l129 -483h12l130 479h153l43 -630h-122v126l-15 343h-13l-30 -130l-101 -339h-114l-102 344l-26 125h-12l-11 -303v-166h-123l43 507v118z" />
    <glyph glyph-name="N" unicode="N" horiz-adv-x="643" 
d="M78 625l115 9l254 -456h9l-8 204v125l-13 118l120 9v-631l-105 -9l-254 452h-9l8 -247v-199h-107v515z" />
    <glyph glyph-name="O" unicode="O" horiz-adv-x="646" 
d="M323 643q122 0 192 -85.5t70 -242.5q0 -154 -71 -241t-191 -87q-122 0 -192 85.5t-70 242.5q0 149 72 238.5t190 89.5zM225 513q-49 -81 -49 -198q0 -119 40 -175.5t109 -56.5q57 0 95 32q50 80 50 200q0 119 -40 175.5t-109 56.5q-58 0 -96 -34z" />
    <glyph glyph-name="P" unicode="P" horiz-adv-x="571" 
d="M78 630h217q100 0 164.5 -54.5t64.5 -154.5q0 -97 -58.5 -156.5t-151.5 -59.5q-66 0 -112 20v-225h-114v512zM202 536v-224q49 -13 96 -13q53 0 86 23q25 38 25 98q0 116 -121 116h-86z" />
    <glyph glyph-name="Q" unicode="Q" horiz-adv-x="646" 
d="M323 643q122 0 192 -85.5t70 -242.5q0 -133 -53.5 -216.5t-147.5 -104.5q93 -66 200 -107v-12l-86 -75q-115 60 -209 162q-55 58 -108 58q-41 0 -60 -26l-31 7q1 49 18 102q-47 80 -47 212q0 149 72 238.5t190 89.5zM225 513q-49 -81 -49 -198q0 -119 40 -175.5
t109 -56.5q57 0 95 32q50 80 50 200q0 119 -40 175.5t-109 56.5q-58 0 -96 -34z" />
    <glyph glyph-name="R" unicode="R" horiz-adv-x="584" 
d="M78 630h218q104 0 166.5 -53.5t62.5 -152.5q0 -71 -34 -121t-92 -72q63 -117 144 -216v-15l-127 -6q-78 114 -119 223q-59 3 -95 19v-236h-114v515zM202 536v-213q47 -14 97 -14q51 0 86 23q25 35 25 92q0 112 -120 112h-88z" />
    <glyph glyph-name="S" unicode="S" horiz-adv-x="557" 
d="M487 575l-73 -93q-28 29 -94 63q-20 4 -37 4q-49 0 -84 -19q-18 -22 -18 -60q0 -40 28 -63.5t89 -32.5q204 -30 204 -197q0 -87 -64 -138.5t-169 -51.5q-126 0 -218 69l62 98q57 -47 116 -68q28 -4 43 -4q59 0 94 20q27 27 27 71q0 42 -28 66t-93 32q-96 12 -147.5 61
t-51.5 129q0 81 57 131.5t148 50.5q124 0 209 -68z" />
    <glyph glyph-name="T" unicode="T" horiz-adv-x="530" 
d="M36 635l162 -5h134l169 6l-5 -110l-141 9h-35v-535h-114v535h-34l-144 -8z" />
    <glyph glyph-name="U" unicode="U" horiz-adv-x="645" 
d="M78 625l124 9v-379q0 -88 31.5 -131.5t88.5 -43.5q54 0 89 26q32 47 32 142v269l-10 108l123 9v-380q0 -125 -60.5 -196t-173.5 -71q-112 0 -173 67.5t-61 195.5v264z" />
    <glyph glyph-name="V" unicode="V" horiz-adv-x="582" 
d="M31 625l135 9l19 -125l108 -385h12l103 368l9 138h134v-15l-32 -133l-133 -392l-17 -90l-144 -8l-194 619v14z" />
    <glyph glyph-name="W" unicode="W" horiz-adv-x="835" 
d="M31 625l135 9l14 -138l50 -229l23 -146h12l74 369l19 134l125 6l82 -363l25 -146h11l69 369l7 140h127v-16l-30 -165l-88 -342l-17 -105l-155 -6l-87 434h-11l-55 -295l-14 -132l-169 -8l-147 615v15z" />
    <glyph glyph-name="X" unicode="X" horiz-adv-x="577" 
d="M47 625l135 9l31 -90l79 -153h7l69 138l28 101h132v-16l-60 -120l-105 -170l181 -308v-16h-143l-31 89l-85 170h-8l-77 -161l-32 -98h-136v15l48 94l134 215l-167 286v15z" />
    <glyph glyph-name="Y" unicode="Y" horiz-adv-x="575" 
d="M31 625l134 9l36 -123l95 -230h11l81 209l28 140h127v-15l-47 -133l-143 -307v-175h-113v176l-209 435v14z" />
    <glyph glyph-name="Z" unicode="Z" horiz-adv-x="517" 
d="M60 630h401l6 -74l-291 -465h60l228 15l11 -11l-11 -95h-416l-6 70l292 468h-60l-217 -15l-9 11z" />
    <glyph glyph-name="bracketleft" unicode="[" horiz-adv-x="264" 
d="M50 621h201v-85l-97 -6v-599l97 -5v-86h-201v781z" />
    <glyph glyph-name="backslash" unicode="\" horiz-adv-x="389" 
d="M-12 635l93 43l319 -765l-90 -42z" />
    <glyph glyph-name="bracketright" unicode="]" horiz-adv-x="264" 
d="M12 621h202v-781h-202v86l98 5v599l-98 6v85z" />
    <glyph glyph-name="asciicircum" unicode="^" horiz-adv-x="382" 
d="M192 673h27l159 -184l-74 -58l-106 113l-98 -113l-67 58z" />
    <glyph glyph-name="underscore" unicode="_" horiz-adv-x="403" 
d="M20 -84l382 7l-12 -99h-382z" />
    <glyph glyph-name="grave" unicode="`" horiz-adv-x="243" 
d="M97 733h14l51 -89l62 -89l-68 -34l-136 144z" />
    <glyph glyph-name="a" unicode="a" horiz-adv-x="504" 
d="M119 298l-61 82q86 61 199 61q81 0 123 -44t42 -126v-157l47 -74l-86 -55l-45 63q-41 -36 -95 -56q-18 -3 -44 -3q-70 0 -109.5 33.5t-39.5 93.5q0 53 37 88t104 44l122 17l3 10v15q0 29 -19.5 45.5t-51.5 16.5q-23 0 -49 -4q-46 -23 -77 -50zM313 123v62l-93 -6
q-28 -2 -49 -13q-11 -17 -11 -39q0 -51 60 -51q59 0 93 47z" />
    <glyph glyph-name="b" unicode="b" horiz-adv-x="530" 
d="M181 660v-268q45 34 86 46q15 3 33 3q81 0 130 -57.5t49 -165.5q0 -104 -60.5 -166.5t-158.5 -62.5q-64 0 -109 20l-77 -17l-15 10l12 103v448l-9 98zM181 293v-190q37 -24 77 -24q52 0 82 24q28 44 28 115q0 134 -89 134q-62 0 -98 -59z" />
    <glyph glyph-name="c" unicode="c" horiz-adv-x="473" 
d="M427 389l-75 -85q-28 26 -68 45q-16 2 -27 2q-39 0 -69 -24q-26 -41 -26 -110q0 -66 30 -101.5t80 -35.5q59 0 112 44l48 -80q-71 -55 -169 -55q-99 0 -155.5 60.5t-56.5 163.5q0 106 60.5 167t157.5 61q95 0 158 -52z" />
    <glyph glyph-name="d" unicode="d" horiz-adv-x="529" 
d="M341 651l118 9v-543l38 -83l-98 -46l-29 54q-47 -36 -88 -50q-21 -3 -44 -3q-89 0 -138 58.5t-49 164.5q0 107 54.5 168t144.5 61q61 0 99 -24v136zM349 134v188q-37 30 -89 30q-42 0 -73 -26q-25 -41 -25 -115q0 -132 90 -132q60 0 97 55z" />
    <glyph glyph-name="e" unicode="e" horiz-adv-x="500" 
d="M449 190l-202 -10l-85 3q1 -50 29.5 -77.5t77.5 -27.5q70 0 132 42l43 -79q-77 -52 -178 -52q-102 0 -158.5 60t-56.5 166q0 101 59 163.5t153 62.5q87 0 136.5 -57t49.5 -153v-41zM162 256l177 11q0 39 -22.5 62.5t-60.5 23.5q-44 0 -73 -24q-21 -30 -21 -73z" />
    <glyph glyph-name="f" unicode="f" horiz-adv-x="317" 
d="M30 422l60 9v64q0 75 53 128.5t142 53.5l15 -103q-57 0 -93 -17q-10 -17 -10 -41v-29l3 -57h97l-7 -95l-94 6l7 -333l-22 -189l-91 5v510l-60 15v73z" />
    <glyph glyph-name="g" unicode="g" horiz-adv-x="502" 
d="M241 441q33 0 60 -9l169 14l7 -10l-14 -80l-69 5q25 -39 25 -78q0 -67 -49.5 -112.5t-128.5 -45.5q-31 0 -56 6q-9 -14 -9 -34q0 -41 41 -41h77q80 0 121.5 -35t41.5 -98q0 -76 -65.5 -127.5t-171.5 -51.5q-86 0 -135.5 41.5t-49.5 109.5q0 23 6 45q22 41 54 73
q-19 27 -19 63q0 16 3 33q14 28 39 53q-54 43 -54 121q0 67 49 112.5t128 45.5zM192 -31l-30 7q-25 -24 -25 -68q0 -35 25 -54.5t68 -19.5q59 0 101 20q23 22 23 57q0 58 -70 58h-92zM183 341q-18 -23 -18 -58q0 -33 20 -52.5t56 -19.5q34 0 59 14q18 21 18 58
q0 33 -20 52.5t-57 19.5q-33 0 -58 -14z" />
    <glyph glyph-name="h" unicode="h" horiz-adv-x="525" 
d="M62 651l119 8v-273q40 33 75 50q22 5 42 5q83 0 122.5 -44.5t39.5 -122.5v-274h-111v271q0 76 -66 76q-62 0 -102 -63v-284h-110v554z" />
    <glyph glyph-name="i" unicode="i" horiz-adv-x="240" 
d="M56 426l119 9v-435h-110v332zM62 645l118 10v-119l-123 5z" />
    <glyph glyph-name="j" unicode="j" horiz-adv-x="243" 
d="M59 426l119 9v-413q0 -92 -44.5 -151t-137.5 -89l-44 99q45 8 86 27q33 36 33 84v22l-3 53v265zM65 645l118 10v-119l-123 5z" />
    <glyph glyph-name="k" unicode="k" horiz-adv-x="509" 
d="M62 651l119 8v-398q30 12 56 32q61 74 86 140l127 -5l2 -10q-64 -103 -143 -178q65 -113 173 -229l-3 -11l-126 -5q-72 86 -124 193q-36 -17 -48 -21v-167h-110v554z" />
    <glyph glyph-name="l" unicode="l" horiz-adv-x="280" 
d="M185 659v-425l-3 -59v-37q0 -48 41 -48q14 0 26 4l11 -90q-30 -11 -69 -11q-116 0 -116 147v414l-9 97z" />
    <glyph glyph-name="m" unicode="m" horiz-adv-x="787" 
d="M38 395l105 46l29 -63q38 36 84 58q22 5 42 5q83 0 128 -62q44 38 99 58q16 4 40 4q79 0 118 -43.5t39 -123.5v-274h-110v276q0 36 -13.5 53.5t-46.5 17.5q-54 0 -99 -51q3 -14 3 -45v-251h-110v267q0 81 -61 81q-58 0 -99 -64v-284h-110v309z" />
    <glyph glyph-name="n" unicode="n" horiz-adv-x="533" 
d="M38 395l105 46l29 -63q40 36 90 59q17 4 43 4q79 0 121 -45.5t42 -121.5v-274h-112v271q0 36 -17.5 56t-48.5 20q-62 0 -103 -63v-284h-111v309z" />
    <glyph glyph-name="o" unicode="o" horiz-adv-x="528" 
d="M264 441q96 0 154.5 -61.5t58.5 -164.5q0 -99 -60 -162.5t-153 -63.5q-97 0 -155 61t-58 165q0 99 60 162.5t153 63.5zM264 79q44 0 74 23q28 45 28 113q0 69 -29.5 102t-72.5 33q-44 0 -75 -23q-27 -43 -27 -112t29.5 -102.5t72.5 -33.5z" />
    <glyph glyph-name="p" unicode="p" horiz-adv-x="535" 
d="M143 441l29 -62q45 38 100 59q21 3 41 3q80 0 125.5 -58.5t45.5 -163.5q0 -107 -57 -168.5t-144 -61.5q-52 0 -97 21v-120l10 -111h-120v530l-38 86zM186 287v-181q42 -29 91 -29q35 0 66 19q30 46 30 122q0 133 -86 133q-62 0 -101 -64z" />
    <glyph glyph-name="q" unicode="q" horiz-adv-x="527" 
d="M439 451l16 -9v-529l11 -134h-121v253q-35 -24 -78 -40q-18 -3 -40 -3q-80 0 -127 58t-47 165q0 102 60 165.5t154 63.5q56 0 98 -16zM345 136v197q-34 18 -77 18q-46 0 -80 -27q-24 -40 -24 -112q0 -134 89 -134q57 0 92 58z" />
    <glyph glyph-name="r" unicode="r" horiz-adv-x="402" 
d="M40 397l104 44l28 -64q40 35 88 61q16 3 37 3q45 0 79 -20l-37 -109q-35 24 -73 24q-45 0 -79 -55v-281h-111v311z" />
    <glyph glyph-name="s" unicode="s" horiz-adv-x="462" 
d="M43 37l52 90q40 -33 93 -51q20 -2 34 -2q48 0 78 14q12 14 12 34q0 22 -17.5 33.5t-71.5 17.5q-163 18 -163 133q0 60 46 97.5t131 37.5q93 0 170 -45l-53 -84q-37 26 -80 41q-16 3 -37 3q-39 0 -66 -12q-10 -11 -10 -29q0 -23 17.5 -35t61.5 -17q172 -20 172 -136
q0 -64 -48.5 -101t-136.5 -37q-108 0 -184 48z" />
    <glyph glyph-name="t" unicode="t" horiz-adv-x="366" 
d="M207 538l-6 -108h113l-6 -93l-105 7v-194q0 -68 47 -68q34 0 62 22l26 -81q-44 -34 -109 -34q-69 0 -102.5 41.5t-33.5 113.5v192l-58 14v68q26 7 58 24q23 44 34 101z" />
    <glyph glyph-name="u" unicode="u" horiz-adv-x="524" 
d="M56 426l120 9v-277q0 -36 17.5 -56t48.5 -20q56 0 96 64v186l-9 94l120 9v-314l37 -88l-104 -44l-29 63q-38 -37 -82 -60q-21 -3 -43 -3q-79 0 -121 45t-42 121v177z" />
    <glyph glyph-name="v" unicode="v" horiz-adv-x="476" 
d="M26 426l117 9l99 -341h5l40 115q35 100 43 221h120v-12q-22 -111 -71 -223l-83 -193l-113 -5l-157 418v11z" />
    <glyph glyph-name="w" unicode="w" horiz-adv-x="684" 
d="M26 426l114 9l77 -323h6l34 113q24 83 34 201l103 5l82 -319h6l34 132q21 82 27 186h115v-12q-19 -99 -61 -221l-67 -196l-115 -5l-65 257h-6l-69 -252l-121 -5l-128 419v11z" />
    <glyph glyph-name="x" unicode="x" horiz-adv-x="494" 
d="M166 435l83 -158h6l29 45q30 48 39 108h123v-12q-23 -69 -91 -150l-42 -49l151 -208v-11h-129l-91 164h-6l-41 -67q-25 -40 -37 -97h-130v11q26 58 84 129l66 82l-138 193v11z" />
    <glyph glyph-name="y" unicode="y" horiz-adv-x="484" 
d="M26 426l118 9l107 -348h7l43 134q28 90 37 209h120v-11q-17 -97 -64 -211l-130 -315l-8 -133l-107 5l-7 9q7 102 54 200l-170 441v11z" />
    <glyph glyph-name="z" unicode="z" horiz-adv-x="446" 
d="M60 430h331l4 -60l-218 -287h38l179 13l8 -8l-12 -88h-343l-4 58l218 289h-41l-163 -12l-8 8z" />
    <glyph glyph-name="braceleft" unicode="{" horiz-adv-x="311" 
d="M244 631l23 -79q-69 -9 -69 -84q0 -28 6.5 -70t6.5 -67q0 -61 -44 -93q44 -31 44 -99q0 -27 -6.5 -71.5t-6.5 -66.5q0 -29 19.5 -50t49.5 -30l-32 -83q-67 7 -104.5 47t-37.5 101q0 25 7 68.5t7 69.5q0 27 -14.5 47.5t-42.5 28.5l-5 67q62 9 62 65q0 25 -7 74t-7 78
q0 62 42 101.5t109 45.5z" />
    <glyph glyph-name="bar" unicode="|" horiz-adv-x="274" 
d="M74 596l115 9v-757h-104v643z" />
    <glyph glyph-name="braceright" unicode="}" horiz-adv-x="311" 
d="M43 548l32 83q67 -7 104.5 -46.5t37.5 -101.5q0 -26 -6.5 -70t-6.5 -68q0 -60 56 -76l6 -67q-62 -9 -62 -65q0 -25 6.5 -73.5t6.5 -77.5q0 -62 -41.5 -102t-108.5 -46l-24 79q70 11 70 84q0 28 -6.5 70t-6.5 67q0 62 44 93q-44 33 -44 99q0 27 6.5 71.5t6.5 66.5
q0 29 -20 50.5t-50 29.5z" />
    <glyph glyph-name="asciitilde" unicode="~" horiz-adv-x="462" 
d="M91 263l-46 70q52 42 95 60q21 3 26 3q27 0 48 -11t33 -23.5t28.5 -23.5t34.5 -11q32 11 61 34l46 -70q-41 -36 -95 -61q-14 -2 -26 -2q-26 0 -47.5 11t-33 23.5t-28.5 23.5t-35 11q-29 -10 -61 -34z" />
    <glyph glyph-name="exclamdown" unicode="&#xa1;" horiz-adv-x="255" 
d="M193 -172l-124 -12l12 495h94l7 -359zM188 396l-117 -6l-5 120h123z" />
    <glyph glyph-name="sterling" unicode="&#xa3;" horiz-adv-x="531" 
d="M467 140l34 -106q-63 -47 -154 -47q-34 0 -80 15.5t-73 15.5q-51 0 -93 -29l-44 73q42 27 61 49q15 43 15 92q0 1 -0.5 4t-0.5 5l-62 -12l-16 82l59 13q-28 75 -28 120q0 89 67 148.5t188 59.5l16 -105q-93 -3 -143 -22q-20 -35 -20 -81q0 -38 23 -94l121 35l21 -98
l-116 -24q0 -3 0.5 -9t0.5 -10q0 -60 -26 -103q26 -1 67.5 -15t65.5 -14q61 21 107 59z" />
    <glyph glyph-name="currency" unicode="&#xa4;" horiz-adv-x="453" 
d="M105 503l51 -51q31 16 71 16t71 -14l50 48l65 -65l-47 -48q21 -30 21 -77q0 -45 -20 -76l46 -50l-64 -65l-51 50q-31 -16 -72 -16t-70 14l-51 -48l-65 65l47 48q-20 31 -20 78q0 45 19 74l-46 50zM227 383q-34 0 -56 -16q-14 -21 -14 -55q0 -33 18.5 -52.5t50.5 -19.5
q36 0 56 16q15 20 15 56q0 33 -18.5 52t-51.5 19z" />
    <glyph glyph-name="yen" unicode="&#xa5;" horiz-adv-x="557" 
d="M105 330l74 -3l-148 264v14l133 9l34 -109l89 -176h10l70 154l32 127h127v-15l-49 -119l-82 -147l91 6l-12 -94h-381zM102 185h381l-12 -94l-127 7v-98h-111v99l-139 -4z" />
    <glyph glyph-name="brokenbar" unicode="&#xa6;" horiz-adv-x="274" 
d="M74 181l115 9v-342h-104v221zM189 263h-104v228l-11 105l115 9v-342z" />
    <glyph glyph-name="section" unicode="&#xa7;" horiz-adv-x="494" 
d="M48 12l66 87q46 -43 81 -59q13 -4 36 -4q44 0 70 14q13 12 13 44q0 29 -19 44.5t-69 23.5q-85 13 -131.5 57t-46.5 109q0 76 61 129q-28 36 -28 83q0 68 47 110t127 42q99 0 169 -54l-64 -85q-33 33 -68 47q-15 3 -35 3q-39 0 -63 -14q-10 -17 -10 -40q0 -56 85 -70
q84 -14 131.5 -57.5t47.5 -108.5q0 -79 -59 -128q29 -37 29 -88q0 -64 -51 -107t-133 -43q-107 0 -186 65zM245 387q-33 5 -67 19q-24 -21 -24 -64q0 -73 96 -88q39 -6 69 -18q23 23 23 63q0 36 -23 57.5t-74 30.5z" />
    <glyph glyph-name="dieresis" unicode="&#xa8;" horiz-adv-x="338" 
d="M210 645l113 7v-116l-117 4zM19 643l113 10v-117l-117 5z" />
    <glyph glyph-name="copyright" unicode="&#xa9;" horiz-adv-x="823" 
d="M411 682q160 0 259.5 -98t99.5 -266q0 -159 -102.5 -262t-255.5 -103q-159 0 -259.5 98t-100.5 267q0 159 103 261.5t256 102.5zM411 590q-110 0 -193 -67q-63 -83 -63 -205q0 -128 70 -200t187 -72q110 0 193 67q62 81 62 205q0 128 -69.5 200t-186.5 72zM554 451
l-56 -81q-28 29 -55 47q-13 3 -32 3q-42 0 -63 -16q-19 -34 -19 -86q0 -47 22 -73.5t62 -26.5q57 0 97 42l47 -67q-60 -60 -147 -60q-79 0 -126.5 49.5t-47.5 135.5q0 80 49.5 133t126.5 53q89 0 142 -53z" />
    <glyph glyph-name="guillemotleft" unicode="&#xab;" horiz-adv-x="477" 
d="M170 388l80 -36l-88 -118l86 -116l-72 -56l-125 146v32zM344 390l83 -32l-82 -124l82 -117l-73 -56l-118 150v31z" />
    <glyph glyph-name="logicalnot" unicode="&#xac;" horiz-adv-x="454" 
d="M60 444h240l107 8l-11 -248h-93v148h-256z" />
    <glyph glyph-name="uni00AD" unicode="&#xad;" horiz-adv-x="441" 
d="M84 265l285 7l-12 -97h-285z" />
    <glyph glyph-name="registered" unicode="&#xae;" horiz-adv-x="592" 
d="M295 740q112 0 181 -71.5t69 -180.5q0 -107 -71 -179.5t-178 -72.5q-111 0 -180 71.5t-69 180.5q0 107 70 179.5t178 72.5zM272 448v-74h-69v176l-5 57h105q45 0 70.5 -22t25.5 -59q0 -23 -12 -40.5t-31 -25.5l53 -56l-50 -44l-73 88h-14zM272 498h30q16 0 24 5q5 7 5 22
q0 24 -29 24h-30v-51zM295 666q-67 0 -121 -38q-41 -52 -41 -140q0 -82 44 -130t119 -48q70 0 122 36q41 52 41 142q0 81 -44.5 129.5t-119.5 48.5z" />
    <glyph glyph-name="macron" unicode="&#xaf;" horiz-adv-x="330" 
d="M34 630l145 7l125 14l8 -8l-11 -94l-275 -8l-9 8z" />
    <glyph glyph-name="degree" unicode="&#xb0;" horiz-adv-x="385" 
d="M192 682q70 0 112 -43t42 -114q0 -69 -44 -112.5t-109 -43.5q-70 0 -112.5 43t-42.5 113q0 69 44.5 113t109.5 44zM192 598q-26 0 -49 -14q-13 -22 -13 -59q0 -33 16.5 -52.5t46.5 -19.5q29 0 48 14q14 21 14 58q0 34 -17 53.5t-46 19.5z" />
    <glyph glyph-name="plusminus" unicode="&#xb1;" horiz-adv-x="497" 
d="M299 610l-3 -152l147 3l-12 -98h-137l-3 -138l-93 -12v150h-143l11 91l132 2v142zM79 154l341 6l-11 -100h-343z" />
    <glyph glyph-name="two.sup" unicode="&#xb2;" horiz-adv-x="335" 
d="M49 400l-12 60l122 84q24 15 40 35q6 17 6 37q0 38 -44 38q-16 0 -29 -5q-30 -15 -53 -38l-47 73q58 45 135 45q58 0 92.5 -29.5t34.5 -77.5q0 -79 -83 -125l-49 -27h43l89 8l-8 -84l-108 6h-129z" />
    <glyph glyph-name="three.sup" unicode="&#xb3;" horiz-adv-x="347" 
d="M112 596l48 -2h12q15 0 23 5q8 10 8 27q0 32 -41 32q-9 0 -21 -2q-29 -11 -55 -30l-42 64q55 39 125 39q59 0 91 -24.5t32 -67.5q0 -42 -25 -62q42 -20 42 -71t-39 -80t-107 -29q-77 0 -132 46l45 63q35 -24 59 -34q13 -3 31 -3q23 0 42 7q10 11 10 29q0 32 -34 32h-11
l-51 -5z" />
    <glyph glyph-name="acute" unicode="&#xb4;" horiz-adv-x="237" 
d="M20 555l41 54l70 124h13l73 -68l-128 -144z" />
    <glyph glyph-name="mu" unicode="&#xb5;" horiz-adv-x="524" 
d="M56 426l120 9v-269q0 -84 66 -84q56 0 96 64v186l-9 94l120 9v-314l37 -88l-104 -44l-29 63q-35 -36 -78 -60q-17 -3 -38 -3q-39 0 -64 22v-111l14 -121h-122v553z" />
    <glyph glyph-name="paragraph" unicode="&#xb6;" horiz-adv-x="402" 
d="M322 336l-122 23q-32 0 -51 -11q-9 -16 -9 -39t14 -36.5t41 -13.5q29 0 60 17l39 -6l11 -252q-3 -99 -44.5 -156.5t-115.5 -57.5q-68 0 -114 31l38 96l10 4l77 -38q25 0 39 14q13 29 13 92l-12 175q-28 -5 -36 -5q-54 0 -86.5 35t-32.5 91q0 60 43 100.5t111 40.5h159
l8 -13z" />
    <glyph glyph-name="periodcentered" unicode="&#xb7;" horiz-adv-x="238" 
d="M63 294l118 5v-120h-123z" />
    <glyph glyph-name="cedilla" unicode="&#xb8;" horiz-adv-x="228" 
d="M138 0v-43q72 -23 72 -106q0 -58 -47 -99.5t-138 -53.5l-8 8l14 87q54 3 88 19q8 14 8 34q0 42 -43 42q-15 0 -33 -6l-11 15l25 103h73z" />
    <glyph glyph-name="one.sup" unicode="&#xb9;" horiz-adv-x="279" 
d="M140 726l66 -6l-5 -79v-241h-90v189l-50 -20l-29 60l64 43z" />
    <glyph glyph-name="guillemotright" unicode="&#xbb;" horiz-adv-x="477" 
d="M228 333l72 56l125 -146v-32l-119 -148l-79 36l87 117zM50 334l72 55l118 -149v-31l-108 -148l-82 32l81 123z" />
    <glyph glyph-name="onequarter" unicode="&#xbc;" horiz-adv-x="738" 
d="M140 634l66 -6l-5 -79v-241h-90v189l-50 -20l-29 60l64 43zM520 329l91 -15q-25 -84 -77 -153l-32 -42h77l21 81l63 6v-86l44 4l-4 -75h-40v-49h-88v49h-165l-8 58l62 85q33 46 56 137zM526 655l80 -59l-229 -310l-225 -325l-81 58l237 319z" />
    <glyph glyph-name="onehalf" unicode="&#xbd;" horiz-adv-x="757" 
d="M140 634l66 -6l-5 -79v-241h-90v189l-50 -20l-29 60l64 43zM527 655l80 -59l-229 -310l-225 -325l-81 58l237 319zM471 0l-12 60l122 84q24 15 40 35q6 17 6 37q0 38 -44 38q-16 0 -29 -5q-30 -15 -53 -38l-47 73q58 45 135 45q58 0 92.5 -29.5t34.5 -77.5
q0 -79 -83 -125l-49 -27h43l89 8l-8 -84l-108 6h-129z" />
    <glyph glyph-name="threequarters" unicode="&#xbe;" horiz-adv-x="809" 
d="M112 504l48 -2h12q15 0 23 5q8 10 8 27q0 32 -41 32q-9 0 -21 -2q-29 -11 -55 -30l-42 64q55 39 125 39q59 0 91 -24.5t32 -67.5q0 -42 -25 -62q42 -20 42 -71t-39 -80t-107 -29q-77 0 -132 46l45 63q35 -24 59 -34q13 -3 31 -3q23 0 42 7q10 11 10 29q0 32 -34 32h-11
l-51 -5zM598 655l80 -59l-229 -310l-225 -325l-81 58l237 319zM592 329l91 -15q-25 -84 -77 -153l-32 -42h77l21 81l63 6v-86l44 4l-4 -75h-40v-49h-88v49h-165l-8 58l62 85q33 46 56 137z" />
    <glyph glyph-name="questiondown" unicode="&#xbf;" horiz-adv-x="470" 
d="M310 396l-117 -6l-5 120h123zM368 -18l91 -90q-89 -82 -212 -82q-93 0 -149 47.5t-56 136.5q0 48 18 84t41.5 54.5t56.5 45t52 49.5v94l81 5q33 -31 33 -86q0 -74 -80 -117q-40 -21 -76 -56q-10 -27 -10 -62q0 -99 97 -99q10 0 26 2q46 24 87 74z" />
    <glyph glyph-name="Agrave" unicode="&#xc0;" horiz-adv-x="614" 
d="M222 625l153 11l205 -621v-15h-129l-16 96l-18 58l-223 4l-17 -58l-8 -100h-136v15l181 520zM299 512l-79 -267l169 7l-77 260h-13zM148 853l78 77h14l69 -104l56 -61l-71 -48z" />
    <glyph glyph-name="Aacute" unicode="&#xc1;" horiz-adv-x="614" 
d="M222 625l153 11l205 -621v-15h-129l-16 96l-18 58l-223 4l-17 -58l-8 -100h-136v15l181 520zM299 512l-79 -267l169 7l-77 260h-13zM244 765l56 61l69 104h13l79 -77l-146 -136z" />
    <glyph glyph-name="Acircumflex" unicode="&#xc2;" horiz-adv-x="614" 
d="M222 625l153 11l205 -621v-15h-129l-16 96l-18 58l-223 4l-17 -58l-8 -100h-136v15l181 520zM299 512l-79 -267l169 7l-77 260h-13zM289 897h24l76 -60l84 -52v-15l-77 -64l-99 83l-99 -80l-69 53v14l82 56z" />
    <glyph glyph-name="Atilde" unicode="&#xc3;" horiz-adv-x="614" 
d="M222 625l153 11l205 -621v-15h-129l-16 96l-18 58l-223 4l-17 -58l-8 -100h-136v15l181 520zM299 512l-79 -267l169 7l-77 260h-13zM180 751l-42 66q45 40 82 57q14 2 23 2q37 0 77.5 -27.5t61.5 -27.5q26 10 56 30l41 -68q-35 -35 -84 -57q-14 -2 -23 -2q-37 0 -77 27.5
t-61 27.5q-29 -11 -54 -28z" />
    <glyph glyph-name="Adieresis" unicode="&#xc4;" horiz-adv-x="614" 
d="M222 625l153 11l205 -621v-15h-129l-16 96l-18 58l-223 4l-17 -58l-8 -100h-136v15l181 520zM299 512l-79 -267l169 7l-77 260h-13zM353 848l119 8v-124l-124 4zM135 846l120 11v-125l-124 4z" />
    <glyph glyph-name="Aring" unicode="&#xc5;" horiz-adv-x="614" 
d="M222 625l153 11l205 -621v-15h-129l-16 96l-18 58l-223 4l-17 -58l-8 -100h-136v15l181 520zM299 512l-79 -267l169 7l-77 260h-13zM305 957q61 0 97 -36.5t36 -91.5q0 -51 -37.5 -88.5t-95.5 -37.5q-62 0 -97.5 35.5t-35.5 90.5q0 52 37.5 90t95.5 38zM305 876
q-23 0 -36 -9q-9 -15 -9 -37q0 -21 12.5 -34t32.5 -13t36 9q9 14 9 38q0 21 -12.5 33.5t-32.5 12.5z" />
    <glyph glyph-name="AE" unicode="&#xc6;" horiz-adv-x="869" 
d="M430 630h372l-12 -101l-178 9h-83v-170h69l150 9l-9 -100l-210 5v-190h86l195 11l-6 -103h-388v160l-203 4l-26 -56l-25 -108h-141v15l256 503l24 117zM384 534l-132 -285l164 7v278h-32z" />
    <glyph glyph-name="Ccedilla" unicode="&#xc7;" horiz-adv-x="587" 
d="M519 574l-73 -100q-39 39 -96 69q-12 3 -33 3q-53 0 -94 -33q-47 -77 -47 -198q0 -115 41.5 -173t109.5 -58q85 0 146 70l63 -77q-75 -83 -195 -89v-43q75 -26 75 -110q0 -65 -50 -108.5t-149 -55.5l-8 8l15 93q48 1 89 21q9 18 9 37q0 44 -45 44q-16 0 -32 -7l-12 16
l23 111q-97 21 -146 105t-49 216q0 151 72.5 239.5t192.5 88.5q119 0 193 -69z" />
    <glyph glyph-name="Egrave" unicode="&#xc8;" horiz-adv-x="555" 
d="M78 630h410l-12 -101l-191 9h-83v-170h68l165 9l-10 -101l-223 5v-189h85l209 11l-5 -103h-403v518zM161 853l78 77h14l69 -104l56 -61l-71 -48z" />
    <glyph glyph-name="Eacute" unicode="&#xc9;" horiz-adv-x="555" 
d="M78 630h410l-12 -101l-191 9h-83v-170h68l165 9l-10 -101l-223 5v-189h85l209 11l-5 -103h-403v518zM206 765l56 61l69 104h13l79 -77l-146 -136z" />
    <glyph glyph-name="Ecircumflex" unicode="&#xca;" horiz-adv-x="555" 
d="M78 630h410l-12 -101l-191 9h-83v-170h68l165 9l-10 -101l-223 5v-189h85l209 11l-5 -103h-403v518zM279 897h24l76 -60l84 -52v-15l-77 -64l-99 83l-99 -80l-69 53v14l82 56z" />
    <glyph glyph-name="Edieresis" unicode="&#xcb;" horiz-adv-x="555" 
d="M78 630h410l-12 -101l-191 9h-83v-170h68l165 9l-10 -101l-223 5v-189h85l209 11l-5 -103h-403v518zM340 848l119 8v-124l-124 4zM122 846l120 11v-125l-124 4z" />
    <glyph glyph-name="Igrave" unicode="&#xcc;" horiz-adv-x="291" 
d="M78 625l124 9v-634h-114v515zM4 853l78 77h14l69 -104l56 -61l-71 -48z" />
    <glyph glyph-name="Iacute" unicode="&#xcd;" horiz-adv-x="291" 
d="M78 625l124 9v-634h-114v515zM77 765l56 61l69 104h13l79 -77l-146 -136z" />
    <glyph glyph-name="Icircumflex" unicode="&#xce;" horiz-adv-x="291" 
d="M78 625l124 9v-634h-114v515zM133 897h24l76 -60l84 -52v-15l-77 -64l-99 83l-99 -80l-69 53v14l82 56z" />
    <glyph glyph-name="Idieresis" unicode="&#xcf;" horiz-adv-x="291" 
d="M78 625l124 9v-634h-114v515zM184 849l116 7v-124l-122 4zM-6 846l117 12v-126l-121 4z" />
    <glyph glyph-name="Eth" unicode="&#xd0;" horiz-adv-x="632" 
d="M92 630h209q129 0 201.5 -81t72.5 -234q0 -146 -73.5 -230.5t-200.5 -84.5h-199v263l-60 -1l-7 8l17 79l50 2v170zM216 94h83q73 0 113 33q47 67 47 188q0 113 -43.5 167t-117.5 54h-82v-179l130 13l8 -8l-10 -94l-128 -3v-171z" />
    <glyph glyph-name="Ntilde" unicode="&#xd1;" horiz-adv-x="643" 
d="M78 625l115 9l254 -456h9l-8 204v125l-13 118l120 9v-631l-105 -9l-254 452h-9l8 -247v-199h-107v515zM190 751l-42 66q45 40 82 57q14 2 23 2q37 0 77.5 -27.5t61.5 -27.5q26 10 56 30l41 -68q-35 -35 -84 -57q-14 -2 -23 -2q-37 0 -77 27.5t-61 27.5q-29 -11 -54 -28z
" />
    <glyph glyph-name="Ograve" unicode="&#xd2;" horiz-adv-x="646" 
d="M323 643q122 0 192 -85.5t70 -242.5q0 -154 -71 -241t-191 -87q-122 0 -192 85.5t-70 242.5q0 149 72 238.5t190 89.5zM225 513q-49 -81 -49 -198q0 -119 40 -175.5t109 -56.5q57 0 95 32q50 80 50 200q0 119 -40 175.5t-109 56.5q-58 0 -96 -34zM189 853l78 77h14
l69 -104l56 -61l-71 -48z" />
    <glyph glyph-name="Oacute" unicode="&#xd3;" horiz-adv-x="646" 
d="M323 643q122 0 192 -85.5t70 -242.5q0 -154 -71 -241t-191 -87q-122 0 -192 85.5t-70 242.5q0 149 72 238.5t190 89.5zM225 513q-49 -81 -49 -198q0 -119 40 -175.5t109 -56.5q57 0 95 32q50 80 50 200q0 119 -40 175.5t-109 56.5q-58 0 -96 -34zM269 765l56 61l69 104
h13l79 -77l-146 -136z" />
    <glyph glyph-name="Ocircumflex" unicode="&#xd4;" horiz-adv-x="646" 
d="M323 643q122 0 192 -85.5t70 -242.5q0 -154 -71 -241t-191 -87q-122 0 -192 85.5t-70 242.5q0 149 72 238.5t190 89.5zM225 513q-49 -81 -49 -198q0 -119 40 -175.5t109 -56.5q57 0 95 32q50 80 50 200q0 119 -40 175.5t-109 56.5q-58 0 -96 -34zM313 897h24l76 -60
l84 -52v-15l-77 -64l-99 83l-99 -80l-69 53v14l82 56z" />
    <glyph glyph-name="Otilde" unicode="&#xd5;" horiz-adv-x="646" 
d="M323 643q122 0 192 -85.5t70 -242.5q0 -154 -71 -241t-191 -87q-122 0 -192 85.5t-70 242.5q0 149 72 238.5t190 89.5zM225 513q-49 -81 -49 -198q0 -119 40 -175.5t109 -56.5q57 0 95 32q50 80 50 200q0 119 -40 175.5t-109 56.5q-58 0 -96 -34zM204 751l-42 66
q45 40 82 57q14 2 23 2q37 0 77.5 -27.5t61.5 -27.5q26 10 56 30l41 -68q-35 -35 -84 -57q-14 -2 -23 -2q-37 0 -77 27.5t-61 27.5q-29 -11 -54 -28z" />
    <glyph glyph-name="Odieresis" unicode="&#xd6;" horiz-adv-x="646" 
d="M323 643q122 0 192 -85.5t70 -242.5q0 -154 -71 -241t-191 -87q-122 0 -192 85.5t-70 242.5q0 149 72 238.5t190 89.5zM225 513q-49 -81 -49 -198q0 -119 40 -175.5t109 -56.5q57 0 95 32q50 80 50 200q0 119 -40 175.5t-109 56.5q-58 0 -96 -34zM376 848l119 8v-124
l-124 4zM158 846l120 11v-125l-124 4z" />
    <glyph glyph-name="multiply" unicode="&#xd7;" horiz-adv-x="496" 
d="M71 424l79 65l102 -111l107 112l67 -68l-111 -113l115 -125l-67 -63l-115 119l-116 -118l-66 62l118 123z" />
    <glyph glyph-name="Oslash" unicode="&#xd8;" horiz-adv-x="646" 
d="M323 643q42 0 81 -11l32 89l118 -33l-53 -114q84 -87 84 -259q0 -155 -70.5 -241.5t-191.5 -86.5q-44 0 -88 13l-47 -102l-94 36l53 119q-86 84 -86 262q0 150 71.5 239t190.5 89zM225 513q-48 -79 -48 -198q0 -91 23 -146l167 370q-22 8 -46 8q-56 0 -96 -34zM470 315
q0 88 -23 142l-170 -366q24 -8 48 -8q56 0 95 33q50 82 50 199z" />
    <glyph glyph-name="Ugrave" unicode="&#xd9;" horiz-adv-x="645" 
d="M78 625l124 9v-379q0 -88 31.5 -131.5t88.5 -43.5q54 0 89 26q32 47 32 142v269l-10 108l123 9v-380q0 -125 -60.5 -196t-173.5 -71q-112 0 -173 67.5t-61 195.5v264zM183 853l78 77h14l69 -104l56 -61l-71 -48z" />
    <glyph glyph-name="Uacute" unicode="&#xda;" horiz-adv-x="645" 
d="M78 625l124 9v-379q0 -88 31.5 -131.5t88.5 -43.5q54 0 89 26q32 47 32 142v269l-10 108l123 9v-380q0 -125 -60.5 -196t-173.5 -71q-112 0 -173 67.5t-61 195.5v264zM251 765l56 61l69 104h13l79 -77l-146 -136z" />
    <glyph glyph-name="Ucircumflex" unicode="&#xdb;" horiz-adv-x="645" 
d="M78 625l124 9v-379q0 -88 31.5 -131.5t88.5 -43.5q54 0 89 26q32 47 32 142v269l-10 108l123 9v-380q0 -125 -60.5 -196t-173.5 -71q-112 0 -173 67.5t-61 195.5v264zM307 897h24l76 -60l84 -52v-15l-77 -64l-99 83l-99 -80l-69 53v14l82 56z" />
    <glyph glyph-name="Udieresis" unicode="&#xdc;" horiz-adv-x="645" 
d="M78 625l124 9v-379q0 -88 31.5 -131.5t88.5 -43.5q54 0 89 26q32 47 32 142v269l-10 108l123 9v-380q0 -125 -60.5 -196t-173.5 -71q-112 0 -173 67.5t-61 195.5v264zM370 848l119 8v-124l-124 4zM152 846l120 11v-125l-124 4z" />
    <glyph glyph-name="Yacute" unicode="&#xdd;" horiz-adv-x="575" 
d="M31 625l134 9l36 -123l95 -230h11l81 209l28 140h127v-15l-47 -133l-143 -307v-175h-113v176l-209 435v14zM219 765l56 61l69 104h13l79 -77l-146 -136z" />
    <glyph glyph-name="Thorn" unicode="&#xde;" horiz-adv-x="562" 
d="M78 625l124 9v-114q40 13 90 13q100 0 161.5 -56t61.5 -159q0 -102 -61 -164.5t-156 -62.5q-58 0 -96 17v-108h-114v517zM202 201q42 -16 86 -16q54 0 86 24q26 40 26 108q0 62 -31 93t-85 31q-44 0 -82 -11v-229z" />
    <glyph glyph-name="germandbls" unicode="&#xdf;" horiz-adv-x="621" 
d="M30 422l60 9v52q0 87 49 140.5t135 53.5q79 0 123.5 -45.5t44.5 -117.5q0 -87 -70 -141q-9 -15 -9 -36q0 -43 62 -53q148 -22 148 -146q0 -68 -45 -108.5t-126 -40.5q-92 0 -157 45l48 96q38 -31 77 -48q14 -3 32 -3q30 0 56 12q13 16 13 40q0 54 -66 60
q-71 6 -107.5 40.5t-36.5 89.5q0 75 59 118q16 27 16 69q0 73 -69 73q-34 0 -58 -16q-13 -23 -13 -57v-27l7 -470l-22 -192l-91 5v510l-60 15v73z" />
    <glyph glyph-name="agrave" unicode="&#xe0;" horiz-adv-x="504" 
d="M119 298l-61 82q86 61 199 61q81 0 123 -44t42 -126v-157l47 -74l-86 -55l-45 63q-41 -36 -95 -56q-18 -3 -44 -3q-70 0 -109.5 33.5t-39.5 93.5q0 53 37 88t104 44l122 17l3 10v15q0 29 -19.5 45.5t-51.5 16.5q-23 0 -49 -4q-46 -23 -77 -50zM313 123v62l-93 -6
q-28 -2 -49 -13q-11 -17 -11 -39q0 -51 60 -51q59 0 93 47zM186 733h14l51 -89l62 -89l-68 -34l-136 144z" />
    <glyph glyph-name="aacute" unicode="&#xe1;" horiz-adv-x="504" 
d="M119 298l-61 82q86 61 199 61q81 0 123 -44t42 -126v-157l47 -74l-86 -55l-45 63q-41 -36 -95 -56q-18 -3 -44 -3q-70 0 -109.5 33.5t-39.5 93.5q0 53 37 88t104 44l122 17l3 10v15q0 29 -19.5 45.5t-51.5 16.5q-23 0 -49 -4q-46 -23 -77 -50zM313 123v62l-93 -6
q-28 -2 -49 -13q-11 -17 -11 -39q0 -51 60 -51q59 0 93 47zM178 555l41 54l70 124h13l73 -68l-128 -144z" />
    <glyph glyph-name="acircumflex" unicode="&#xe2;" horiz-adv-x="504" 
d="M119 298l-61 82q86 61 199 61q81 0 123 -44t42 -126v-157l47 -74l-86 -55l-45 63q-41 -36 -95 -56q-18 -3 -44 -3q-70 0 -109.5 33.5t-39.5 93.5q0 53 37 88t104 44l122 17l3 10v15q0 29 -19.5 45.5t-51.5 16.5q-23 0 -49 -4q-46 -23 -77 -50zM313 123v62l-93 -6
q-28 -2 -49 -13q-11 -17 -11 -39q0 -51 60 -51q59 0 93 47zM240 705h26l71 -63l73 -51v-14l-73 -64l-88 87l-93 -83l-64 52v14l76 57z" />
    <glyph glyph-name="atilde" unicode="&#xe3;" horiz-adv-x="504" 
d="M119 298l-61 82q86 61 199 61q81 0 123 -44t42 -126v-157l47 -74l-86 -55l-45 63q-41 -36 -95 -56q-18 -3 -44 -3q-70 0 -109.5 33.5t-39.5 93.5q0 53 37 88t104 44l122 17l3 10v15q0 29 -19.5 45.5t-51.5 16.5q-23 0 -49 -4q-46 -23 -77 -50zM313 123v62l-93 -6
q-28 -2 -49 -13q-11 -17 -11 -39q0 -51 60 -51q59 0 93 47zM135 544l-40 68q36 36 71 54q11 3 22 3q32 0 73 -22.5t62 -27.5q27 9 53 30l40 -68q-32 -34 -73 -54q-18 -3 -22 -3q-31 0 -71.5 22.5t-63.5 27.5q-28 -10 -51 -30z" />
    <glyph glyph-name="adieresis" unicode="&#xe4;" horiz-adv-x="504" 
d="M119 298l-61 82q86 61 199 61q81 0 123 -44t42 -126v-157l47 -74l-86 -55l-45 63q-41 -36 -95 -56q-18 -3 -44 -3q-70 0 -109.5 33.5t-39.5 93.5q0 53 37 88t104 44l122 17l3 10v15q0 29 -19.5 45.5t-51.5 16.5q-23 0 -49 -4q-46 -23 -77 -50zM313 123v62l-93 -6
q-28 -2 -49 -13q-11 -17 -11 -39q0 -51 60 -51q59 0 93 47zM292 645l113 7v-116l-117 4zM101 643l113 10v-117l-117 5z" />
    <glyph glyph-name="aring" unicode="&#xe5;" horiz-adv-x="504" 
d="M119 298l-61 82q86 61 199 61q81 0 123 -44t42 -126v-157l47 -74l-86 -55l-45 63q-41 -36 -95 -56q-18 -3 -44 -3q-70 0 -109.5 33.5t-39.5 93.5q0 53 37 88t104 44l122 17l3 10v15q0 29 -19.5 45.5t-51.5 16.5q-23 0 -49 -4q-46 -23 -77 -50zM313 123v62l-93 -6
q-28 -2 -49 -13q-11 -17 -11 -39q0 -51 60 -51q59 0 93 47zM253 745q56 0 89 -35t33 -84q0 -47 -34 -82.5t-88 -35.5q-61 0 -92 34t-31 84q0 48 34 83.5t89 35.5zM253 668q-21 0 -35 -9q-7 -11 -7 -33q0 -19 11.5 -31t30.5 -12q18 0 32 8q8 14 8 35q0 19 -11 30.5t-29 11.5z
" />
    <glyph glyph-name="ae" unicode="&#xe6;" horiz-adv-x="758" 
d="M119 298l-61 82q86 61 196 61q85 0 127 -54q57 54 140 54q87 0 136.5 -57t49.5 -153v-41l-200 -10l-87 4q2 -53 30.5 -79.5t76.5 -26.5q70 0 132 42l43 -79q-77 -52 -178 -52q-108 0 -166 70q-54 -45 -115 -67q-21 -3 -44 -3q-70 0 -109.5 33.5t-39.5 92.5
q0 55 38.5 91.5t110.5 44.5l114 12l3 11v16q0 29 -19 45.5t-52 16.5q-21 0 -49 -4q-44 -21 -77 -50zM219 76q59 0 94 46v62l-88 -6q-35 -2 -54 -13q-11 -17 -11 -37q0 -52 59 -52zM420 257l177 10q0 39 -22.5 62.5t-60.5 23.5q-44 0 -73 -24q-18 -25 -21 -72z" />
    <glyph glyph-name="ccedilla" unicode="&#xe7;" horiz-adv-x="473" 
d="M427 389l-75 -85q-28 26 -68 45q-18 2 -27 2q-39 0 -69 -24q-26 -41 -26 -110q0 -66 30 -101.5t80 -35.5q59 0 112 44l48 -80q-61 -48 -142 -54v-33q72 -24 72 -106q0 -58 -47 -99.5t-139 -53.5l-7 8l14 87q53 3 87 19q8 14 8 34q0 42 -42 42q-15 0 -33 -6l-12 15l24 96
q-78 14 -121 72t-43 148q0 106 60.5 167t157.5 61q95 0 158 -52z" />
    <glyph glyph-name="egrave" unicode="&#xe8;" horiz-adv-x="500" 
d="M449 190l-202 -10l-85 3q1 -50 29.5 -77.5t77.5 -27.5q70 0 132 42l43 -79q-77 -52 -178 -52q-102 0 -158.5 60t-56.5 166q0 101 59 163.5t153 62.5q87 0 136.5 -57t49.5 -153v-41zM162 256l177 11q0 39 -22.5 62.5t-60.5 23.5q-44 0 -73 -24q-21 -30 -21 -73zM206 733
h14l51 -89l62 -89l-68 -34l-136 144z" />
    <glyph glyph-name="eacute" unicode="&#xe9;" horiz-adv-x="500" 
d="M449 190l-202 -10l-85 3q1 -50 29.5 -77.5t77.5 -27.5q70 0 132 42l43 -79q-77 -52 -178 -52q-102 0 -158.5 60t-56.5 166q0 101 59 163.5t153 62.5q87 0 136.5 -57t49.5 -153v-41zM162 256l177 11q0 39 -22.5 62.5t-60.5 23.5q-44 0 -73 -24q-21 -30 -21 -73zM209 555
l41 54l70 124h13l73 -68l-128 -144z" />
    <glyph glyph-name="ecircumflex" unicode="&#xea;" horiz-adv-x="500" 
d="M449 190l-202 -10l-85 3q1 -50 29.5 -77.5t77.5 -27.5q70 0 132 42l43 -79q-77 -52 -178 -52q-102 0 -158.5 60t-56.5 166q0 101 59 163.5t153 62.5q87 0 136.5 -57t49.5 -153v-41zM162 256l177 11q0 39 -22.5 62.5t-60.5 23.5q-44 0 -73 -24q-21 -30 -21 -73zM248 705
h26l71 -63l73 -51v-14l-73 -64l-88 87l-93 -83l-64 52v14l76 57z" />
    <glyph glyph-name="edieresis" unicode="&#xeb;" horiz-adv-x="500" 
d="M449 190l-202 -10l-85 3q1 -50 29.5 -77.5t77.5 -27.5q70 0 132 42l43 -79q-77 -52 -178 -52q-102 0 -158.5 60t-56.5 166q0 101 59 163.5t153 62.5q87 0 136.5 -57t49.5 -153v-41zM162 256l177 11q0 39 -22.5 62.5t-60.5 23.5q-44 0 -73 -24q-21 -30 -21 -73zM301 645
l113 7v-116l-117 4zM110 643l113 10v-117l-117 5z" />
    <glyph glyph-name="igrave" unicode="&#xec;" horiz-adv-x="240" 
d="M56 426l119 9v-435h-110v332zM57 733h14l51 -89l62 -89l-68 -34l-136 144z" />
    <glyph glyph-name="iacute" unicode="&#xed;" horiz-adv-x="240" 
d="M56 426l119 9v-435h-110v332zM57 555l41 54l70 124h13l73 -68l-128 -144z" />
    <glyph glyph-name="icircumflex" unicode="&#xee;" horiz-adv-x="240" 
d="M56 426l119 9v-435h-110v332zM110 705h25l62 -63l62 -52v-14l-70 -63l-74 80l-79 -76l-56 53v14l68 57z" />
    <glyph glyph-name="idieresis" unicode="&#xef;" horiz-adv-x="240" 
d="M56 426l119 9v-435h-110v332zM153 645l109 7v-116l-113 4zM-17 643l109 10v-117l-113 5z" />
    <glyph glyph-name="eth" unicode="&#xf0;" horiz-adv-x="530" 
d="M121 478l39 81q-28 7 -75 16l-6 12l47 88q42 -11 78 -24l29 60l96 -28l4 -11l-43 -61q181 -107 181 -368q0 -116 -58.5 -185t-154.5 -69q-98 0 -152.5 60.5t-54.5 160.5q0 95 52.5 153t131.5 58q11 0 33 -2q49 -13 82 -35h9q-23 92 -118 143l-36 -68zM259 79q39 0 71 24
q33 47 33 115q0 32 -9 70q-35 43 -95 43q-42 0 -72 -21q-26 -42 -26 -100q0 -66 27.5 -98.5t70.5 -32.5z" />
    <glyph glyph-name="ntilde" unicode="&#xf1;" horiz-adv-x="533" 
d="M38 395l105 46l29 -63q40 36 90 59q17 4 43 4q79 0 121 -45.5t42 -121.5v-274h-112v271q0 36 -17.5 56t-48.5 20q-62 0 -103 -63v-284h-111v309zM154 544l-40 68q36 36 71 54q11 3 22 3q32 0 73 -22.5t62 -27.5q27 9 53 30l40 -68q-32 -34 -73 -54q-18 -3 -22 -3
q-31 0 -71.5 22.5t-63.5 27.5q-28 -10 -51 -30z" />
    <glyph glyph-name="ograve" unicode="&#xf2;" horiz-adv-x="528" 
d="M264 441q96 0 154.5 -61.5t58.5 -164.5q0 -99 -60 -162.5t-153 -63.5q-97 0 -155 61t-58 165q0 99 60 162.5t153 63.5zM264 79q44 0 74 23q28 45 28 113q0 69 -29.5 102t-72.5 33q-44 0 -75 -23q-27 -43 -27 -112t29.5 -102.5t72.5 -33.5zM223 733h14l51 -89l62 -89
l-68 -34l-136 144z" />
    <glyph glyph-name="oacute" unicode="&#xf3;" horiz-adv-x="528" 
d="M264 441q96 0 154.5 -61.5t58.5 -164.5q0 -99 -60 -162.5t-153 -63.5q-97 0 -155 61t-58 165q0 99 60 162.5t153 63.5zM264 79q44 0 74 23q28 45 28 113q0 69 -29.5 102t-72.5 33q-44 0 -75 -23q-27 -43 -27 -112t29.5 -102.5t72.5 -33.5zM210 555l41 54l70 124h13
l73 -68l-128 -144z" />
    <glyph glyph-name="ocircumflex" unicode="&#xf4;" horiz-adv-x="528" 
d="M264 441q96 0 154.5 -61.5t58.5 -164.5q0 -99 -60 -162.5t-153 -63.5q-97 0 -155 61t-58 165q0 99 60 162.5t153 63.5zM264 79q44 0 74 23q28 45 28 113q0 69 -29.5 102t-72.5 33q-44 0 -75 -23q-27 -43 -27 -112t29.5 -102.5t72.5 -33.5zM253 705h26l71 -63l73 -51v-14
l-73 -64l-88 87l-93 -83l-64 52v14l76 57z" />
    <glyph glyph-name="otilde" unicode="&#xf5;" horiz-adv-x="528" 
d="M264 441q96 0 154.5 -61.5t58.5 -164.5q0 -99 -60 -162.5t-153 -63.5q-97 0 -155 61t-58 165q0 99 60 162.5t153 63.5zM264 79q44 0 74 23q28 45 28 113q0 69 -29.5 102t-72.5 33q-44 0 -75 -23q-27 -43 -27 -112t29.5 -102.5t72.5 -33.5zM147 544l-40 68q36 36 71 54
q10 3 22 3q32 0 73 -22.5t62 -27.5q27 9 53 30l40 -68q-32 -34 -73 -54q-18 -3 -22 -3q-31 0 -71.5 22.5t-63.5 27.5q-28 -10 -51 -30z" />
    <glyph glyph-name="odieresis" unicode="&#xf6;" horiz-adv-x="528" 
d="M264 441q96 0 154.5 -61.5t58.5 -164.5q0 -99 -60 -162.5t-153 -63.5q-97 0 -155 61t-58 165q0 99 60 162.5t153 63.5zM264 79q44 0 74 23q28 45 28 113q0 69 -29.5 102t-72.5 33q-44 0 -75 -23q-27 -43 -27 -112t29.5 -102.5t72.5 -33.5zM305 645l113 7v-116l-117 4z
M114 643l113 10v-117l-117 5z" />
    <glyph glyph-name="divide" unicode="&#xf7;" horiz-adv-x="484" 
d="M67 365l362 6l-12 -98h-362zM184 180l118 5v-123h-123zM184 576l118 5v-123h-123z" />
    <glyph glyph-name="oslash" unicode="&#xf8;" horiz-adv-x="528" 
d="M264 441q34 0 64 -9l30 66l102 -29l-47 -84q64 -62 64 -170q0 -99 -60 -162.5t-153 -63.5q-29 0 -67 9l-39 -71l-83 31l44 82q-68 60 -68 175q0 99 60 162.5t153 63.5zM162 215q0 -45 12 -73l110 206q-12 2 -20 2q-44 0 -75 -23q-27 -43 -27 -112zM264 79q44 0 74 23
q28 45 28 113q0 37 -10 67l-113 -201q7 -2 21 -2z" />
    <glyph glyph-name="ugrave" unicode="&#xf9;" horiz-adv-x="524" 
d="M56 426l120 9v-277q0 -36 17.5 -56t48.5 -20q56 0 96 64v186l-9 94l120 9v-314l37 -88l-104 -44l-29 63q-38 -37 -82 -60q-21 -3 -43 -3q-79 0 -121 45t-42 121v177zM180 733h14l51 -89l62 -89l-68 -34l-136 144z" />
    <glyph glyph-name="uacute" unicode="&#xfa;" horiz-adv-x="524" 
d="M56 426l120 9v-277q0 -36 17.5 -56t48.5 -20q56 0 96 64v186l-9 94l120 9v-314l37 -88l-104 -44l-29 63q-38 -37 -82 -60q-21 -3 -43 -3q-79 0 -121 45t-42 121v177zM208 555l41 54l70 124h13l73 -68l-128 -144z" />
    <glyph glyph-name="ucircumflex" unicode="&#xfb;" horiz-adv-x="524" 
d="M56 426l120 9v-277q0 -36 17.5 -56t48.5 -20q56 0 96 64v186l-9 94l120 9v-314l37 -88l-104 -44l-29 63q-38 -37 -82 -60q-21 -3 -43 -3q-79 0 -121 45t-42 121v177zM246 705h26l71 -63l73 -51v-14l-73 -64l-88 87l-93 -83l-64 52v14l76 57z" />
    <glyph glyph-name="udieresis" unicode="&#xfc;" horiz-adv-x="524" 
d="M56 426l120 9v-277q0 -36 17.5 -56t48.5 -20q56 0 96 64v186l-9 94l120 9v-314l37 -88l-104 -44l-29 63q-38 -37 -82 -60q-21 -3 -43 -3q-79 0 -121 45t-42 121v177zM299 645l113 7v-116l-117 4zM108 643l113 10v-117l-117 5z" />
    <glyph glyph-name="yacute" unicode="&#xfd;" horiz-adv-x="484" 
d="M26 426l118 9l107 -348h7l43 134q28 90 37 209h120v-11q-17 -97 -64 -211l-130 -315l-8 -133l-107 5l-7 9q7 102 54 200l-170 441v11zM195 555l41 54l70 124h13l73 -68l-128 -144z" />
    <glyph glyph-name="thorn" unicode="&#xfe;" horiz-adv-x="535" 
d="M66 631l119 8v-250q38 31 86 49q21 3 40 3q80 0 126 -58.5t46 -163.5q0 -106 -57 -168t-144 -62q-52 0 -97 21v-120l10 -111h-120v755zM185 287v-181q42 -29 91 -29q35 0 66 19q30 46 30 122q0 133 -86 133q-63 0 -101 -64z" />
    <glyph glyph-name="ydieresis" unicode="&#xff;" horiz-adv-x="484" 
d="M26 426l118 9l107 -348h7l43 134q28 90 37 209h120v-11q-17 -97 -64 -211l-130 -315l-8 -133l-107 5l-7 9q7 102 54 200l-170 441v11zM288 645l113 7v-116l-117 4zM97 643l113 10v-117l-117 5z" />
    <glyph glyph-name="Amacron" unicode="&#x100;" horiz-adv-x="614" 
d="M222 625l153 11l205 -621v-15h-129l-16 96l-18 58l-223 4l-17 -58l-8 -100h-136v15l181 520zM299 512l-79 -267l169 7l-77 260h-13zM142 833l196 7l133 17l9 -8l-12 -102l-334 -8l-9 7z" />
    <glyph glyph-name="amacron" unicode="&#x101;" horiz-adv-x="504" 
d="M119 298l-61 82q86 61 199 61q81 0 123 -44t42 -126v-157l47 -74l-86 -55l-45 63q-41 -36 -95 -56q-18 -3 -44 -3q-70 0 -109.5 33.5t-39.5 93.5q0 53 37 88t104 44l122 17l3 10v15q0 29 -19.5 45.5t-51.5 16.5q-23 0 -49 -4q-46 -23 -77 -50zM313 123v62l-93 -6
q-28 -2 -49 -13q-11 -17 -11 -39q0 -51 60 -51q59 0 93 47zM121 630l145 7l125 14l8 -8l-11 -94l-275 -8l-9 8z" />
    <glyph glyph-name="Abreve" unicode="&#x102;" horiz-adv-x="614" 
d="M222 625l153 11l205 -621v-15h-129l-16 96l-18 58l-223 4l-17 -58l-8 -100h-136v15l181 520zM299 512l-79 -267l169 7l-77 260h-13zM145 859l100 19q3 -37 20 -58.5t45 -21.5q26 0 40 12q10 19 10 58l100 13q0 -82 -43 -125t-114 -43q-63 0 -106.5 39.5t-51.5 106.5z" />
    <glyph glyph-name="abreve" unicode="&#x103;" horiz-adv-x="504" 
d="M119 298l-61 82q86 61 199 61q81 0 123 -44t42 -126v-157l47 -74l-86 -55l-45 63q-41 -36 -95 -56q-18 -3 -44 -3q-70 0 -109.5 33.5t-39.5 93.5q0 53 37 88t104 44l122 17l3 10v15q0 29 -19.5 45.5t-51.5 16.5q-23 0 -49 -4q-46 -23 -77 -50zM313 123v62l-93 -6
q-28 -2 -49 -13q-11 -17 -11 -39q0 -51 60 -51q59 0 93 47zM101 663l94 17q7 -77 56 -77q23 0 39 11q11 24 11 59l93 12q0 -80 -40.5 -121t-107.5 -41q-59 0 -98.5 37.5t-46.5 102.5z" />
    <glyph glyph-name="Aogonek" unicode="&#x104;" horiz-adv-x="614" 
d="M222 625l153 11l205 -621v-15q-34 0 -68 -13q-14 -22 -14 -50q0 -60 87 -60l6 -10l-34 -87q-74 0 -116.5 38t-42.5 100q0 66 48 110l-11 68l-18 58l-223 4l-17 -58l-8 -100h-136v15l181 520zM299 512l-79 -267l169 7l-77 260h-13z" />
    <glyph glyph-name="aogonek" unicode="&#x105;" horiz-adv-x="504" 
d="M119 298l-61 82q86 61 199 61q81 0 123 -44t42 -126v-157l49 -75q-38 -12 -63 -30q-11 -18 -11 -46t20 -44.5t57 -16.5l5 -8l-32 -80q-61 0 -100 34.5t-39 85.5q0 56 43 96l-13 18q-41 -36 -95 -56q-18 -3 -44 -3q-70 0 -109.5 33.5t-39.5 93.5q0 53 37 88t104 44l122 17
l3 10v15q0 29 -19.5 45.5t-51.5 16.5q-23 0 -49 -4q-46 -23 -77 -50zM313 123v62l-93 -6q-28 -2 -49 -13q-11 -17 -11 -39q0 -51 60 -51q59 0 93 47z" />
    <glyph glyph-name="Cacute" unicode="&#x106;" horiz-adv-x="587" 
d="M519 574l-73 -100q-39 39 -96 69q-12 3 -33 3q-53 0 -94 -33q-47 -77 -47 -198q0 -115 41.5 -173t109.5 -58q85 0 146 70l63 -77q-81 -90 -215 -90q-128 0 -194 87.5t-66 240.5q0 151 72.5 239.5t192.5 88.5q119 0 193 -69zM243 765l56 61l69 104h13l79 -77l-146 -136z
" />
    <glyph glyph-name="cacute" unicode="&#x107;" horiz-adv-x="473" 
d="M427 389l-75 -85q-28 26 -68 45q-16 2 -27 2q-39 0 -69 -24q-26 -41 -26 -110q0 -66 30 -101.5t80 -35.5q59 0 112 44l48 -80q-71 -55 -169 -55q-99 0 -155.5 60.5t-56.5 163.5q0 106 60.5 167t157.5 61q95 0 158 -52zM203 555l41 54l70 124h13l73 -68l-128 -144z" />
    <glyph glyph-name="Ccircumflex" unicode="&#x108;" horiz-adv-x="587" 
d="M519 574l-73 -100q-39 39 -96 69q-12 3 -33 3q-53 0 -94 -33q-47 -77 -47 -198q0 -115 41.5 -173t109.5 -58q85 0 146 70l63 -77q-81 -90 -215 -90q-128 0 -194 87.5t-66 240.5q0 151 72.5 239.5t192.5 88.5q119 0 193 -69zM316 897h24l76 -60l84 -52v-15l-77 -64l-99 83
l-99 -80l-69 53v14l82 56z" />
    <glyph glyph-name="ccircumflex" unicode="&#x109;" horiz-adv-x="473" 
d="M427 389l-75 -85q-28 26 -68 45q-16 2 -27 2q-39 0 -69 -24q-26 -41 -26 -110q0 -66 30 -101.5t80 -35.5q59 0 112 44l48 -80q-71 -55 -169 -55q-99 0 -155.5 60.5t-56.5 163.5q0 106 60.5 167t157.5 61q95 0 158 -52zM259 705h26l71 -63l73 -51v-14l-73 -64l-88 87
l-93 -83l-64 52v14l76 57z" />
    <glyph glyph-name="Cdotaccent" unicode="&#x10a;" horiz-adv-x="587" 
d="M519 574l-73 -100q-39 39 -96 69q-12 3 -33 3q-53 0 -94 -33q-47 -77 -47 -198q0 -115 41.5 -173t109.5 -58q85 0 146 70l63 -77q-81 -90 -215 -90q-128 0 -194 87.5t-66 240.5q0 151 72.5 239.5t192.5 88.5q119 0 193 -69zM262 849l125 11v-131l-129 4z" />
    <glyph glyph-name="cdotaccent" unicode="&#x10b;" horiz-adv-x="473" 
d="M427 389l-75 -85q-28 26 -68 45q-16 2 -27 2q-39 0 -69 -24q-26 -41 -26 -110q0 -66 30 -101.5t80 -35.5q59 0 112 44l48 -80q-71 -55 -169 -55q-99 0 -155.5 60.5t-56.5 163.5q0 106 60.5 167t157.5 61q95 0 158 -52zM213 645l119 10v-119l-123 5z" />
    <glyph glyph-name="Ccaron" unicode="&#x10c;" horiz-adv-x="587" 
d="M519 574l-73 -100q-39 39 -96 69q-12 3 -33 3q-53 0 -94 -33q-47 -77 -47 -198q0 -115 41.5 -173t109.5 -58q85 0 146 70l63 -77q-81 -90 -215 -90q-128 0 -194 87.5t-66 240.5q0 151 72.5 239.5t192.5 88.5q119 0 193 -69zM227 890l100 -81l98 79l69 -52v-15l-81 -55
l-78 -66h-23l-76 61l-86 52v15z" />
    <glyph glyph-name="ccaron" unicode="&#x10d;" horiz-adv-x="473" 
d="M427 389l-75 -85q-28 26 -68 45q-16 2 -27 2q-39 0 -69 -24q-26 -41 -26 -110q0 -66 30 -101.5t80 -35.5q59 0 112 44l48 -80q-71 -55 -169 -55q-99 0 -155.5 60.5t-56.5 163.5q0 106 60.5 167t157.5 61q95 0 158 -52zM177 706l92 -86l89 83l65 -52v-14l-76 -58l-69 -64
h-25l-67 58l-81 55v15z" />
    <glyph glyph-name="Dcaron" unicode="&#x10e;" horiz-adv-x="619" 
d="M78 630h209q129 0 201.5 -81t72.5 -234q0 -146 -73.5 -230.5t-200.5 -84.5h-199v521zM202 94h83q73 0 113 33q47 67 47 188q0 113 -43.5 167t-117.5 54h-82v-442zM202 890l100 -81l98 79l69 -52v-15l-81 -55l-78 -66h-23l-76 61l-86 52v15z" />
    <glyph glyph-name="dcaron" unicode="&#x10f;" horiz-adv-x="648" 
d="M341 651l118 9v-543l38 -83l-98 -46l-29 54q-47 -36 -88 -50q-21 -3 -44 -3q-89 0 -138 58.5t-49 164.5q0 107 54.5 168t144.5 61q61 0 99 -24v136zM349 134v188q-37 30 -89 30q-42 0 -73 -26q-25 -41 -25 -115q0 -132 90 -132q60 0 97 55zM545 639l108 6l6 -20l-55 -173
l-75 18l16 99v70z" />
    <glyph glyph-name="Dcroat" unicode="&#x110;" horiz-adv-x="632" 
d="M92 630h209q129 0 201.5 -81t72.5 -234q0 -146 -73.5 -230.5t-200.5 -84.5h-199v263l-60 -1l-7 8l17 79l50 2v170zM216 94h83q73 0 113 33q47 67 47 188q0 113 -43.5 167t-117.5 54h-82v-179l130 13l8 -8l-10 -94l-128 -3v-171z" />
    <glyph glyph-name="dcroat" unicode="&#x111;" horiz-adv-x="529" 
d="M341 653l118 9v-78l64 8l9 -8l-11 -85l-62 -3v-379l38 -83l-98 -46l-29 54q-47 -36 -88 -50q-21 -3 -44 -3q-89 0 -138 58.5t-49 164.5q0 107 54.5 168t144.5 61q61 0 99 -24v75l-112 -7l-9 8l17 75l103 5zM349 134v188q-37 30 -89 30q-42 0 -73 -26q-25 -41 -25 -115
q0 -132 90 -132q60 0 97 55z" />
    <glyph glyph-name="Emacron" unicode="&#x112;" horiz-adv-x="555" 
d="M78 630h410l-12 -101l-191 9h-83v-170h68l165 9l-10 -101l-223 5v-189h85l209 11l-5 -103h-403v518zM129 833l196 7l133 17l9 -8l-12 -102l-334 -8l-9 7z" />
    <glyph glyph-name="emacron" unicode="&#x113;" horiz-adv-x="500" 
d="M449 190l-202 -10l-85 3q1 -50 29.5 -77.5t77.5 -27.5q70 0 132 42l43 -79q-77 -52 -178 -52q-102 0 -158.5 60t-56.5 166q0 101 59 163.5t153 62.5q87 0 136.5 -57t49.5 -153v-41zM162 256l177 11q0 39 -22.5 62.5t-60.5 23.5q-44 0 -73 -24q-21 -30 -21 -73zM132 630
l145 7l125 14l8 -8l-11 -94l-275 -8l-9 8z" />
    <glyph glyph-name="Ebreve" unicode="&#x114;" horiz-adv-x="555" 
d="M78 630h410l-12 -101l-191 9h-83v-170h68l165 9l-10 -101l-223 5v-189h85l209 11l-5 -103h-403v518zM127 859l100 19q3 -37 20 -58.5t45 -21.5q26 0 40 12q10 19 10 58l100 13q0 -82 -43 -125t-114 -43q-63 0 -106.5 39.5t-51.5 106.5z" />
    <glyph glyph-name="ebreve" unicode="&#x115;" horiz-adv-x="500" 
d="M449 190l-202 -10l-85 3q1 -50 29.5 -77.5t77.5 -27.5q70 0 132 42l43 -79q-77 -52 -178 -52q-102 0 -158.5 60t-56.5 166q0 101 59 163.5t153 62.5q87 0 136.5 -57t49.5 -153v-41zM162 256l177 11q0 39 -22.5 62.5t-60.5 23.5q-44 0 -73 -24q-21 -30 -21 -73zM113 663
l94 17q7 -77 56 -77q23 0 39 11q11 24 11 59l93 12q0 -80 -40.5 -121t-107.5 -41q-59 0 -98.5 37.5t-46.5 102.5z" />
    <glyph glyph-name="Edotaccent" unicode="&#x116;" horiz-adv-x="555" 
d="M78 630h410l-12 -101l-191 9h-83v-170h68l165 9l-10 -101l-223 5v-189h85l209 11l-5 -103h-403v518zM229 849l125 11v-131l-129 4z" />
    <glyph glyph-name="edotaccent" unicode="&#x117;" horiz-adv-x="500" 
d="M449 190l-202 -10l-85 3q1 -50 29.5 -77.5t77.5 -27.5q70 0 132 42l43 -79q-77 -52 -178 -52q-102 0 -158.5 60t-56.5 166q0 101 59 163.5t153 62.5q87 0 136.5 -57t49.5 -153v-41zM162 256l177 11q0 39 -22.5 62.5t-60.5 23.5q-44 0 -73 -24q-21 -30 -21 -73zM203 645
l119 10v-119l-123 5z" />
    <glyph glyph-name="Eogonek" unicode="&#x118;" horiz-adv-x="559" 
d="M78 630h410l-12 -101l-191 9h-83v-170h68l165 9l-10 -100l-223 5v-190h85l209 11l-5 -103h-9q-33 -2 -59 -14q-14 -22 -14 -50q0 -60 87 -60l6 -9l-34 -87q-74 0 -117 38t-43 99q0 48 25 83h-245v518z" />
    <glyph glyph-name="eogonek" unicode="&#x119;" horiz-adv-x="500" 
d="M449 190l-202 -10l-85 3q1 -50 29.5 -77.5t77.5 -27.5q70 0 132 42l43 -79q-31 -21 -65 -34q-14 -21 -14 -50q0 -58 81 -58l5 -9l-32 -79q-66 0 -104 33.5t-38 83.5q0 37 14 62q-4 0 -12.5 -0.5t-12.5 -0.5q-102 0 -158.5 60t-56.5 166q0 101 59 163.5t153 62.5
q87 0 136.5 -57t49.5 -153v-41zM162 256l177 11q0 39 -22.5 62.5t-60.5 23.5q-44 0 -73 -24q-21 -30 -21 -73z" />
    <glyph glyph-name="Ecaron" unicode="&#x11a;" horiz-adv-x="555" 
d="M78 630h410l-12 -101l-191 9h-83v-170h68l165 9l-10 -101l-223 5v-189h85l209 11l-5 -103h-403v518zM193 890l100 -81l98 79l69 -52v-15l-81 -55l-78 -66h-23l-76 61l-86 52v15z" />
    <glyph glyph-name="ecaron" unicode="&#x11b;" horiz-adv-x="500" 
d="M449 190l-202 -10l-85 3q1 -50 29.5 -77.5t77.5 -27.5q70 0 132 42l43 -79q-77 -52 -178 -52q-102 0 -158.5 60t-56.5 166q0 101 59 163.5t153 62.5q87 0 136.5 -57t49.5 -153v-41zM162 256l177 11q0 39 -22.5 62.5t-60.5 23.5q-44 0 -73 -24q-21 -30 -21 -73zM171 706
l92 -86l89 83l65 -52v-14l-76 -58l-69 -64h-25l-67 58l-81 55v15z" />
    <glyph glyph-name="Gcircumflex" unicode="&#x11c;" horiz-adv-x="597" 
d="M525 577l-72 -101q-41 40 -96 68q-18 4 -35 4q-57 0 -99 -33q-47 -81 -47 -200q0 -116 40 -174t109 -58q51 0 95 25v154l-119 -6l11 95h228l3 -16l-15 -94v-241l-21 -5l-63 26q-56 -34 -129 -34q-126 0 -190 87t-64 241q0 150 74.5 239t195.5 89q117 0 194 -66zM318 897
h24l76 -60l84 -52v-15l-77 -64l-99 83l-99 -80l-69 53v14l82 56z" />
    <glyph glyph-name="gcircumflex" unicode="&#x11d;" horiz-adv-x="502" 
d="M241 441q33 0 60 -9l169 14l7 -10l-14 -80l-69 5q25 -39 25 -78q0 -67 -49.5 -112.5t-128.5 -45.5q-31 0 -56 6q-9 -14 -9 -34q0 -41 41 -41h77q80 0 121.5 -35t41.5 -98q0 -76 -65.5 -127.5t-171.5 -51.5q-86 0 -135.5 41.5t-49.5 109.5q0 23 6 45q22 41 54 73
q-19 27 -19 63q0 16 3 33q14 28 39 53q-54 43 -54 121q0 67 49 112.5t128 45.5zM192 -31l-30 7q-25 -24 -25 -68q0 -35 25 -54.5t68 -19.5q59 0 101 20q23 22 23 57q0 58 -70 58h-92zM183 341q-18 -23 -18 -58q0 -33 20 -52.5t56 -19.5q34 0 59 14q18 21 18 58
q0 33 -20 52.5t-57 19.5q-33 0 -58 -14zM238 705h26l71 -63l73 -51v-14l-73 -64l-88 87l-93 -83l-64 52v14l76 57z" />
    <glyph glyph-name="Gbreve" unicode="&#x11e;" horiz-adv-x="597" 
d="M525 577l-72 -101q-41 40 -96 68q-18 4 -35 4q-57 0 -99 -33q-47 -81 -47 -200q0 -116 40 -174t109 -58q51 0 95 25v154l-119 -6l11 95h228l3 -16l-15 -94v-241l-21 -5l-63 26q-56 -34 -129 -34q-126 0 -190 87t-64 241q0 150 74.5 239t195.5 89q117 0 194 -66zM167 859
l100 19q3 -37 20 -58.5t45 -21.5q26 0 40 12q10 19 10 58l100 13q0 -82 -43 -125t-114 -43q-63 0 -106.5 39.5t-51.5 106.5z" />
    <glyph glyph-name="gbreve" unicode="&#x11f;" horiz-adv-x="502" 
d="M241 441q33 0 60 -9l169 14l7 -10l-14 -80l-69 5q25 -39 25 -78q0 -67 -49.5 -112.5t-128.5 -45.5q-31 0 -56 6q-9 -14 -9 -34q0 -41 41 -41h77q80 0 121.5 -35t41.5 -98q0 -76 -65.5 -127.5t-171.5 -51.5q-86 0 -135.5 41.5t-49.5 109.5q0 23 6 45q22 41 54 73
q-19 27 -19 63q0 16 3 33q14 28 39 53q-54 43 -54 121q0 67 49 112.5t128 45.5zM192 -31l-30 7q-25 -24 -25 -68q0 -35 25 -54.5t68 -19.5q59 0 101 20q23 22 23 57q0 58 -70 58h-92zM183 341q-18 -23 -18 -58q0 -33 20 -52.5t56 -19.5q34 0 59 14q18 21 18 58
q0 33 -20 52.5t-57 19.5q-33 0 -58 -14zM98 663l94 17q7 -77 56 -77q23 0 39 11q11 24 11 59l93 12q0 -80 -40.5 -121t-107.5 -41q-59 0 -98.5 37.5t-46.5 102.5z" />
    <glyph glyph-name="Gdotaccent" unicode="&#x120;" horiz-adv-x="597" 
d="M525 577l-72 -101q-41 40 -96 68q-18 4 -35 4q-57 0 -99 -33q-47 -81 -47 -200q0 -116 40 -174t109 -58q51 0 95 25v154l-119 -6l11 95h228l3 -16l-15 -94v-241l-21 -5l-63 26q-56 -34 -129 -34q-126 0 -190 87t-64 241q0 150 74.5 239t195.5 89q117 0 194 -66zM266 849
l125 11v-131l-129 4z" />
    <glyph glyph-name="gdotaccent" unicode="&#x121;" horiz-adv-x="502" 
d="M241 441q33 0 60 -9l169 14l7 -10l-14 -80l-69 5q25 -39 25 -78q0 -67 -49.5 -112.5t-128.5 -45.5q-31 0 -56 6q-9 -14 -9 -34q0 -41 41 -41h77q80 0 121.5 -35t41.5 -98q0 -76 -65.5 -127.5t-171.5 -51.5q-86 0 -135.5 41.5t-49.5 109.5q0 23 6 45q22 41 54 73
q-19 27 -19 63q0 16 3 33q14 28 39 53q-54 43 -54 121q0 67 49 112.5t128 45.5zM192 -31l-30 7q-25 -24 -25 -68q0 -35 25 -54.5t68 -19.5q59 0 101 20q23 22 23 57q0 58 -70 58h-92zM183 341q-18 -23 -18 -58q0 -33 20 -52.5t56 -19.5q34 0 59 14q18 21 18 58
q0 33 -20 52.5t-57 19.5q-33 0 -58 -14zM192 645l119 10v-119l-123 5z" />
    <glyph glyph-name="Gcommaaccent" unicode="&#x122;" horiz-adv-x="597" 
d="M525 577l-72 -101q-41 40 -96 68q-18 4 -35 4q-57 0 -99 -33q-47 -81 -47 -200q0 -116 40 -174t109 -58q51 0 95 25v154l-119 -6l11 95h228l3 -16l-15 -94v-241l-21 -5l-63 26q-56 -34 -129 -34q-126 0 -190 87t-64 241q0 150 74.5 239t195.5 89q117 0 194 -66zM261 -75
l114 5l6 -19l-56 -195l-80 18l16 108v83z" />
    <glyph glyph-name="gcommaaccent" unicode="&#x123;" horiz-adv-x="502" 
d="M241 441q33 0 60 -9l169 14l7 -10l-14 -80l-69 5q25 -39 25 -78q0 -67 -49.5 -112.5t-128.5 -45.5q-31 0 -56 6q-9 -14 -9 -34q0 -41 41 -41h77q80 0 121.5 -35t41.5 -98q0 -76 -65.5 -127.5t-171.5 -51.5q-86 0 -135.5 41.5t-49.5 109.5q0 23 6 45q22 41 54 73
q-19 27 -19 63q0 16 3 33q14 28 39 53q-54 43 -54 121q0 67 49 112.5t128 45.5zM192 -31l-30 7q-25 -24 -25 -68q0 -35 25 -54.5t68 -19.5q59 0 101 20q23 22 23 57q0 58 -70 58h-92zM183 341q-18 -23 -18 -58q0 -33 20 -52.5t56 -19.5q34 0 59 14q18 21 18 58
q0 33 -20 52.5t-57 19.5q-33 0 -58 -14zM307 517l-108 -6l-6 20l55 173l75 -18l-16 -99v-70z" />
    <glyph glyph-name="Hcircumflex" unicode="&#x124;" horiz-adv-x="646" 
d="M78 625l124 9v-269l242 8v145l-11 107l125 9v-634h-114v269l-242 5v-274h-114v518zM312 897h24l76 -60l84 -52v-15l-77 -64l-99 83l-99 -80l-69 53v14l82 56z" />
    <glyph glyph-name="hcircumflex" unicode="&#x125;" horiz-adv-x="525" 
d="M62 651l119 8v-273q40 33 75 50q22 5 42 5q83 0 122.5 -44.5t39.5 -122.5v-274h-111v271q0 76 -66 76q-62 0 -102 -63v-284h-110v554zM118 897h26l71 -63l73 -51v-14l-73 -64l-88 87l-93 -83l-64 52v14l76 57z" />
    <glyph glyph-name="Hbar" unicode="&#x126;" horiz-adv-x="646" 
d="M78 625l124 9v-117l241 11l-10 97l125 9v-97l65 7l8 -8l-6 -95l-67 -2v-439h-114v252l-242 4v-256h-114v426l-65 -2l-8 8l17 78l56 2v6zM202 346l242 7v83l-242 -7v-83z" />
    <glyph glyph-name="hbar" unicode="&#x127;" horiz-adv-x="525" 
d="M62 653l119 9v-89l126 19l8 -7l-11 -87l-123 -9v-103q40 33 75 50q22 5 42 5q83 0 122.5 -44.5t39.5 -122.5v-274h-111v271q0 76 -66 76q-62 0 -102 -63v-284h-110v481l-57 -4l-8 7l15 76l48 3z" />
    <glyph glyph-name="Itilde" unicode="&#x128;" horiz-adv-x="291" 
d="M78 625l124 9v-634h-114v515zM32 751l-42 66q45 39 81 57q14 2 22 2q33 0 63.5 -24t48.5 -28q25 7 55 26l41 -67q-34 -34 -83 -57q-12 -2 -22 -2q-34 0 -65 24t-48 28q-25 -7 -51 -25z" />
    <glyph glyph-name="itilde" unicode="&#x129;" horiz-adv-x="240" 
d="M56 426l119 9v-435h-110v332zM15 547l-38 63q36 36 76 52q9 3 21 3q31 0 61 -23t43 -27q24 9 50 29l37 -65q-36 -34 -77 -52q-21 -3 -22 -3q-31 0 -60 23t-43 27q-24 -6 -48 -27z" />
    <glyph glyph-name="imacron" unicode="&#x12b;" horiz-adv-x="240" 
d="M56 426l119 9v-435h-110v332zM18 631l105 6l109 16l9 -8l-11 -96l-220 -5l-9 7z" />
    <glyph glyph-name="Ibreve" unicode="&#x12c;" horiz-adv-x="291" 
d="M78 625l124 9v-634h-114v515zM-12 859l100 19q3 -37 20 -58.5t45 -21.5q27 0 40 12q10 19 10 58l100 13q0 -82 -43 -125t-114 -43q-63 0 -106.5 39.5t-51.5 106.5z" />
    <glyph glyph-name="ibreve" unicode="&#x12d;" horiz-adv-x="240" 
d="M56 426l119 9v-435h-110v332zM-26 663l94 17q7 -77 56 -77q23 0 39 11q11 24 11 59l93 12q0 -80 -40.5 -121t-107.5 -41q-59 0 -98.5 37.5t-46.5 102.5z" />
    <glyph glyph-name="Iogonek" unicode="&#x12e;" horiz-adv-x="291" 
d="M77 625l125 9v-634q-30 0 -58 -14q-14 -22 -14 -49q0 -61 90 -61l6 -9l-34 -87q-76 0 -119 38t-43 99q0 74 58 120v481z" />
    <glyph glyph-name="iogonek" unicode="&#x12f;" horiz-adv-x="240" 
d="M56 426l119 9v-435q-32 -3 -53 -17q-11 -17 -11 -43q0 -57 81 -57l5 -9l-33 -81q-66 0 -103.5 36.5t-37.5 90.5q0 64 42 100v312zM62 645l118 10v-119l-123 5z" />
    <glyph glyph-name="Idotaccent" unicode="&#x130;" horiz-adv-x="291" 
d="M78 625l124 9v-634h-114v515zM85 849l125 11v-131l-129 4z" />
    <glyph glyph-name="dotlessi" unicode="&#x131;" horiz-adv-x="240" 
d="M56 426l119 9v-435h-110v332z" />
    <glyph glyph-name="Jcircumflex" unicode="&#x134;" horiz-adv-x="291" 
d="M77 625l125 9v-570q0 -216 -208 -273l-36 102q60 13 101 33q33 38 33 120v23l-4 87v362zM133 897h24l76 -60l84 -52v-15l-77 -64l-99 83l-99 -80l-69 53v14l82 56z" />
    <glyph glyph-name="jcircumflex" unicode="&#x135;" horiz-adv-x="243" 
d="M59 426l119 9v-413q0 -92 -44.5 -151t-137.5 -89l-44 99q45 8 86 27q33 36 33 84v22l-3 53v265zM112 705h25l62 -63l62 -52v-14l-70 -63l-74 80l-79 -76l-56 53v14l68 57z" />
    <glyph glyph-name="Kcommaaccent" unicode="&#x136;" horiz-adv-x="625" 
d="M78 625l124 9v-294l77 43q74 77 106 168l27 80l126 -5v-15q-41 -124 -117 -210l-56 -62q82 -174 215 -324v-15l-136 -6q-98 132 -161 283l-81 -50v-227h-114v518zM261 -75l114 5l6 -19l-56 -195l-80 18l16 108v83z" />
    <glyph glyph-name="kcommaaccent" unicode="&#x137;" horiz-adv-x="509" 
d="M62 651l119 8v-398q30 12 56 32q61 74 86 140l127 -5l2 -10q-64 -103 -143 -178q65 -113 173 -229l-3 -11l-126 -5q-72 86 -124 193q-36 -17 -48 -21v-167h-110v554zM210 -76l108 6l6 -20l-55 -173l-75 18l16 99v70z" />
    <glyph glyph-name="kgreenlandic" unicode="&#x138;" horiz-adv-x="505" 
d="M62 426l119 8v-182q22 10 56 33q48 61 82 148l126 -5l3 -10q-65 -112 -138 -186q65 -111 167 -221l-2 -11l-127 -5q-66 79 -118 186q-23 -14 -49 -23v-158h-110v328z" />
    <glyph glyph-name="Lacute" unicode="&#x139;" horiz-adv-x="530" 
d="M78 625l124 9v-543h64l211 14l11 -11l-10 -94h-390v521zM123 765l56 61l69 104h13l79 -77l-146 -136z" />
    <glyph glyph-name="lacute" unicode="&#x13a;" horiz-adv-x="280" 
d="M185 659v-425l-3 -59v-37q0 -48 41 -48q14 0 26 4l11 -90q-30 -11 -69 -11q-116 0 -116 147v414l-9 97zM82 755l41 54l70 124h13l73 -68l-128 -144z" />
    <glyph glyph-name="Lcommaaccent" unicode="&#x13b;" horiz-adv-x="530" 
d="M78 625l124 9v-543h64l211 14l11 -11l-10 -94h-390v521zM212 -75l114 5l6 -19l-56 -195l-80 18l16 108v83z" />
    <glyph glyph-name="lcommaaccent" unicode="&#x13c;" horiz-adv-x="280" 
d="M185 659v-425l-3 -59v-37q0 -48 41 -48q14 0 26 4l11 -90q-30 -11 -69 -11q-116 0 -116 147v414l-9 97zM109 -76l108 6l6 -20l-55 -173l-75 18l16 99v70z" />
    <glyph glyph-name="Lcaron" unicode="&#x13d;" horiz-adv-x="530" 
d="M78 625l124 9v-543h64l211 14l11 -11l-10 -94h-390v521zM360 630l114 5l6 -19l-56 -195l-80 18l16 108v83z" />
    <glyph glyph-name="lcaron" unicode="&#x13e;" horiz-adv-x="383" 
d="M185 659v-425l-3 -59v-37q0 -48 41 -48q14 0 26 4l11 -90q-30 -11 -69 -11q-116 0 -116 147v414l-9 97zM279 639l108 6l6 -20l-55 -173l-75 18l16 99v70z" />
    <glyph glyph-name="Ldot" unicode="&#x13f;" horiz-adv-x="530" 
d="M78 625l124 9v-543h64l211 14l11 -11l-10 -94h-390v521zM345 390l125 11v-131l-129 4z" />
    <glyph glyph-name="ldot" unicode="&#x140;" horiz-adv-x="389" 
d="M185 659v-425l-3 -59v-37q0 -48 41 -48q14 0 26 4l11 -90q-30 -11 -69 -11q-116 0 -116 147v414l-9 97zM261 387l119 10v-119l-123 5z" />
    <glyph glyph-name="Lslash" unicode="&#x141;" horiz-adv-x="533" 
d="M80 625l125 9v-272l127 31l8 -8l6 -96l-141 -22v-176h64l211 14l10 -11l-10 -94h-389v243l-59 -13l-9 7l14 84l54 13v187z" />
    <glyph glyph-name="lslash" unicode="&#x142;" horiz-adv-x="285" 
d="M22 336l55 14v204l-8 97l119 8v-281l82 21l9 -8l-11 -93l-80 -11v-53l-4 -59v-37q0 -48 41 -48q15 0 27 4l11 -90q-31 -11 -69 -11q-117 0 -117 147v124l-61 -13l-9 8z" />
    <glyph glyph-name="Nacute" unicode="&#x143;" horiz-adv-x="643" 
d="M78 625l115 9l254 -456h9l-8 204v125l-13 118l120 9v-631l-105 -9l-254 452h-9l8 -247v-199h-107v515zM256 765l56 61l69 104h13l79 -77l-146 -136z" />
    <glyph glyph-name="nacute" unicode="&#x144;" horiz-adv-x="533" 
d="M38 395l105 46l29 -63q40 36 90 59q17 4 43 4q79 0 121 -45.5t42 -121.5v-274h-112v271q0 36 -17.5 56t-48.5 20q-62 0 -103 -63v-284h-111v309zM223 555l41 54l70 124h13l73 -68l-128 -144z" />
    <glyph glyph-name="Ncommaaccent" unicode="&#x145;" horiz-adv-x="643" 
d="M78 625l115 9l254 -456h9l-8 204v125l-13 118l120 9v-631l-105 -9l-254 452h-9l8 -247v-199h-107v515zM269 -75l114 5l6 -19l-56 -195l-80 18l16 108v83z" />
    <glyph glyph-name="ncommaaccent" unicode="&#x146;" horiz-adv-x="533" 
d="M38 395l105 46l29 -63q40 36 90 59q17 4 43 4q79 0 121 -45.5t42 -121.5v-274h-112v271q0 36 -17.5 56t-48.5 20q-62 0 -103 -63v-284h-111v309zM217 -76l108 6l6 -20l-55 -173l-75 18l16 99v70z" />
    <glyph glyph-name="Ncaron" unicode="&#x147;" horiz-adv-x="643" 
d="M78 625l115 9l254 -456h9l-8 204v125l-13 118l120 9v-631l-105 -9l-254 452h-9l8 -247v-199h-107v515zM226 890l100 -81l98 79l69 -52v-15l-81 -55l-78 -66h-23l-76 61l-86 52v15z" />
    <glyph glyph-name="ncaron" unicode="&#x148;" horiz-adv-x="533" 
d="M38 395l105 46l29 -63q40 36 90 59q17 4 43 4q79 0 121 -45.5t42 -121.5v-274h-112v271q0 36 -17.5 56t-48.5 20q-62 0 -103 -63v-284h-111v309zM189 706l92 -86l89 83l65 -52v-14l-76 -58l-69 -64h-25l-67 58l-81 55v15z" />
    <glyph glyph-name="napostrophe" unicode="&#x149;" horiz-adv-x="606" 
d="M111 395l105 46l29 -63q40 36 90 59q17 4 43 4q79 0 121 -45.5t42 -121.5v-274h-112v271q0 36 -17.5 56t-48.5 20q-62 0 -103 -63v-284h-111v309zM10 639l108 6l6 -20l-55 -173l-75 18l16 99v70z" />
    <glyph glyph-name="Omacron" unicode="&#x14c;" horiz-adv-x="646" 
d="M323 643q122 0 192 -85.5t70 -242.5q0 -154 -71 -241t-191 -87q-122 0 -192 85.5t-70 242.5q0 149 72 238.5t190 89.5zM225 513q-49 -81 -49 -198q0 -119 40 -175.5t109 -56.5q57 0 95 32q50 80 50 200q0 119 -40 175.5t-109 56.5q-58 0 -96 -34zM166 833l196 7l133 17
l9 -8l-12 -102l-334 -8l-9 7z" />
    <glyph glyph-name="omacron" unicode="&#x14d;" horiz-adv-x="528" 
d="M264 441q96 0 154.5 -61.5t58.5 -164.5q0 -99 -60 -162.5t-153 -63.5q-97 0 -155 61t-58 165q0 99 60 162.5t153 63.5zM264 79q44 0 74 23q28 45 28 113q0 69 -29.5 102t-72.5 33q-44 0 -75 -23q-27 -43 -27 -112t29.5 -102.5t72.5 -33.5zM133 630l145 7l125 14l8 -8
l-11 -94l-275 -8l-9 8z" />
    <glyph glyph-name="Obreve" unicode="&#x14e;" horiz-adv-x="646" 
d="M323 643q122 0 192 -85.5t70 -242.5q0 -154 -71 -241t-191 -87q-122 0 -192 85.5t-70 242.5q0 149 72 238.5t190 89.5zM225 513q-49 -81 -49 -198q0 -119 40 -175.5t109 -56.5q57 0 95 32q50 80 50 200q0 119 -40 175.5t-109 56.5q-58 0 -96 -34zM168 859l100 19
q3 -37 20 -58.5t45 -21.5q27 0 40 12q10 19 10 58l100 13q0 -82 -43 -125t-114 -43q-63 0 -106.5 39.5t-51.5 106.5z" />
    <glyph glyph-name="obreve" unicode="&#x14f;" horiz-adv-x="528" 
d="M264 441q96 0 154.5 -61.5t58.5 -164.5q0 -99 -60 -162.5t-153 -63.5q-97 0 -155 61t-58 165q0 99 60 162.5t153 63.5zM264 79q44 0 74 23q28 45 28 113q0 69 -29.5 102t-72.5 33q-44 0 -75 -23q-27 -43 -27 -112t29.5 -102.5t72.5 -33.5zM117 663l94 17q7 -77 56 -77
q23 0 39 11q11 24 11 59l93 12q0 -80 -40.5 -121t-107.5 -41q-59 0 -98.5 37.5t-46.5 102.5z" />
    <glyph glyph-name="Ohungarumlaut" unicode="&#x150;" horiz-adv-x="646" 
d="M323 643q122 0 192 -85.5t70 -242.5q0 -154 -71 -241t-191 -87q-122 0 -192 85.5t-70 242.5q0 149 72 238.5t190 89.5zM225 513q-49 -81 -49 -198q0 -119 40 -175.5t109 -56.5q57 0 95 32q50 80 50 200q0 119 -40 175.5t-109 56.5q-58 0 -96 -34zM206 751l40 78l34 98h14
l87 -60l-106 -152zM361 752l123 152h14l75 -78l-86 -64l-64 -57z" />
    <glyph glyph-name="ohungarumlaut" unicode="&#x151;" horiz-adv-x="528" 
d="M264 441q96 0 154.5 -61.5t58.5 -164.5q0 -99 -60 -162.5t-153 -63.5q-97 0 -155 61t-58 165q0 99 60 162.5t153 63.5zM264 79q44 0 74 23q28 45 28 113q0 69 -29.5 102t-72.5 33q-44 0 -75 -23q-27 -43 -27 -112t29.5 -102.5t72.5 -33.5zM152 549l35 81l26 95h13l84 -58
l-90 -143zM293 553l112 156h13l71 -72l-82 -66l-54 -52z" />
    <glyph glyph-name="OE" unicode="&#x152;" horiz-adv-x="884" 
d="M304 643q83 0 137 -62v49h376l-12 -101l-178 9h-83v-170h69l150 9l-9 -100l-210 5v-190h86l195 11l-6 -103h-378v51q-52 -64 -137 -64q-117 0 -180 83.5t-63 244.5q0 149 66 238.5t177 89.5zM218 515q-42 -74 -42 -200q0 -232 130 -232q54 0 88 32q42 71 42 200
q0 232 -130 232q-53 0 -88 -32z" />
    <glyph glyph-name="oe" unicode="&#x153;" horiz-adv-x="807" 
d="M756 190l-201 -10l-86 3q1 -50 30 -77.5t78 -27.5q69 0 131 42l43 -79q-76 -52 -178 -52q-104 0 -158 66q-58 -66 -151 -66q-97 0 -155 61t-58 165q0 99 60 162.5t153 63.5q98 0 154 -66q57 66 153 66q87 0 136 -57t49 -153v-41zM264 79q44 0 74 23q28 45 28 113
q0 69 -29.5 102t-72.5 33q-44 0 -75 -23q-27 -43 -27 -112t29.5 -102.5t72.5 -33.5zM469 256l178 11q-1 39 -23.5 62.5t-59.5 23.5q-46 0 -74 -24q-21 -30 -21 -73z" />
    <glyph glyph-name="Racute" unicode="&#x154;" horiz-adv-x="584" 
d="M78 630h218q104 0 166.5 -53.5t62.5 -152.5q0 -71 -34 -121t-92 -72q63 -117 144 -216v-15l-127 -6q-78 114 -119 223q-59 3 -95 19v-236h-114v515zM202 536v-213q47 -14 97 -14q51 0 86 23q25 35 25 92q0 112 -120 112h-88zM210 765l56 61l69 104h13l79 -77l-146 -136z
" />
    <glyph glyph-name="racute" unicode="&#x155;" horiz-adv-x="402" 
d="M40 397l104 44l28 -64q40 35 88 61q16 3 37 3q45 0 79 -20l-37 -109q-35 24 -73 24q-45 0 -79 -55v-281h-111v311zM169 555l41 54l70 124h13l73 -68l-128 -144z" />
    <glyph glyph-name="Rcommaaccent" unicode="&#x156;" horiz-adv-x="584" 
d="M78 630h218q104 0 166.5 -53.5t62.5 -152.5q0 -71 -34 -121t-92 -72q63 -117 144 -216v-15l-127 -6q-78 114 -119 223q-59 3 -95 19v-236h-114v515zM202 536v-213q47 -14 97 -14q51 0 86 23q25 35 25 92q0 112 -120 112h-88zM244 -75l114 5l6 -19l-56 -195l-80 18l16 108
v83z" />
    <glyph glyph-name="rcommaaccent" unicode="&#x157;" horiz-adv-x="402" 
d="M40 397l104 44l28 -64q40 35 88 61q16 3 37 3q45 0 79 -20l-37 -109q-35 24 -73 24q-45 0 -79 -55v-281h-111v311zM77 -76l108 6l6 -20l-55 -173l-75 18l16 99v70z" />
    <glyph glyph-name="Rcaron" unicode="&#x158;" horiz-adv-x="584" 
d="M78 630h218q104 0 166.5 -53.5t62.5 -152.5q0 -71 -34 -121t-92 -72q63 -117 144 -216v-15l-127 -6q-78 114 -119 223q-59 3 -95 19v-236h-114v515zM202 536v-213q47 -14 97 -14q51 0 86 23q25 35 25 92q0 112 -120 112h-88zM197 890l100 -81l98 79l69 -52v-15l-81 -55
l-78 -66h-23l-76 61l-86 52v15z" />
    <glyph glyph-name="rcaron" unicode="&#x159;" horiz-adv-x="402" 
d="M40 397l104 44l28 -64q40 35 88 61q16 3 37 3q45 0 79 -20l-37 -109q-35 24 -73 24q-45 0 -79 -55v-281h-111v311zM143 706l92 -86l89 83l65 -52v-14l-76 -58l-69 -64h-25l-67 58l-81 55v15z" />
    <glyph glyph-name="Sacute" unicode="&#x15a;" horiz-adv-x="557" 
d="M487 575l-73 -93q-28 29 -94 63q-20 4 -37 4q-49 0 -84 -19q-18 -22 -18 -60q0 -40 28 -63.5t89 -32.5q204 -30 204 -197q0 -87 -64 -138.5t-169 -51.5q-126 0 -218 69l62 98q57 -47 116 -68q28 -4 43 -4q59 0 94 20q27 27 27 71q0 42 -28 66t-93 32q-96 12 -147.5 61
t-51.5 129q0 81 57 131.5t148 50.5q124 0 209 -68zM213 765l56 61l69 104h13l79 -77l-146 -136z" />
    <glyph glyph-name="sacute" unicode="&#x15b;" horiz-adv-x="462" 
d="M43 37l52 90q40 -33 93 -51q20 -2 34 -2q48 0 78 14q12 14 12 34q0 22 -17.5 33.5t-71.5 17.5q-163 18 -163 133q0 60 46 97.5t131 37.5q93 0 170 -45l-53 -84q-37 26 -80 41q-16 3 -37 3q-39 0 -66 -12q-10 -11 -10 -29q0 -23 17.5 -35t61.5 -17q172 -20 172 -136
q0 -64 -48.5 -101t-136.5 -37q-108 0 -184 48zM183 555l41 54l70 124h13l73 -68l-128 -144z" />
    <glyph glyph-name="Scircumflex" unicode="&#x15c;" horiz-adv-x="557" 
d="M487 575l-73 -93q-28 29 -94 63q-20 4 -37 4q-49 0 -84 -19q-18 -22 -18 -60q0 -40 28 -63.5t89 -32.5q204 -30 204 -197q0 -87 -64 -138.5t-169 -51.5q-126 0 -218 69l62 98q57 -47 116 -68q28 -4 43 -4q59 0 94 20q27 27 27 71q0 42 -28 66t-93 32q-96 12 -147.5 61
t-51.5 129q0 81 57 131.5t148 50.5q124 0 209 -68zM274 897h24l76 -60l84 -52v-15l-77 -64l-99 83l-99 -80l-69 53v14l82 56z" />
    <glyph glyph-name="scircumflex" unicode="&#x15d;" horiz-adv-x="462" 
d="M43 37l52 90q40 -33 93 -51q20 -2 34 -2q48 0 78 14q12 14 12 34q0 22 -17.5 33.5t-71.5 17.5q-163 18 -163 133q0 60 46 97.5t131 37.5q93 0 170 -45l-53 -84q-37 26 -80 41q-16 3 -37 3q-39 0 -66 -12q-10 -11 -10 -29q0 -23 17.5 -35t61.5 -17q172 -20 172 -136
q0 -64 -48.5 -101t-136.5 -37q-108 0 -184 48zM227 705h26l71 -63l73 -51v-14l-73 -64l-88 87l-93 -83l-64 52v14l76 57z" />
    <glyph glyph-name="Scedilla" unicode="&#x15e;" horiz-adv-x="557" 
d="M487 575l-73 -93q-28 29 -94 63q-20 4 -37 4q-49 0 -84 -19q-18 -22 -18 -60q0 -40 28 -63.5t89 -32.5q204 -30 204 -197q0 -79 -52 -129t-141 -59v-44q74 -24 74 -109q0 -65 -50 -109t-148 -55l-9 8l15 92q52 3 89 21q9 17 9 38q0 43 -44 43q-15 0 -33 -6l-12 16l22 105
q-96 10 -171 67l62 98q57 -47 116 -68q28 -4 43 -4q59 0 94 20q27 27 27 71q0 42 -28 66t-93 32q-96 12 -147.5 61t-51.5 129q0 81 57 131.5t148 50.5q124 0 209 -68z" />
    <glyph glyph-name="scedilla" unicode="&#x15f;" horiz-adv-x="462" 
d="M43 37l52 90q42 -34 93 -50q15 -3 34 -3q48 0 78 14q12 14 12 34q0 22 -17.5 33.5t-71.5 17.5q-163 17 -163 133q0 60 46 97.5t131 37.5q93 0 170 -45l-53 -84q-36 25 -81 41q-17 3 -36 3q-39 0 -66 -12q-10 -11 -10 -29q0 -23 17.5 -35t61.5 -17q172 -20 172 -136
q0 -58 -39.5 -93.5t-111.5 -42.5v-34q72 -24 72 -106q0 -58 -47 -99.5t-139 -53.5l-7 8l14 87q53 3 87 19q8 14 8 34q0 42 -42 42q-15 0 -33 -6l-12 15l23 94q-81 6 -142 46z" />
    <glyph glyph-name="Scaron" unicode="&#x160;" horiz-adv-x="557" 
d="M487 575l-73 -93q-28 29 -94 63q-20 4 -37 4q-49 0 -84 -19q-18 -22 -18 -60q0 -40 28 -63.5t89 -32.5q204 -30 204 -197q0 -87 -64 -138.5t-169 -51.5q-126 0 -218 69l62 98q57 -47 116 -68q28 -4 43 -4q59 0 94 20q27 27 27 71q0 42 -28 66t-93 32q-96 12 -147.5 61
t-51.5 129q0 81 57 131.5t148 50.5q124 0 209 -68zM192 890l100 -81l98 79l69 -52v-15l-81 -55l-78 -66h-23l-76 61l-86 52v15z" />
    <glyph glyph-name="scaron" unicode="&#x161;" horiz-adv-x="462" 
d="M43 37l52 90q40 -33 93 -51q20 -2 34 -2q48 0 78 14q12 14 12 34q0 22 -17.5 33.5t-71.5 17.5q-163 18 -163 133q0 60 46 97.5t131 37.5q93 0 170 -45l-53 -84q-37 26 -80 41q-16 3 -37 3q-39 0 -66 -12q-10 -11 -10 -29q0 -23 17.5 -35t61.5 -17q172 -20 172 -136
q0 -64 -48.5 -101t-136.5 -37q-108 0 -184 48zM152 706l92 -86l89 83l65 -52v-14l-76 -58l-69 -64h-25l-67 58l-81 55v15z" />
    <glyph glyph-name="Tcedilla" unicode="&#x162;" horiz-adv-x="530" 
d="M36 635l162 -5h134l169 6l-5 -110l-141 9h-35v-478q54 -29 54 -103q0 -66 -50.5 -111.5t-148.5 -56.5l-9 8l15 94q52 3 87 21q11 17 11 42q0 45 -43 45q-17 0 -32 -6l-12 16l14 70v459h-34l-144 -8z" />
    <glyph glyph-name="tcedilla" unicode="&#x163;" horiz-adv-x="366" 
d="M207 538l-6 -108h113l-6 -93l-105 7v-194q0 -68 47 -68q34 0 62 22l26 -81q-39 -30 -93 -33v-33q72 -23 72 -106q0 -58 -47 -99.5t-138 -53.5l-8 8l14 87q54 3 88 19q8 14 8 34q0 42 -43 42q-15 0 -33 -6l-11 15l24 102q-78 28 -78 145v192l-58 14v68q26 7 58 24
q23 44 34 101z" />
    <glyph glyph-name="Tcaron" unicode="&#x164;" horiz-adv-x="530" 
d="M36 635l162 -5h134l169 6l-5 -110l-141 9h-35v-535h-114v535h-34l-144 -8zM166 890l100 -81l98 79l69 -52v-15l-81 -55l-78 -66h-23l-76 61l-86 52v15z" />
    <glyph glyph-name="tcaron" unicode="&#x165;" horiz-adv-x="462" 
d="M206 538l-6 -108h113l-6 -93l-105 7v-194q0 -68 47 -68q34 0 62 22l26 -81q-44 -34 -109 -34q-69 0 -102.5 41.5t-33.5 113.5v192l-58 14v68q26 7 58 24q22 44 34 101zM359 639l108 6l6 -20l-55 -173l-75 18l16 99v70z" />
    <glyph glyph-name="Tbar" unicode="&#x166;" horiz-adv-x="530" 
d="M36 635l162 -5h134l169 6l-5 -110l-141 9h-35v-169l124 8l-7 -101h-117v-273h-114v273h-120l15 91h105v171h-34l-144 -8z" />
    <glyph glyph-name="tbar" unicode="&#x167;" horiz-adv-x="366" 
d="M207 538l-6 -108h113l-6 -93l-105 7v-75l91 7l-6 -83l-85 -2v-41q0 -68 47 -68q34 0 62 22l26 -81q-44 -34 -109 -34q-69 0 -102.5 41.5t-33.5 113.5v44l-52 -1l-7 7l12 72h47v70l-58 14v68q26 7 58 24q23 44 34 101z" />
    <glyph glyph-name="Utilde" unicode="&#x168;" horiz-adv-x="645" 
d="M78 625l124 9v-379q0 -88 31.5 -131.5t88.5 -43.5q54 0 89 26q32 47 32 142v269l-10 108l123 9v-380q0 -125 -60.5 -196t-173.5 -71q-112 0 -173 67.5t-61 195.5v264zM190 751l-42 66q45 40 82 57q14 2 23 2q37 0 77.5 -27.5t61.5 -27.5q26 10 56 30l41 -68
q-35 -35 -84 -57q-14 -2 -23 -2q-37 0 -77 27.5t-61 27.5q-29 -11 -54 -28z" />
    <glyph glyph-name="utilde" unicode="&#x169;" horiz-adv-x="524" 
d="M56 426l120 9v-277q0 -36 17.5 -56t48.5 -20q56 0 96 64v186l-9 94l120 9v-314l37 -88l-104 -44l-29 63q-38 -37 -82 -60q-21 -3 -43 -3q-79 0 -121 45t-42 121v177zM142 544l-40 68q36 36 71 54q11 3 22 3q32 0 73 -22.5t62 -27.5q27 9 53 30l40 -68q-32 -34 -73 -54
q-18 -3 -22 -3q-31 0 -71.5 22.5t-63.5 27.5q-28 -10 -51 -30z" />
    <glyph glyph-name="Umacron" unicode="&#x16a;" horiz-adv-x="645" 
d="M78 625l124 9v-379q0 -88 31.5 -131.5t88.5 -43.5q54 0 89 26q32 47 32 142v269l-10 108l123 9v-380q0 -125 -60.5 -196t-173.5 -71q-112 0 -173 67.5t-61 195.5v264zM158 833l196 7l133 17l9 -8l-12 -102l-334 -8l-9 7z" />
    <glyph glyph-name="umacron" unicode="&#x16b;" horiz-adv-x="524" 
d="M56 426l120 9v-277q0 -36 17.5 -56t48.5 -20q56 0 96 64v186l-9 94l120 9v-314l37 -88l-104 -44l-29 63q-38 -37 -82 -60q-21 -3 -43 -3q-79 0 -121 45t-42 121v177zM130 630l145 7l125 14l8 -8l-11 -94l-275 -8l-9 8z" />
    <glyph glyph-name="Ubreve" unicode="&#x16c;" horiz-adv-x="645" 
d="M78 625l124 9v-379q0 -88 31.5 -131.5t88.5 -43.5q54 0 89 26q32 47 32 142v269l-10 108l123 9v-380q0 -125 -60.5 -196t-173.5 -71q-112 0 -173 67.5t-61 195.5v264zM161 859l100 19q3 -37 20 -58.5t45 -21.5q26 0 40 12q10 19 10 58l100 13q0 -82 -43 -125t-114 -43
q-63 0 -106.5 39.5t-51.5 106.5z" />
    <glyph glyph-name="ubreve" unicode="&#x16d;" horiz-adv-x="524" 
d="M56 426l120 9v-277q0 -36 17.5 -56t48.5 -20q56 0 96 64v186l-9 94l120 9v-314l37 -88l-104 -44l-29 63q-38 -37 -82 -60q-21 -3 -43 -3q-79 0 -121 45t-42 121v177zM110 663l94 17q7 -77 56 -77q23 0 39 11q11 24 11 59l93 12q0 -80 -40.5 -121t-107.5 -41
q-59 0 -98.5 37.5t-46.5 102.5z" />
    <glyph glyph-name="Uring" unicode="&#x16e;" horiz-adv-x="645" 
d="M78 625l124 9v-379q0 -88 31.5 -131.5t88.5 -43.5q54 0 89 26q32 47 32 142v269l-10 108l123 9v-380q0 -125 -60.5 -196t-173.5 -71q-112 0 -173 67.5t-61 195.5v264zM318 957q61 0 97 -36.5t36 -91.5q0 -51 -37.5 -88.5t-95.5 -37.5q-62 0 -97.5 35.5t-35.5 90.5
q0 52 37.5 90t95.5 38zM318 876q-22 0 -36 -9q-9 -15 -9 -37q0 -21 12.5 -34t32.5 -13t36 9q9 14 9 38q0 21 -12.5 33.5t-32.5 12.5z" />
    <glyph glyph-name="uring" unicode="&#x16f;" horiz-adv-x="524" 
d="M56 426l120 9v-277q0 -36 17.5 -56t48.5 -20q56 0 96 64v186l-9 94l120 9v-314l37 -88l-104 -44l-29 63q-38 -37 -82 -60q-21 -3 -43 -3q-79 0 -121 45t-42 121v177zM259 745q56 0 89 -35t33 -84q0 -47 -34 -82.5t-88 -35.5q-61 0 -92 34t-31 84q0 48 34 83.5t89 35.5z
M259 668q-21 0 -35 -9q-7 -11 -7 -33q0 -19 11.5 -31t30.5 -12q18 0 32 8q8 14 8 35q0 19 -11 30.5t-29 11.5z" />
    <glyph glyph-name="Uhungarumlaut" unicode="&#x170;" horiz-adv-x="645" 
d="M78 625l124 9v-379q0 -88 31.5 -131.5t88.5 -43.5q54 0 89 26q32 47 32 142v269l-10 108l123 9v-380q0 -125 -60.5 -196t-173.5 -71q-112 0 -173 67.5t-61 195.5v264zM179 751l40 78l34 98h14l87 -60l-106 -152zM334 752l123 152h14l75 -78l-86 -64l-64 -57z" />
    <glyph glyph-name="uhungarumlaut" unicode="&#x171;" horiz-adv-x="524" 
d="M56 426l120 9v-277q0 -36 17.5 -56t48.5 -20q56 0 96 64v186l-9 94l120 9v-314l37 -88l-104 -44l-29 63q-38 -37 -82 -60q-21 -3 -43 -3q-79 0 -121 45t-42 121v177zM136 549l35 81l26 95h13l84 -58l-90 -143zM277 553l112 156h13l71 -72l-82 -66l-54 -52z" />
    <glyph glyph-name="Uogonek" unicode="&#x172;" horiz-adv-x="645" 
d="M78 625l124 9v-379q0 -88 31.5 -131.5t88.5 -43.5q54 0 89 26q32 47 32 142v269l-10 108l123 9v-380q0 -112 -49 -181.5t-141 -82.5q-14 -23 -14 -52q0 -62 88 -62l6 -9l-35 -87q-74 0 -116.5 38t-42.5 99q0 42 18 74q-88 14 -135 80t-47 179v264z" />
    <glyph glyph-name="uogonek" unicode="&#x173;" horiz-adv-x="524" 
d="M56 426l120 9v-277q0 -36 17.5 -56t48.5 -20q56 0 96 64v186l-9 94l120 9v-314l37 -88q-40 -12 -65 -33q-13 -20 -13 -49q0 -59 73 -59l5 -8l-32 -80q-61 0 -97.5 33.5t-36.5 84.5q0 62 45 102l-12 28q-38 -37 -82 -60q-21 -3 -43 -3q-79 0 -121 45t-42 121v177z" />
    <glyph glyph-name="Wcircumflex" unicode="&#x174;" horiz-adv-x="835" 
d="M31 625l135 9l14 -138l50 -229l23 -146h12l74 369l19 134l125 6l82 -363l25 -146h11l69 369l7 140h127v-16l-30 -165l-88 -342l-17 -105l-155 -6l-87 434h-11l-55 -295l-14 -132l-169 -8l-147 615v15zM411 897h24l76 -60l84 -52v-15l-77 -64l-99 83l-99 -80l-69 53v14
l82 56z" />
    <glyph glyph-name="wcircumflex" unicode="&#x175;" horiz-adv-x="684" 
d="M26 426l114 9l77 -323h6l34 113q24 83 34 201l103 5l82 -319h6l34 132q21 82 27 186h115v-12q-19 -99 -61 -221l-67 -196l-115 -5l-65 257h-6l-69 -252l-121 -5l-128 419v11zM337 705h26l71 -63l73 -51v-14l-73 -64l-88 87l-93 -83l-64 52v14l76 57z" />
    <glyph glyph-name="Ycircumflex" unicode="&#x176;" horiz-adv-x="575" 
d="M31 625l134 9l36 -123l95 -230h11l81 209l28 140h127v-15l-47 -133l-143 -307v-175h-113v176l-209 435v14zM285 897h24l76 -60l84 -52v-15l-77 -64l-99 83l-99 -80l-69 53v14l82 56z" />
    <glyph glyph-name="ycircumflex" unicode="&#x177;" horiz-adv-x="484" 
d="M26 426l118 9l107 -348h7l43 134q28 90 37 209h120v-11q-17 -97 -64 -211l-130 -315l-8 -133l-107 5l-7 9q7 102 54 200l-170 441v11zM245 705h26l71 -63l73 -51v-14l-73 -64l-88 87l-93 -83l-64 52v14l76 57z" />
    <glyph glyph-name="Ydieresis" unicode="&#x178;" horiz-adv-x="575" 
d="M31 625l134 9l36 -123l95 -230h11l81 209l28 140h127v-15l-47 -133l-143 -307v-175h-113v176l-209 435v14zM349 848l119 8v-124l-124 4zM131 846l120 11v-125l-124 4z" />
    <glyph glyph-name="Zacute" unicode="&#x179;" horiz-adv-x="517" 
d="M60 630h401l6 -74l-291 -465h60l228 15l11 -11l-11 -95h-416l-6 70l292 468h-60l-217 -15l-9 11zM184 765l56 61l69 104h13l79 -77l-146 -136z" />
    <glyph glyph-name="zacute" unicode="&#x17a;" horiz-adv-x="446" 
d="M60 430h331l4 -60l-218 -287h38l179 13l8 -8l-12 -88h-343l-4 58l218 289h-41l-163 -12l-8 8zM171 555l41 54l70 124h13l73 -68l-128 -144z" />
    <glyph glyph-name="Zdotaccent" unicode="&#x17b;" horiz-adv-x="517" 
d="M60 630h401l6 -74l-291 -465h60l228 15l11 -11l-11 -95h-416l-6 70l292 468h-60l-217 -15l-9 11zM199 849l125 11v-131l-129 4z" />
    <glyph glyph-name="zdotaccent" unicode="&#x17c;" horiz-adv-x="446" 
d="M60 430h331l4 -60l-218 -287h38l179 13l8 -8l-12 -88h-343l-4 58l218 289h-41l-163 -12l-8 8zM168 645l119 10v-119l-123 5z" />
    <glyph glyph-name="Zcaron" unicode="&#x17d;" horiz-adv-x="517" 
d="M60 630h401l6 -74l-291 -465h60l228 15l11 -11l-11 -95h-416l-6 70l292 468h-60l-217 -15l-9 11zM162 890l100 -81l98 79l69 -52v-15l-81 -55l-78 -66h-23l-76 61l-86 52v15z" />
    <glyph glyph-name="zcaron" unicode="&#x17e;" horiz-adv-x="446" 
d="M60 430h331l4 -60l-218 -287h38l179 13l8 -8l-12 -88h-343l-4 58l218 289h-41l-163 -12l-8 8zM138 706l92 -86l89 83l65 -52v-14l-76 -58l-69 -64h-25l-67 58l-81 55v15z" />
    <glyph glyph-name="longs" unicode="&#x17f;" horiz-adv-x="275" 
d="M30 422l60 9v64q0 75 53 128.5t142 53.5l15 -103q-54 0 -93 -17q-11 -19 -11 -41v-29l7 -476l-22 -192l-91 5v510l-60 15v73z" />
    <glyph glyph-name="AEacute" unicode="&#x1fc;" horiz-adv-x="869" 
d="M430 630h372l-12 -101l-178 9h-83v-170h69l150 9l-9 -100l-210 5v-190h86l195 11l-6 -103h-388v160l-203 4l-26 -56l-25 -108h-141v15l256 503l24 117zM384 534l-132 -285l164 7v278h-32zM424 765l56 61l69 104h13l79 -77l-146 -136z" />
    <glyph glyph-name="aeacute" unicode="&#x1fd;" horiz-adv-x="758" 
d="M119 298l-61 82q86 61 196 61q85 0 127 -54q57 54 140 54q87 0 136.5 -57t49.5 -153v-41l-200 -10l-87 4q2 -53 30.5 -79.5t76.5 -26.5q70 0 132 42l43 -79q-77 -52 -178 -52q-108 0 -166 70q-54 -45 -115 -67q-21 -3 -44 -3q-70 0 -109.5 33.5t-39.5 92.5
q0 55 38.5 91.5t110.5 44.5l114 12l3 11v16q0 29 -19 45.5t-52 16.5q-21 0 -49 -4q-44 -21 -77 -50zM219 76q59 0 94 46v62l-88 -6q-35 -2 -54 -13q-11 -17 -11 -37q0 -52 59 -52zM420 257l177 10q0 39 -22.5 62.5t-60.5 23.5q-44 0 -73 -24q-18 -25 -21 -72zM340 555l41 54
l70 124h13l73 -68l-128 -144z" />
    <glyph glyph-name="Oslashacute" unicode="&#x1fe;" horiz-adv-x="646" 
d="M323 643q42 0 81 -11l32 89l118 -33l-53 -114q84 -87 84 -259q0 -155 -70.5 -241.5t-191.5 -86.5q-44 0 -88 13l-47 -102l-94 36l53 119q-86 84 -86 262q0 150 71.5 239t190.5 89zM225 513q-48 -79 -48 -198q0 -91 23 -146l167 370q-22 8 -46 8q-56 0 -96 -34zM470 315
q0 88 -23 142l-170 -366q24 -8 48 -8q56 0 95 33q50 82 50 199zM271 772l56 61l69 104h13l79 -77l-146 -136z" />
    <glyph glyph-name="oslashacute" unicode="&#x1ff;" horiz-adv-x="528" 
d="M264 441q34 0 64 -9l30 66l102 -29l-47 -84q64 -62 64 -170q0 -99 -60 -162.5t-153 -63.5q-29 0 -67 9l-39 -71l-83 31l44 82q-68 60 -68 175q0 99 60 162.5t153 63.5zM162 215q0 -45 12 -73l110 206q-12 2 -20 2q-44 0 -75 -23q-27 -43 -27 -112zM264 79q44 0 74 23
q28 45 28 113q0 37 -10 67l-113 -201q7 -2 21 -2zM213 560l41 54l70 124h13l73 -68l-128 -144z" />
    <glyph glyph-name="Adblgrave" unicode="&#x200;" horiz-adv-x="614" 
d="M222 625l153 11l205 -621v-15h-129l-16 96l-18 58l-223 4l-17 -58l-8 -100h-136v15l181 520zM299 512l-79 -267l169 7l-77 260h-13zM255 867l87 60h13l35 -98l40 -78l-70 -36zM62 826l76 78h13l123 -152l-62 -47l-64 58z" />
    <glyph glyph-name="adblgrave" unicode="&#x201;" horiz-adv-x="504" 
d="M119 298l-61 82q86 61 199 61q81 0 123 -44t42 -126v-157l47 -74l-86 -55l-45 63q-41 -36 -95 -56q-18 -3 -44 -3q-70 0 -109.5 33.5t-39.5 93.5q0 53 37 88t104 44l122 17l3 10v15q0 29 -19.5 45.5t-51.5 16.5q-23 0 -49 -4q-46 -23 -77 -50zM313 123v62l-93 -6
q-28 -2 -49 -13q-11 -17 -11 -39q0 -51 60 -51q59 0 93 47zM219 667l85 58h13l28 -95l33 -81l-68 -25zM40 637l72 72h13l114 -156l-62 -34l-52 51z" />
    <glyph glyph-name="Acircum" unicode="&#x202;" horiz-adv-x="614" 
d="M222 625l153 11l205 -621v-15h-129l-16 96l-18 58l-223 4l-17 -58l-8 -100h-136v15l181 520zM299 512l-79 -267l169 7l-77 260h-13zM289 897h24l76 -60l84 -52v-15l-77 -64l-99 83l-99 -80l-69 53v14l82 56z" />
    <glyph glyph-name="acircum" unicode="&#x203;" horiz-adv-x="504" 
d="M119 298l-61 82q86 61 199 61q81 0 123 -44t42 -126v-157l47 -74l-86 -55l-45 63q-41 -36 -95 -56q-18 -3 -44 -3q-70 0 -109.5 33.5t-39.5 93.5q0 53 37 88t104 44l122 17l3 10v15q0 29 -19.5 45.5t-51.5 16.5q-23 0 -49 -4q-46 -23 -77 -50zM313 123v62l-93 -6
q-28 -2 -49 -13q-11 -17 -11 -39q0 -51 60 -51q59 0 93 47zM240 705h26l71 -63l73 -51v-14l-73 -64l-88 87l-93 -83l-64 52v14l76 57z" />
    <glyph glyph-name="Edblgrave" unicode="&#x204;" horiz-adv-x="555" 
d="M78 630h410l-12 -101l-191 9h-83v-170h68l165 9l-10 -101l-223 5v-189h85l209 11l-5 -103h-403v518zM247 867l87 60h13l35 -98l40 -78l-70 -36zM54 826l76 78h13l123 -152l-62 -47l-64 58z" />
    <glyph glyph-name="edblgrave" unicode="&#x205;" horiz-adv-x="500" 
d="M449 190l-202 -10l-85 3q1 -50 29.5 -77.5t77.5 -27.5q70 0 132 42l43 -79q-77 -52 -178 -52q-102 0 -158.5 60t-56.5 166q0 101 59 163.5t153 62.5q87 0 136.5 -57t49.5 -153v-41zM162 256l177 11q0 39 -22.5 62.5t-60.5 23.5q-44 0 -73 -24q-21 -30 -21 -73zM223 667
l85 58h13l28 -95l33 -81l-68 -25zM44 637l72 72h13l114 -156l-62 -34l-52 51z" />
    <glyph glyph-name="Ecircum" unicode="&#x206;" horiz-adv-x="555" 
d="M78 630h410l-12 -101l-191 9h-83v-170h68l165 9l-10 -101l-223 5v-189h85l209 11l-5 -103h-403v518zM275 897h24l76 -60l84 -52v-15l-77 -64l-99 83l-99 -80l-69 53v14l82 56z" />
    <glyph glyph-name="ecircum" unicode="&#x207;" horiz-adv-x="500" 
d="M449 190l-202 -10l-85 3q1 -50 29.5 -77.5t77.5 -27.5q70 0 132 42l43 -79q-77 -52 -178 -52q-102 0 -158.5 60t-56.5 166q0 101 59 163.5t153 62.5q87 0 136.5 -57t49.5 -153v-41zM162 256l177 11q0 39 -22.5 62.5t-60.5 23.5q-44 0 -73 -24q-21 -30 -21 -73zM248 705
h26l71 -63l73 -51v-14l-73 -64l-88 87l-93 -83l-64 52v14l76 57z" />
    <glyph glyph-name="Idblgrave" unicode="&#x208;" horiz-adv-x="291" 
d="M78 625l124 9v-634h-114v515zM103 867l87 60h13l35 -98l40 -78l-70 -36zM-90 826l76 78h13l123 -152l-62 -47l-64 58z" />
    <glyph glyph-name="idblgrave" unicode="&#x209;" horiz-adv-x="240" 
d="M56 426l119 9v-435h-110v332zM94 692l85 47l14 -2l23 -104l25 -87l-68 -22zM-76 668l74 63l15 -2l99 -173l-60 -37l-38 52z" />
    <glyph glyph-name="Icircum" unicode="&#x20a;" horiz-adv-x="291" 
d="M78 625l124 9v-634h-114v515zM133 897h24l76 -60l84 -52v-15l-77 -64l-99 83l-99 -80l-69 53v14l82 56z" />
    <glyph glyph-name="icircum" unicode="&#x20b;" horiz-adv-x="240" 
d="M56 426l119 9v-435h-110v332zM110 705h25l62 -63l62 -52v-14l-70 -63l-74 80l-79 -76l-56 53v14l68 57z" />
    <glyph glyph-name="Odblgrave" unicode="&#x20c;" horiz-adv-x="646" 
d="M323 643q122 0 192 -85.5t70 -242.5q0 -154 -71 -241t-191 -87q-122 0 -192 85.5t-70 242.5q0 149 72 238.5t190 89.5zM225 513q-49 -81 -49 -198q0 -119 40 -175.5t109 -56.5q57 0 95 32q50 80 50 200q0 119 -40 175.5t-109 56.5q-58 0 -96 -34zM280 867l87 60h13
l35 -98l40 -78l-70 -36zM87 826l76 78h13l123 -152l-62 -47l-64 58z" />
    <glyph glyph-name="odblgrave" unicode="&#x20d;" horiz-adv-x="528" 
d="M264 441q96 0 154.5 -61.5t58.5 -164.5q0 -99 -60 -162.5t-153 -63.5q-97 0 -155 61t-58 165q0 99 60 162.5t153 63.5zM264 79q44 0 74 23q28 45 28 113q0 69 -29.5 102t-72.5 33q-44 0 -75 -23q-27 -43 -27 -112t29.5 -102.5t72.5 -33.5zM229 667l85 58h13l28 -95
l33 -81l-68 -25zM50 637l72 72h13l114 -156l-62 -34l-52 51z" />
    <glyph glyph-name="Ocircum" unicode="&#x20e;" horiz-adv-x="646" 
d="M323 643q122 0 192 -85.5t70 -242.5q0 -154 -71 -241t-191 -87q-122 0 -192 85.5t-70 242.5q0 149 72 238.5t190 89.5zM225 513q-49 -81 -49 -198q0 -119 40 -175.5t109 -56.5q57 0 95 32q50 80 50 200q0 119 -40 175.5t-109 56.5q-58 0 -96 -34zM313 897h24l76 -60
l84 -52v-15l-77 -64l-99 83l-99 -80l-69 53v14l82 56z" />
    <glyph glyph-name="ocircum" unicode="&#x20f;" horiz-adv-x="528" 
d="M264 441q96 0 154.5 -61.5t58.5 -164.5q0 -99 -60 -162.5t-153 -63.5q-97 0 -155 61t-58 165q0 99 60 162.5t153 63.5zM264 79q44 0 74 23q28 45 28 113q0 69 -29.5 102t-72.5 33q-44 0 -75 -23q-27 -43 -27 -112t29.5 -102.5t72.5 -33.5zM253 705h26l71 -63l73 -51v-14
l-73 -64l-88 87l-93 -83l-64 52v14l76 57z" />
    <glyph glyph-name="Rdblgrave" unicode="&#x210;" horiz-adv-x="584" 
d="M78 630h218q104 0 166.5 -53.5t62.5 -152.5q0 -71 -34 -121t-92 -72q63 -117 144 -216v-15l-127 -6q-78 114 -119 223q-59 3 -95 19v-236h-114v515zM202 536v-213q47 -14 97 -14q51 0 86 23q25 35 25 92q0 112 -120 112h-88zM246 867l87 60h13l35 -98l40 -78l-70 -36z
M53 826l76 78h13l123 -152l-62 -47l-64 58z" />
    <glyph glyph-name="rdblgrave" unicode="&#x211;" horiz-adv-x="402" 
d="M40 397l104 44l28 -64q40 35 88 61q16 3 37 3q45 0 79 -20l-37 -109q-35 24 -73 24q-45 0 -79 -55v-281h-111v311zM191 667l85 58h13l28 -95l33 -81l-68 -25zM12 637l72 72h13l114 -156l-62 -34l-52 51z" />
    <glyph glyph-name="Rcircum" unicode="&#x212;" horiz-adv-x="584" 
d="M78 630h218q104 0 166.5 -53.5t62.5 -152.5q0 -71 -34 -121t-92 -72q63 -117 144 -216v-15l-127 -6q-78 114 -119 223q-59 3 -95 19v-236h-114v515zM202 536v-213q47 -14 97 -14q51 0 86 23q25 35 25 92q0 112 -120 112h-88zM282 897h24l76 -60l84 -52v-15l-77 -64
l-99 83l-99 -80l-69 53v14l82 56z" />
    <glyph glyph-name="rcircum" unicode="&#x213;" horiz-adv-x="402" 
d="M40 397l104 44l28 -64q40 35 88 61q16 3 37 3q45 0 79 -20l-37 -109q-35 24 -73 24q-45 0 -79 -55v-281h-111v311zM207 705h26l71 -63l73 -51v-14l-73 -64l-88 87l-93 -83l-64 52v14l76 57z" />
    <glyph glyph-name="Udblgrave" unicode="&#x214;" horiz-adv-x="645" 
d="M78 625l124 9v-379q0 -88 31.5 -131.5t88.5 -43.5q54 0 89 26q32 47 32 142v269l-10 108l123 9v-380q0 -125 -60.5 -196t-173.5 -71q-112 0 -173 67.5t-61 195.5v264zM274 867l87 60h13l35 -98l40 -78l-70 -36zM81 826l76 78h13l123 -152l-62 -47l-64 58z" />
    <glyph glyph-name="udblgrave" unicode="&#x215;" horiz-adv-x="524" 
d="M56 426l120 9v-277q0 -36 17.5 -56t48.5 -20q56 0 96 64v186l-9 94l120 9v-314l37 -88l-104 -44l-29 63q-38 -37 -82 -60q-21 -3 -43 -3q-79 0 -121 45t-42 121v177zM220 667l85 58h13l28 -95l33 -81l-68 -25zM41 637l72 72h13l114 -156l-62 -34l-52 51z" />
    <glyph glyph-name="Ucircum" unicode="&#x216;" horiz-adv-x="645" 
d="M78 625l124 9v-379q0 -88 31.5 -131.5t88.5 -43.5q54 0 89 26q32 47 32 142v269l-10 108l123 9v-380q0 -125 -60.5 -196t-173.5 -71q-112 0 -173 67.5t-61 195.5v264zM307 897h24l76 -60l84 -52v-15l-77 -64l-99 83l-99 -80l-69 53v14l82 56z" />
    <glyph glyph-name="ucircum" unicode="&#x217;" horiz-adv-x="524" 
d="M56 426l120 9v-277q0 -36 17.5 -56t48.5 -20q56 0 96 64v186l-9 94l120 9v-314l37 -88l-104 -44l-29 63q-38 -37 -82 -60q-21 -3 -43 -3q-79 0 -121 45t-42 121v177zM246 705h26l71 -63l73 -51v-14l-73 -64l-88 87l-93 -83l-64 52v14l76 57z" />
    <glyph glyph-name="Scommaaccent" unicode="&#x218;" horiz-adv-x="557" 
d="M487 575l-73 -93q-28 29 -94 63q-20 4 -37 4q-49 0 -84 -19q-18 -22 -18 -60q0 -40 28 -63.5t89 -32.5q204 -30 204 -197q0 -87 -64 -138.5t-169 -51.5q-126 0 -218 69l62 98q57 -47 116 -68q28 -4 43 -4q59 0 94 20q27 27 27 71q0 42 -28 66t-93 32q-96 12 -147.5 61
t-51.5 129q0 81 57 131.5t148 50.5q124 0 209 -68zM214 -75l114 5l6 -19l-56 -195l-80 18l16 108v83z" />
    <glyph glyph-name="scommaaccent" unicode="&#x219;" horiz-adv-x="462" 
d="M43 37l52 90q40 -33 93 -51q20 -2 34 -2q48 0 78 14q12 14 12 34q0 22 -17.5 33.5t-71.5 17.5q-163 18 -163 133q0 60 46 97.5t131 37.5q93 0 170 -45l-53 -84q-37 26 -80 41q-16 3 -37 3q-39 0 -66 -12q-10 -11 -10 -29q0 -23 17.5 -35t61.5 -17q172 -20 172 -136
q0 -64 -48.5 -101t-136.5 -37q-108 0 -184 48zM179 -76l108 6l6 -20l-55 -173l-75 18l16 99v70z" />
    <glyph glyph-name="Tcommaaccent" unicode="&#x21a;" horiz-adv-x="530" 
d="M36 635l162 -5h134l169 6l-5 -110l-141 9h-35v-535h-114v535h-34l-144 -8zM205 -75l114 5l6 -19l-56 -195l-80 18l16 108v83z" />
    <glyph glyph-name="tcommaaccent" unicode="&#x21b;" horiz-adv-x="366" 
d="M207 538l-6 -108h113l-6 -93l-105 7v-194q0 -68 47 -68q34 0 62 22l26 -81q-44 -34 -109 -34q-69 0 -102.5 41.5t-33.5 113.5v192l-58 14v68q26 7 58 24q23 44 34 101zM157 -76l108 6l6 -20l-55 -173l-75 18l16 99v70z" />
    <glyph glyph-name="dotlessj" unicode="&#x237;" horiz-adv-x="243" 
d="M59 426l119 9v-413q0 -92 -44.5 -151t-137.5 -89l-44 99q45 8 86 27q33 36 33 84v22l-3 53v265z" />
    <glyph glyph-name="circumflex" unicode="&#x2c6;" horiz-adv-x="347" 
d="M165 705h26l71 -63l73 -51v-14l-73 -64l-88 87l-93 -83l-64 52v14l76 57z" />
    <glyph glyph-name="caron" unicode="&#x2c7;" horiz-adv-x="352" 
d="M89 706l92 -86l89 83l65 -52v-14l-76 -58l-69 -64h-25l-67 58l-81 55v15z" />
    <glyph glyph-name="breve" unicode="&#x2d8;" horiz-adv-x="327" 
d="M17 663l94 17q7 -77 56 -77q23 0 39 11q11 24 11 59l93 12q0 -80 -40.5 -121t-107.5 -41q-59 0 -98.5 37.5t-46.5 102.5z" />
    <glyph glyph-name="dotaccent" unicode="&#x2d9;" horiz-adv-x="175" 
d="M30 645l119 10v-119l-123 5z" />
    <glyph glyph-name="ring" unicode="&#x2da;" horiz-adv-x="278" 
d="M139 745q56 0 89 -35t33 -84q0 -47 -34 -82.5t-88 -35.5q-61 0 -92 34t-31 84q0 48 34 83.5t89 35.5zM139 668q-21 0 -35 -9q-7 -11 -7 -33q0 -19 11.5 -31t30.5 -12q18 0 32 8q8 14 8 35q0 19 -11 30.5t-29 11.5z" />
    <glyph glyph-name="ogonek" unicode="&#x2db;" horiz-adv-x="245" 
d="M168 27l28 -24q-33 -7 -62 -26q-11 -18 -11 -46q0 -59 73 -59l5 -9l-32 -79q-61 0 -97.5 33.5t-36.5 84.5q0 88 103 137z" />
    <glyph glyph-name="tilde" unicode="&#x2dc;" horiz-adv-x="353" 
d="M56 544l-40 68q36 36 71 54q11 3 22 3q32 0 73 -22.5t62 -27.5q27 9 53 30l40 -68q-32 -34 -73 -54q-18 -3 -22 -3q-31 0 -71.5 22.5t-63.5 27.5q-28 -10 -51 -30z" />
    <glyph glyph-name="hungarumlaut" unicode="&#x2dd;" horiz-adv-x="380" 
d="M17 549l35 81l26 95h13l84 -58l-90 -143zM158 553l112 156h13l71 -72l-82 -66l-54 -52z" />
    <glyph glyph-name="afii10023" unicode="&#x401;" horiz-adv-x="555" 
d="M78 630h410l-12 -101l-191 9h-83v-170h68l165 9l-10 -101l-223 5v-189h85l209 11l-5 -103h-403v518zM333 848l119 8v-124l-124 4zM115 846l120 11v-125l-124 4z" />
    <glyph glyph-name="afii10051" unicode="&#x402;" horiz-adv-x="709" 
d="M36 635l160 -5h133l178 6l-6 -109l-150 8h-30v-154q49 27 92 38q18 2 31 2q98 0 148.5 -53t50.5 -152v-106q0 -97 -56.5 -163t-166.5 -82l-25 108q60 11 108 31q26 36 26 106v100q0 117 -103 117q-60 0 -105 -39v-288h-113v535h-31l-149 -8z" />
    <glyph glyph-name="afii10052" unicode="&#x403;" horiz-adv-x="531" 
d="M78 630h189l219 4l-15 -108l-182 11h-87v-537h-114v518zM202 765l56 61l69 104h13l79 -77l-146 -136z" />
    <glyph glyph-name="afii10053" unicode="&#x404;" horiz-adv-x="587" 
d="M519 574l-73 -99q-40 40 -95 69q-13 3 -34 3q-52 0 -96 -33q-37 -63 -44 -148h79l123 10l8 -9l-12 -97l-128 10h-71q6 -98 46.5 -147t104.5 -49q85 0 146 69l63 -76q-81 -90 -215 -90q-128 0 -194 87.5t-66 240.5q0 151 72.5 239.5t192.5 88.5q121 0 193 -69z" />
    <glyph glyph-name="afii10054" unicode="&#x405;" horiz-adv-x="557" 
d="M487 575l-73 -93q-28 29 -94 63q-20 4 -37 4q-49 0 -84 -19q-18 -22 -18 -60q0 -40 28 -63.5t89 -32.5q204 -30 204 -197q0 -87 -64 -138.5t-169 -51.5q-126 0 -218 69l62 98q57 -47 116 -68q28 -4 43 -4q59 0 94 20q27 27 27 71q0 42 -28 66t-93 32q-96 12 -147.5 61
t-51.5 129q0 81 57 131.5t148 50.5q124 0 209 -68z" />
    <glyph glyph-name="afii10055" unicode="&#x406;" horiz-adv-x="291" 
d="M78 625l124 9v-634h-114v515z" />
    <glyph glyph-name="afii10056" unicode="&#x407;" horiz-adv-x="291" 
d="M78 625l124 9v-634h-114v515zM185 849l116 7v-124l-122 4zM-5 846l117 12v-126l-121 4z" />
    <glyph glyph-name="afii10057" unicode="&#x408;" horiz-adv-x="291" 
d="M77 625l125 9v-570q0 -216 -208 -273l-36 102q60 13 101 33q33 38 33 120v23l-4 87v362z" />
    <glyph glyph-name="afii10058" unicode="&#x409;" horiz-adv-x="915" 
d="M175 630h388v-245q39 23 77 34q14 2 25 2q95 0 148.5 -53t53.5 -153q0 -98 -58.5 -156.5t-153.5 -58.5h-205v536h-160l-5 -124q-6 -139 -19.5 -220t-43.5 -131q-42 -69 -135 -69q-45 0 -77 15l23 95q21 -7 43 -7q44 0 58 33q33 79 43 286l5 104zM563 92h82q43 0 75 17
q33 37 33 103q0 116 -99 116q-47 0 -91 -29v-207z" />
    <glyph glyph-name="afii10059" unicode="&#x40a;" horiz-adv-x="894" 
d="M78 625l124 9v-268l227 7v145l-11 107l124 9v-249q41 23 78 34q14 2 24 2q95 0 149 -53t54 -153q0 -98 -59 -156.5t-154 -58.5h-205v272l-227 4v-276h-114v518zM542 92h83q41 0 75 17q31 37 31 103q0 116 -97 116q-46 0 -92 -29v-207z" />
    <glyph glyph-name="afii10060" unicode="&#x40b;" horiz-adv-x="709" 
d="M36 635l163 -5h132l176 6l-6 -109l-150 8h-30v-154q45 26 92 38q18 2 31 2q199 0 199 -205v-216h-114v210q0 117 -103 117q-61 0 -105 -39v-288h-113v535h-34l-146 -8z" />
    <glyph glyph-name="afii10061" unicode="&#x40c;" horiz-adv-x="625" 
d="M78 625l124 9v-261h36q30 0 57 8q31 27 43 99q24 157 159 157q36 0 63 -9l-11 -97q-50 0 -79 -8q-24 -32 -35 -98q-13 -73 -61 -106q75 -160 202 -304v-15l-134 -5q-93 119 -156 282l-84 3v-280h-114v518zM237 765l56 61l69 104h13l79 -77l-146 -136z" />
    <glyph glyph-name="afii10062" unicode="&#x40e;" horiz-adv-x="567" 
d="M31 626l135 8l36 -125l94 -235h10l79 224l25 132h126v-15l-47 -135l-126 -291l-23 -79q-37 -123 -151 -123q-44 0 -77 15l15 94q27 -9 50 -9q24 0 46 8q14 22 24 60l-216 456v15zM133 859l100 19q3 -37 20 -58.5t45 -21.5q26 0 40 12q10 19 10 58l100 13q0 -82 -43 -125
t-114 -43q-63 0 -106.5 39.5t-51.5 106.5z" />
    <glyph glyph-name="afii10145" unicode="&#x40f;" horiz-adv-x="639" 
d="M78 625l124 9v-541h235v425l-11 107l124 9v-634h-177l-8 -149h-92l-8 149h-177v518z" />
    <glyph glyph-name="afii10017" unicode="&#x410;" horiz-adv-x="614" 
d="M222 625l153 11l205 -621v-15h-129l-16 96l-18 58l-223 4l-17 -58l-8 -100h-136v15l181 520zM299 512l-79 -267l169 7l-77 260h-13z" />
    <glyph glyph-name="afii10018" unicode="&#x411;" horiz-adv-x="577" 
d="M78 630h197l211 5l-14 -109l-185 9h-86v-162q44 20 84 30q18 3 36 3q94 0 150 -49.5t56 -144.5q0 -99 -62.5 -155.5t-163.5 -56.5h-213v520zM201 94h94q55 0 88 18q32 33 32 98q0 51 -28.5 77.5t-78.5 26.5q-61 0 -107 -28v-192z" />
    <glyph glyph-name="afii10019" unicode="&#x412;" horiz-adv-x="586" 
d="M78 630h211q105 0 158.5 -45t53.5 -123q0 -74 -60 -112v-7q91 -45 91 -148q0 -94 -65 -144.5t-170 -50.5h-209v518zM201 286v-195h100q52 0 85 17q32 30 32 82q0 96 -114 96h-103zM201 539v-168h90q40 0 70 9q27 24 27 74q0 85 -105 85h-82z" />
    <glyph glyph-name="afii10020" unicode="&#x413;" horiz-adv-x="531" 
d="M78 630h189l219 4l-15 -108l-182 11h-87v-537h-114v518z" />
    <glyph glyph-name="afii10021" unicode="&#x414;" horiz-adv-x="669" 
d="M155 630h405v-536l66 6l11 -12l-10 -237h-95l-8 149h-383v-149h-96l-18 192v50h25q94 0 110 343l4 82zM447 536h-173l-5 -97q-15 -285 -63 -346h241v443z" />
    <glyph glyph-name="afii10022" unicode="&#x415;" horiz-adv-x="555" 
d="M78 630h410l-12 -101l-191 9h-83v-170h68l165 9l-10 -101l-223 5v-189h85l209 11l-5 -103h-403v518z" />
    <glyph glyph-name="afii10024" unicode="&#x416;" horiz-adv-x="898" 
d="M384 625l124 9v-261h43q16 0 41 9q27 28 37 98q11 77 49.5 116.5t97.5 39.5q41 0 64 -10l-8 -97q-47 0 -69 -7q-23 -27 -36 -97q-14 -71 -53 -101q79 -169 195 -309v-15l-132 -5q-98 136 -149 282l-80 3v-280h-114v279l-73 -3q-73 -282 -224 -282q-42 0 -68 13l17 103
q26 -8 44 -8t35 6q69 70 108 218q-98 118 -153 285v15l138 7q7 -61 16 -106q36 -90 88 -155h72v145z" />
    <glyph glyph-name="afii10025" unicode="&#x417;" horiz-adv-x="555" 
d="M177 378l75 -5h20q27 0 54 9q29 27 29 76q0 42 -25 66.5t-76 24.5q-22 0 -38 -3q-43 -19 -88 -56l-68 85q89 68 199 68q102 0 155.5 -49t53.5 -129q0 -75 -57 -116v-7q90 -44 90 -147q0 -98 -67 -153t-176 -55q-132 0 -222 83l61 79q74 -69 154 -69q61 0 105 21
q30 30 30 84q0 102 -108 102h-20l-71 -9l-17 93z" />
    <glyph glyph-name="afii10026" unicode="&#x418;" horiz-adv-x="650" 
d="M78 625l122 9v-262l-6 -181h10l244 439h113v-630h-112v265l6 169h-10l-245 -437l-112 4v514z" />
    <glyph glyph-name="afii10027" unicode="&#x419;" horiz-adv-x="650" 
d="M78 625l122 9v-262l-6 -181h10l244 439h113v-630h-112v265l6 169h-10l-245 -437l-112 4v514zM167 859l100 19q3 -37 20 -58.5t45 -21.5q26 0 40 12q10 19 10 58l100 13q0 -82 -43 -125t-114 -43q-63 0 -106.5 39.5t-51.5 106.5z" />
    <glyph glyph-name="afii10028" unicode="&#x41a;" horiz-adv-x="625" 
d="M78 625l124 9v-261h36q30 0 57 8q31 27 43 99q24 157 159 157q36 0 63 -9l-11 -97q-50 0 -79 -8q-24 -32 -35 -98q-13 -73 -61 -106q75 -160 202 -304v-15l-134 -5q-93 119 -156 282l-84 3v-280h-114v518z" />
    <glyph glyph-name="afii10029" unicode="&#x41b;" horiz-adv-x="658" 
d="M175 630h394v-630h-113v536h-166l-5 -124q-10 -261 -63 -351q-42 -69 -135 -69q-45 0 -77 15l23 95q21 -7 43 -7q45 0 58 33q27 63 42 286l6 104z" />
    <glyph glyph-name="afii10030" unicode="&#x41c;" horiz-adv-x="773" 
d="M93 625l159 9l129 -483h12l130 479h153l43 -630h-122v126l-15 343h-13l-30 -130l-101 -339h-114l-102 344l-26 125h-12l-11 -303v-166h-123l43 507v118z" />
    <glyph glyph-name="afii10031" unicode="&#x41d;" horiz-adv-x="646" 
d="M78 625l124 9v-269l242 8v145l-11 107l125 9v-634h-114v269l-242 5v-274h-114v518z" />
    <glyph glyph-name="afii10032" unicode="&#x41e;" horiz-adv-x="646" 
d="M323 643q122 0 192 -85.5t70 -242.5q0 -154 -71 -241t-191 -87q-122 0 -192 85.5t-70 242.5q0 149 72 238.5t190 89.5zM225 513q-49 -81 -49 -198q0 -119 40 -175.5t109 -56.5q57 0 95 32q50 80 50 200q0 119 -40 175.5t-109 56.5q-58 0 -96 -34z" />
    <glyph glyph-name="afii10033" unicode="&#x41f;" horiz-adv-x="637" 
d="M78 630h470v-630h-113v535h-233v-535h-114v521z" />
    <glyph glyph-name="afii10034" unicode="&#x420;" horiz-adv-x="571" 
d="M78 630h217q100 0 164.5 -54.5t64.5 -154.5q0 -97 -58.5 -156.5t-151.5 -59.5q-66 0 -112 20v-225h-114v512zM202 536v-224q49 -13 96 -13q53 0 86 23q25 38 25 98q0 116 -121 116h-86z" />
    <glyph glyph-name="afii10035" unicode="&#x421;" horiz-adv-x="587" 
d="M519 574l-73 -100q-39 39 -96 69q-12 3 -33 3q-53 0 -94 -33q-47 -77 -47 -198q0 -115 41.5 -173t109.5 -58q85 0 146 70l63 -77q-81 -90 -215 -90q-128 0 -194 87.5t-66 240.5q0 151 72.5 239.5t192.5 88.5q119 0 193 -69z" />
    <glyph glyph-name="afii10036" unicode="&#x422;" horiz-adv-x="530" 
d="M36 635l162 -5h134l169 6l-5 -110l-141 9h-35v-535h-114v535h-34l-144 -8z" />
    <glyph glyph-name="afii10037" unicode="&#x423;" horiz-adv-x="567" 
d="M31 626l135 8l36 -125l94 -235h10l79 224l25 132h126v-15l-47 -135l-126 -291l-23 -79q-37 -123 -151 -123q-44 0 -77 15l15 94q27 -9 50 -9q24 0 46 8q14 22 24 60l-216 456v15z" />
    <glyph glyph-name="afii10038" unicode="&#x424;" horiz-adv-x="747" 
d="M307 645l124 9v-124q33 13 71 13q90 0 143 -58t53 -163t-56.5 -164.5t-142.5 -59.5q-41 0 -68 10v-108h-113v111q-30 -13 -71 -13q-92 0 -145 57.5t-53 161.5q0 105 57 165.5t143 60.5q40 0 69 -10v16zM262 188q30 0 56 12v242q-27 10 -57 10q-41 0 -71 -18
q-28 -44 -28 -116q0 -130 100 -130zM487 453q-31 0 -56 -11v-243q27 -10 56 -10q57 0 77 34.5t20 98.5q0 131 -97 131z" />
    <glyph glyph-name="afii10039" unicode="&#x425;" horiz-adv-x="577" 
d="M47 625l135 9l31 -90l79 -153h7l69 138l28 101h132v-16l-60 -120l-105 -170l181 -308v-16h-143l-31 89l-85 170h-8l-77 -161l-32 -98h-136v15l48 94l134 215l-167 286v15z" />
    <glyph glyph-name="afii10040" unicode="&#x426;" horiz-adv-x="654" 
d="M78 625l124 9v-541h222v425l-10 107l124 9v-540l69 6l12 -12l-11 -237h-95l-9 149h-416v518z" />
    <glyph glyph-name="afii10041" unicode="&#x427;" horiz-adv-x="613" 
d="M62 625l124 9v-210q0 -60 29.5 -91.5t85.5 -31.5q64 0 109 37v183l-10 104l124 9v-634h-114v246q-44 -24 -97 -38q-18 -2 -30 -2q-104 0 -157 55t-53 154v106z" />
    <glyph glyph-name="afii10042" unicode="&#x428;" horiz-adv-x="894" 
d="M78 625l124 9v-541h188v425l-10 107l124 9v-541h188v425l-10 107l124 9v-634h-718v518z" />
    <glyph glyph-name="afii10043" unicode="&#x429;" horiz-adv-x="921" 
d="M78 625l124 9v-541h188v425l-10 107l124 9v-541h188v425l-10 107l124 9v-540l69 6l11 -12l-10 -237h-95l-9 149h-684v518z" />
    <glyph glyph-name="afii10044" unicode="&#x42a;" horiz-adv-x="627" 
d="M29 634l136 -4h92v-244q45 23 85 34q14 2 23 2q100 0 157.5 -53t57.5 -153t-63.5 -158t-161.5 -58h-211v536l-28 1l-98 -6zM257 92h89q52 0 87 18q31 39 31 102q0 56 -28 86.5t-81 30.5q-52 0 -98 -29v-208z" />
    <glyph glyph-name="afii10045" unicode="&#x42b;" horiz-adv-x="812" 
d="M78 625l124 9v-248q40 21 87 34q14 2 23 2q100 0 157.5 -53.5t57.5 -152.5q0 -100 -63.5 -158t-161.5 -58h-214v518zM202 92h91q49 0 87 18q31 38 31 102q0 56 -28 86.5t-81 30.5q-56 0 -100 -29v-208zM598 625l125 9v-634h-114v521z" />
    <glyph glyph-name="afii10046" unicode="&#x42c;" horiz-adv-x="574" 
d="M78 625l124 9v-248q40 21 87 34q14 2 23 2q100 0 157.5 -53.5t57.5 -152.5q0 -100 -63.5 -158t-161.5 -58h-214v518zM202 92h91q49 0 87 18q31 39 31 102q0 56 -28 86.5t-81 30.5q-56 0 -100 -29v-208z" />
    <glyph glyph-name="afii10047" unicode="&#x42d;" horiz-adv-x="564" 
d="M110 478l-59 102q81 63 192 63q124 0 192 -86.5t68 -234.5q0 -153 -70 -244t-203 -91q-115 0 -190 72l60 81q61 -58 134 -58q59 0 105 32q40 64 47 165h-41l-150 -10l-12 96l8 9l156 -9h39q-7 88 -45 135.5t-104 47.5q-19 0 -34 -3q-45 -24 -93 -67z" />
    <glyph glyph-name="afii10048" unicode="&#x42e;" horiz-adv-x="850" 
d="M77 625l125 9v-273l92 8q12 127 76.5 200.5t168.5 73.5q119 0 184.5 -83.5t65.5 -244.5q0 -154 -66.5 -241t-183.5 -87q-110 0 -173 72.5t-73 207.5h-91v-267h-114v521zM449 518q-44 -79 -44 -203q0 -235 137 -235q46 0 84 30q49 81 49 205q0 234 -139 234q-52 0 -87 -31
z" />
    <glyph glyph-name="afii10049" unicode="&#x42f;" horiz-adv-x="604" 
d="M515 630v-630h-113v242q-40 -18 -98 -29q-33 -111 -86 -171q-44 -50 -112 -50q-39 0 -69 14l17 102q20 -8 44 -8q17 0 35 5q41 43 71 118q-60 19 -94 68t-34 124q0 100 63 157.5t163 57.5h213zM402 537h-91q-48 0 -88 -19q-32 -36 -32 -100q0 -112 109 -112q58 0 102 30
v201z" />
    <glyph glyph-name="afii10065" unicode="&#x430;" horiz-adv-x="499" 
d="M119 298l-61 82q86 61 199 61q81 0 123 -44t42 -126v-157l47 -74l-86 -55l-45 63q-41 -36 -95 -56q-18 -3 -44 -3q-70 0 -109.5 33.5t-39.5 93.5q0 53 37 88t104 44l122 17l3 10v15q0 29 -19.5 45.5t-51.5 16.5q-23 0 -49 -4q-46 -23 -77 -50zM313 123v62l-93 -6
q-28 -2 -49 -13q-11 -17 -11 -39q0 -51 60 -51q59 0 93 47z" />
    <glyph glyph-name="afii10066" unicode="&#x431;" horiz-adv-x="529" 
d="M392 691l92 -55l-63 -98l-142 -28q-63 -13 -96 -50q-23 -50 -24 -95h7q34 27 82 43q15 4 35 4q93 0 144 -53.5t51 -154.5q0 -104 -60 -159.5t-152 -55.5q-215 0 -215 282q0 292 211 335l82 17zM161 211q0 -63 28 -98.5t78 -35.5q42 0 74 23q26 40 26 109q0 54 -25.5 84.5
t-77.5 30.5q-49 0 -87 -33q-16 -36 -16 -80z" />
    <glyph glyph-name="afii10067" unicode="&#x432;" horiz-adv-x="480" 
d="M374 235v-7q63 -25 63 -98q0 -64 -45.5 -97t-115.5 -33h-208v330l-8 100h207q64 0 106 -31.5t42 -85.5t-41 -78zM176 348v-91h76q21 0 41 5q15 14 15 38q0 48 -60 48h-72zM176 180v-99h88q29 0 50 9q14 15 14 39q0 51 -67 51h-85z" />
    <glyph glyph-name="afii10068" unicode="&#x433;" horiz-adv-x="410" 
d="M60 430h217l104 4l-8 -99l-127 10h-68v-345h-110v329z" />
    <glyph glyph-name="afii10069" unicode="&#x434;" horiz-adv-x="547" 
d="M125 430h331v-345l53 4l8 -8v-43l-8 -148h-89l-7 110h-280v-110h-92l-15 157v38h26q34 0 58 59.5t24 143.5v52zM349 344h-118v-57q0 -135 -47 -202h165v259z" />
    <glyph glyph-name="afii10070" unicode="&#x435;" horiz-adv-x="500" 
d="M449 190l-202 -10l-85 3q1 -50 29.5 -77.5t77.5 -27.5q70 0 132 42l43 -79q-77 -52 -178 -52q-102 0 -158.5 60t-56.5 166q0 101 59 163.5t153 62.5q87 0 136.5 -57t49.5 -153v-41zM162 256l177 11q0 39 -22.5 62.5t-60.5 23.5q-44 0 -73 -24q-21 -30 -21 -73z" />
    <glyph glyph-name="afii10072" unicode="&#x436;" horiz-adv-x="711" 
d="M687 0l-116 -4q-66 80 -103 187h-56v-183h-108v183h-56q-15 -81 -57.5 -135.5t-100.5 -54.5q-41 0 -69 10l17 92q17 -7 35 -7q17 0 29 4q45 49 71 127q-73 97 -115 199l3 10l114 5q23 -89 70 -163q18 -5 42 -5h17v64l-8 98l116 9v-171h18q26 0 46 9q14 22 22 61
q10 50 41 75t74 25q37 0 58 -10l-9 -84q-37 0 -62 -8q-11 -17 -20 -50q-12 -43 -35 -63q53 -111 145 -209z" />
    <glyph glyph-name="afii10073" unicode="&#x437;" horiz-adv-x="449" 
d="M150 261l77 -5q23 0 39 6q12 15 12 40q0 55 -61 55q-20 0 -42 -5q-41 -17 -78 -45l-50 91q77 43 179 43q69 0 114.5 -35.5t45.5 -91.5t-41 -79v-7q62 -26 62 -99q0 -63 -52.5 -101.5t-136.5 -38.5q-116 0 -190 58l50 77q63 -52 138 -52q43 0 67 11q15 17 15 46
q0 52 -67 52l-74 -7l-11 81z" />
    <glyph glyph-name="afii10074" unicode="&#x438;" horiz-adv-x="527" 
d="M63 426l116 9v-134l-7 -140h7l186 270l90 -2v-429h-107v121l7 136h-7l-184 -262l-93 5v323z" />
    <glyph glyph-name="afii10075" unicode="&#x439;" horiz-adv-x="528" 
d="M63 426l116 9v-134l-7 -140h7l186 270l90 -2v-429h-107v121l7 136h-7l-184 -262l-93 5v323zM117 663l94 17q7 -77 56 -77q23 0 39 11q11 24 11 59l93 12q0 -80 -40.5 -121t-107.5 -41q-59 0 -98.5 37.5t-46.5 102.5z" />
    <glyph glyph-name="afii10076" unicode="&#x43a;" horiz-adv-x="495" 
d="M61 426l118 9v-170h18q35 0 54 9q19 20 27 54q23 109 125 109q31 0 55 -11l-10 -87q-38 0 -63 -8q-14 -22 -21 -47q-18 -47 -48 -67q51 -95 155 -207l-2 -10l-119 -4q-69 81 -116 188h-55v-184h-110v320z" />
    <glyph glyph-name="afii10077" unicode="&#x43b;" horiz-adv-x="552" 
d="M145 430h331v-430h-109v344h-114l-3 -55q-11 -202 -66 -262q-32 -37 -92 -37q-44 0 -73 15l23 87q20 -7 40 -7q55 0 68 181l5 66z" />
    <glyph glyph-name="afii10078" unicode="&#x43c;" horiz-adv-x="635" 
d="M78 426l147 7l86 -304h8l65 235l11 66h142l51 -430h-116l-2 99l-15 203h-8l-24 -93l-64 -204l-95 -6l-64 196l-27 107h-8l-15 -186v-116h-105l9 100l34 231z" />
    <glyph glyph-name="afii10079" unicode="&#x43d;" horiz-adv-x="529" 
d="M458 435v-435h-109v172l-169 3v-175h-109v336l-9 90l118 9v-181l169 7v75l-9 90z" />
    <glyph glyph-name="afii10080" unicode="&#x43e;" horiz-adv-x="528" 
d="M264 441q96 0 154.5 -61.5t58.5 -164.5q0 -99 -60 -162.5t-153 -63.5q-97 0 -155 61t-58 165q0 99 60 162.5t153 63.5zM264 79q44 0 74 23q28 45 28 113q0 69 -29.5 102t-72.5 33q-44 0 -75 -23q-27 -43 -27 -112t29.5 -102.5t72.5 -33.5z" />
    <glyph glyph-name="afii10081" unicode="&#x43f;" horiz-adv-x="524" 
d="M62 430h390v-430h-109v344h-163v-344h-109v330z" />
    <glyph glyph-name="afii10082" unicode="&#x440;" horiz-adv-x="535" 
d="M143 441l29 -62q45 38 100 59q21 3 41 3q80 0 125.5 -58.5t45.5 -163.5q0 -107 -57 -168.5t-144 -61.5q-52 0 -97 21v-120l10 -111h-120v530l-38 86zM186 287v-181q42 -29 91 -29q35 0 66 19q30 46 30 122q0 133 -86 133q-62 0 -101 -64z" />
    <glyph glyph-name="afii10083" unicode="&#x441;" horiz-adv-x="473" 
d="M427 389l-75 -85q-28 26 -68 45q-16 2 -27 2q-39 0 -69 -24q-26 -41 -26 -110q0 -66 30 -101.5t80 -35.5q59 0 112 44l48 -80q-71 -55 -169 -55q-99 0 -155.5 60.5t-56.5 163.5q0 106 60.5 167t157.5 61q95 0 158 -52z" />
    <glyph glyph-name="afii10084" unicode="&#x442;" horiz-adv-x="414" 
d="M27 434l147 -6h72l147 6l-4 -98l-132 9v-345h-107v345l-129 -9z" />
    <glyph glyph-name="afii10085" unicode="&#x443;" horiz-adv-x="484" 
d="M26 426l117 9l114 -346h7l42 132q27 82 32 209h120v-12q-18 -104 -62 -216l-79 -202l-14 -52q-19 -78 -61.5 -120.5t-119.5 -53.5l-26 107q45 2 86 16q21 28 26 74l-182 444v11z" />
    <glyph glyph-name="afii10086" unicode="&#x444;" horiz-adv-x="734" 
d="M304 631l116 9v-231q28 17 59 29q17 3 36 3q80 0 123.5 -59t43.5 -167q0 -103 -50.5 -164.5t-136.5 -61.5q-42 0 -75 19v-115l11 -114h-118v241q-24 -16 -55 -28q-21 -3 -40 -3q-81 0 -124 58.5t-43 166.5q0 103 51.5 165t135.5 62q39 0 75 -18v104zM494 352
q-44 0 -74 -36v-212q26 -27 64 -27q34 0 64 18q25 47 25 120q0 137 -79 137zM239 78q45 0 74 36v211q-25 27 -64 27q-31 0 -63 -19q-25 -47 -25 -119q0 -64 20.5 -100t57.5 -36z" />
    <glyph glyph-name="afii10087" unicode="&#x445;" horiz-adv-x="494" 
d="M166 435l83 -158h6l29 45q30 48 39 108h123v-12q-23 -69 -91 -150l-42 -49l151 -208v-11h-129l-91 164h-6l-41 -67q-25 -40 -37 -97h-130v11q26 58 84 129l66 82l-138 193v11z" />
    <glyph glyph-name="afii10088" unicode="&#x446;" horiz-adv-x="531" 
d="M62 426l118 9v-350h151v248l-8 93l118 9v-350l51 4l9 -8v-47l-8 -144h-88l-8 110h-326v335z" />
    <glyph glyph-name="afii10089" unicode="&#x447;" horiz-adv-x="500" 
d="M45 426l118 9v-147q0 -83 67 -83q58 0 89 51v73l-8 97l118 9v-435h-110v156q-41 -27 -77 -37q-18 -3 -35 -3q-76 0 -115 44t-39 122v47z" />
    <glyph glyph-name="afii10090" unicode="&#x448;" horiz-adv-x="721" 
d="M62 426l116 9v-350h129v245l-9 96l116 9v-350h128v245l-8 96l116 9v-435h-579v330z" />
    <glyph glyph-name="afii10091" unicode="&#x449;" horiz-adv-x="741" 
d="M62 426l116 9v-350h129v245l-9 96l116 9v-350h128v245l-8 96l116 9v-350l52 4l9 -8v-47l-8 -144h-88l-8 110h-536v330z" />
    <glyph glyph-name="afii10092" unicode="&#x44a;" horiz-adv-x="507" 
d="M116 0v346h-14l-89 -6l7 94l101 -4h103v-154q30 18 63 29q16 2 24 2q74 0 117.5 -41t43.5 -107q0 -67 -47.5 -113t-128.5 -46h-180zM224 85h66q29 0 53 8q22 20 22 64q0 30 -18 47t-51 17q-43 0 -72 -27v-109z" />
    <glyph glyph-name="afii10093" unicode="&#x44b;" horiz-adv-x="661" 
d="M475 426l115 9v-435h-107v329zM62 426l117 9v-159q31 19 61 29q16 2 25 2q74 0 117.5 -41t43.5 -107q0 -67 -48 -113t-129 -46h-178v326zM179 85h65q29 0 53 8q21 19 21 64q0 64 -68 64q-44 0 -71 -27v-109z" />
    <glyph glyph-name="afii10094" unicode="&#x44c;" horiz-adv-x="468" 
d="M62 426l117 9v-159q28 17 66 29q16 2 25 2q75 0 119 -41t44 -107q0 -67 -48 -113t-129 -46h-185v326zM179 85h70q30 0 54 8q21 19 21 64q0 64 -69 64q-47 0 -76 -27v-109z" />
    <glyph glyph-name="afii10095" unicode="&#x44d;" horiz-adv-x="472" 
d="M103 305l-53 92q71 44 159 44q92 0 151.5 -59t59.5 -167q0 -101 -59 -163.5t-156 -62.5q-103 0 -172 56l49 80q57 -48 120 -48q48 0 77 21q22 30 30 83l-137 -12l-10 85l4 6l81 -5h61q-7 47 -32.5 72.5t-62.5 25.5q-19 0 -32 -3q-36 -15 -78 -45z" />
    <glyph glyph-name="afii10096" unicode="&#x44e;" horiz-adv-x="692" 
d="M442 441q96 0 147.5 -60.5t51.5 -165.5q0 -101 -53.5 -163.5t-145.5 -62.5q-85 0 -134.5 48t-60.5 134l-68 3v-174h-108v335l-9 91l117 9v-177l69 5q12 81 63.5 129.5t130.5 48.5zM442 79q41 0 67 20q24 42 24 116q0 135 -91 135q-40 0 -67 -21q-25 -44 -25 -114
q0 -136 92 -136z" />
    <glyph glyph-name="afii10097" unicode="&#x44f;" horiz-adv-x="486" 
d="M414 430v-430h-108v153q-36 -14 -73 -20q-13 -63 -48 -102t-85 -39q-38 0 -71 10l19 88q21 -7 38 -7t30 4q20 23 32 53q-44 16 -69.5 51.5t-25.5 82.5q0 66 47.5 111t129.5 45h184zM306 344h-70q-34 0 -54 -8q-21 -20 -21 -61q0 -62 69 -62q45 0 76 20v111z" />
    <glyph glyph-name="afii10071" unicode="&#x451;" horiz-adv-x="500" 
d="M449 190l-202 -10l-85 3q1 -50 29.5 -77.5t77.5 -27.5q70 0 132 42l43 -79q-77 -52 -178 -52q-102 0 -158.5 60t-56.5 166q0 101 59 163.5t153 62.5q87 0 136.5 -57t49.5 -153v-41zM162 256l177 11q0 39 -22.5 62.5t-60.5 23.5q-44 0 -73 -24q-21 -30 -21 -73zM298 645
l113 7v-116l-117 4zM107 643l113 10v-117l-117 5z" />
    <glyph glyph-name="afii10099" unicode="&#x452;" horiz-adv-x="525" 
d="M62 653l119 9v-89l126 19l8 -7l-11 -88l-123 -10v-101q40 33 75 50q22 5 42 5q83 0 122.5 -44.5t39.5 -122.5v-244q0 -183 -181 -240l-44 98q47 9 85 27q32 35 32 85v22l-3 53v196q0 76 -66 76q-62 0 -102 -63v-284h-110v479l-57 -4l-8 8l15 77l48 3z" />
    <glyph glyph-name="afii10100" unicode="&#x453;" horiz-adv-x="410" 
d="M60 430h217l104 4l-8 -99l-127 10h-68v-345h-110v329zM174 555l41 54l70 124h13l73 -68l-128 -144z" />
    <glyph glyph-name="afii10101" unicode="&#x454;" horiz-adv-x="473" 
d="M427 389l-72 -84q-30 28 -71 45q-14 3 -27 3q-40 0 -70 -24q-21 -32 -25 -75h65l82 6l5 -6l-9 -86l-141 11q7 -50 35.5 -76t71.5 -26q58 0 113 44l48 -77q-71 -55 -169 -55q-99 0 -155.5 60.5t-56.5 163.5q0 106 60.5 167t157.5 61q95 0 158 -52z" />
    <glyph glyph-name="afii10102" unicode="&#x455;" horiz-adv-x="462" 
d="M43 37l52 90q40 -33 93 -51q20 -2 34 -2q48 0 78 14q12 14 12 34q0 22 -17.5 33.5t-71.5 17.5q-163 18 -163 133q0 60 46 97.5t131 37.5q93 0 170 -45l-53 -84q-37 26 -80 41q-16 3 -37 3q-39 0 -66 -12q-10 -11 -10 -29q0 -23 17.5 -35t61.5 -17q172 -20 172 -136
q0 -64 -48.5 -101t-136.5 -37q-108 0 -184 48z" />
    <glyph glyph-name="afii10103" unicode="&#x456;" horiz-adv-x="240" 
d="M56 426l119 9v-435h-110v332zM62 645l118 10v-119l-123 5z" />
    <glyph glyph-name="afii10104" unicode="&#x457;" horiz-adv-x="240" 
d="M56 426l119 9v-435h-110v332zM153 643l109 7v-116l-113 4zM-17 641l109 10v-117l-113 5z" />
    <glyph glyph-name="afii10105" unicode="&#x458;" horiz-adv-x="243" 
d="M59 426l119 9v-413q0 -92 -44.5 -151t-137.5 -89l-44 99q45 8 86 27q33 36 33 84v22l-3 53v265zM65 645l118 10v-119l-123 5z" />
    <glyph glyph-name="afii10106" unicode="&#x459;" horiz-adv-x="744" 
d="M145 430h322v-154q27 19 58 29q16 2 24 2q74 0 117 -40.5t43 -107.5q0 -68 -45 -113.5t-126 -45.5h-180v344h-106l-3 -55q-13 -204 -65 -262q-32 -37 -92 -37q-44 0 -73 15l23 87q20 -7 40 -7q55 0 68 181l5 66zM467 85h66q22 0 46 8q22 20 22 64q0 63 -65 63
q-43 0 -69 -26v-109z" />
    <glyph glyph-name="afii10107" unicode="&#x45a;" horiz-adv-x="723" 
d="M62 426l118 9v-180l157 6v75l-8 90l117 9v-159q27 19 58 29q16 2 24 2q74 0 117 -40.5t43 -107.5q0 -68 -45 -113.5t-126 -45.5h-180v172l-157 3v-175h-109v336zM446 85h66q22 0 46 8q22 20 22 64q0 63 -65 63q-42 0 -69 -27v-108z" />
    <glyph glyph-name="afii10108" unicode="&#x45b;" horiz-adv-x="525" 
d="M62 653l119 9v-89l126 19l8 -7l-11 -87l-123 -9v-103q40 33 75 50q22 5 42 5q83 0 122.5 -44.5t39.5 -122.5v-274h-111v271q0 76 -66 76q-62 0 -102 -63v-284h-110v481l-57 -4l-8 7l15 76l48 3z" />
    <glyph glyph-name="afii10109" unicode="&#x45c;" horiz-adv-x="495" 
d="M61 426l118 9v-170h18q35 0 54 9q19 20 27 54q23 109 125 109q31 0 55 -11l-10 -87q-38 0 -63 -8q-14 -22 -21 -47q-18 -47 -48 -67q51 -95 155 -207l-2 -10l-119 -4q-69 81 -116 188h-55v-184h-110v320zM197 555l41 54l70 124h13l73 -68l-128 -144z" />
    <glyph glyph-name="afii10110" unicode="&#x45e;" horiz-adv-x="484" 
d="M26 426l117 9l114 -346h7l42 132q27 82 32 209h120v-12q-18 -104 -62 -216l-79 -202l-14 -52q-19 -78 -61.5 -120.5t-119.5 -53.5l-26 107q45 2 86 16q21 28 26 74l-182 444v11zM104 663l94 17q7 -77 56 -77q23 0 39 11q11 24 11 59l93 12q0 -80 -40.5 -121t-107.5 -41
q-59 0 -98.5 37.5t-46.5 102.5z" />
    <glyph glyph-name="afii10193" unicode="&#x45f;" horiz-adv-x="517" 
d="M62 426l118 9v-350h157v249l-9 92l118 9v-435h-140l-5 -110h-85l-6 110h-139v335z" />
    <glyph glyph-name="afii10050" unicode="&#x490;" horiz-adv-x="527" 
d="M78 630h294l25 120l80 6l8 -8l-14 -222l-185 11h-84v-537h-114v518z" />
    <glyph glyph-name="afii10098" unicode="&#x491;" horiz-adv-x="418" 
d="M60 430h222l19 111l90 4l-11 -210l-126 10h-76v-345h-110v330z" />
    <glyph glyph-name="Wgrave" unicode="&#x1e80;" horiz-adv-x="835" 
d="M31 625l135 9l14 -138l50 -229l23 -146h12l74 369l19 134l125 6l82 -363l25 -146h11l69 369l7 140h127v-16l-30 -165l-88 -342l-17 -105l-155 -6l-87 434h-11l-55 -295l-14 -132l-169 -8l-147 615v15zM265 853l78 77h14l69 -104l56 -61l-71 -48z" />
    <glyph glyph-name="wgrave" unicode="&#x1e81;" horiz-adv-x="684" 
d="M26 426l114 9l77 -323h6l34 113q24 83 34 201l103 5l82 -319h6l34 132q21 82 27 186h115v-12q-19 -99 -61 -221l-67 -196l-115 -5l-65 257h-6l-69 -252l-121 -5l-128 419v11zM283 733h14l51 -89l62 -89l-68 -34l-136 144z" />
    <glyph glyph-name="Wacute" unicode="&#x1e82;" horiz-adv-x="835" 
d="M31 625l135 9l14 -138l50 -229l23 -146h12l74 369l19 134l125 6l82 -363l25 -146h11l69 369l7 140h127v-16l-30 -165l-88 -342l-17 -105l-155 -6l-87 434h-11l-55 -295l-14 -132l-169 -8l-147 615v15zM345 765l56 61l69 104h13l79 -77l-146 -136z" />
    <glyph glyph-name="wacute" unicode="&#x1e83;" horiz-adv-x="684" 
d="M26 426l114 9l77 -323h6l34 113q24 83 34 201l103 5l82 -319h6l34 132q21 82 27 186h115v-12q-19 -99 -61 -221l-67 -196l-115 -5l-65 257h-6l-69 -252l-121 -5l-128 419v11zM291 555l41 54l70 124h13l73 -68l-128 -144z" />
    <glyph glyph-name="Wdieresis" unicode="&#x1e84;" horiz-adv-x="835" 
d="M31 625l135 9l14 -138l50 -229l23 -146h12l74 369l19 134l125 6l82 -363l25 -146h11l69 369l7 140h127v-16l-30 -165l-88 -342l-17 -105l-155 -6l-87 434h-11l-55 -295l-14 -132l-169 -8l-147 615v15zM476 848l119 8v-124l-124 4zM258 846l120 11v-125l-124 4z" />
    <glyph glyph-name="wdieresis" unicode="&#x1e85;" horiz-adv-x="684" 
d="M26 426l114 9l77 -323h6l34 113q24 83 34 201l103 5l82 -319h6l34 132q21 82 27 186h115v-12q-19 -99 -61 -221l-67 -196l-115 -5l-65 257h-6l-69 -252l-121 -5l-128 419v11zM384 645l113 7v-116l-117 4zM193 643l113 10v-117l-117 5z" />
    <glyph glyph-name="Germandbls" unicode="&#x1e9e;" horiz-adv-x="629" 
d="M298 284l-23 56l114 180q-33 30 -88 30q-52 0 -84 -27q-20 -50 -20 -141v-382h-114v389q0 117 57 185.5t163 68.5q108 0 173 -52l56 -23l3 -13l-125 -171q78 -8 121.5 -62t43.5 -141q0 -80 -51.5 -136.5t-128.5 -56.5q-91 0 -158 51l57 90q34 -33 66 -47q12 -3 29 -3
q34 2 53 15q22 31 22 88q0 112 -97 112q-34 0 -69 -10z" />
    <glyph glyph-name="Ygrave" unicode="&#x1ef2;" horiz-adv-x="575" 
d="M31 625l134 9l36 -123l95 -230h11l81 209l28 140h127v-15l-47 -133l-143 -307v-175h-113v176l-209 435v14zM144 853l78 77h14l69 -104l56 -61l-71 -48z" />
    <glyph glyph-name="ygrave" unicode="&#x1ef3;" horiz-adv-x="484" 
d="M26 426l118 9l107 -348h7l43 134q28 90 37 209h120v-11q-17 -97 -64 -211l-130 -315l-8 -133l-107 5l-7 9q7 102 54 200l-170 441v11zM181 733h14l51 -89l62 -89l-68 -34l-136 144z" />
    <glyph glyph-name="endash" unicode="&#x2013;" horiz-adv-x="621" 
d="M89 265l455 7l-12 -97h-455z" />
    <glyph glyph-name="emdash" unicode="&#x2014;" horiz-adv-x="899" 
d="M141 265l628 7l-12 -97h-627z" />
    <glyph glyph-name="quoteleft" unicode="&#x2018;" horiz-adv-x="228" 
d="M169 478l-115 -6l-6 19l48 197l85 -16l-12 -106v-88z" />
    <glyph glyph-name="quoteright" unicode="&#x2019;" horiz-adv-x="228" 
d="M59 682l115 6l6 -19l-48 -197l-85 16l12 106v88z" />
    <glyph glyph-name="quotesinglbase" unicode="&#x201a;" horiz-adv-x="228" 
d="M59 102l115 6l6 -19l-48 -197l-85 16l12 106v88z" />
    <glyph glyph-name="quotedblleft" unicode="&#x201c;" horiz-adv-x="378" 
d="M319 478l-108 -6l-6 19l44 190l82 -16l-12 -99v-88zM168 478l-115 -6l-6 19l52 209l90 -17l-21 -117v-88z" />
    <glyph glyph-name="quotedblright" unicode="&#x201d;" horiz-adv-x="378" 
d="M59 682l108 6l6 -19l-44 -190l-82 16l12 99v88zM210 682l115 6l6 -19l-52 -209l-90 17l21 117v88z" />
    <glyph glyph-name="quotedblbase" unicode="&#x201e;" horiz-adv-x="378" 
d="M59 102l108 6l6 -19l-44 -190l-82 16l12 99v88zM210 102l115 6l6 -19l-52 -209l-90 17l21 117v88z" />
    <glyph glyph-name="dagger" unicode="&#x2020;" horiz-adv-x="420" 
d="M147 595l104 27l12 -8l-10 -152v-22h23l104 4l-9 -103l-91 8h-27v-27l9 -255v-145l-96 -142l-17 5l9 536v28h-25l-93 -7l9 101l88 -3h21v21z" />
    <glyph glyph-name="daggerdbl" unicode="&#x2021;" horiz-adv-x="420" 
d="M147 595l104 27l12 -8l-10 -152v-22h25l102 4l-9 -103l-89 8h-29v-28l2 -90h23l84 5l-9 -102l-71 8h-24l3 -140v-80l-95 -142l-17 5l9 329v28h-25l-76 -8l10 100l70 -3h21v118h-25l-93 -7l9 101l88 -3h21v21z" />
    <glyph glyph-name="bullet" unicode="&#x2022;" horiz-adv-x="349" 
d="M66 326l107 99l109 -100l-116 -107z" />
    <glyph glyph-name="ellipsis" unicode="&#x2026;" horiz-adv-x="644" 
d="M63 115l118 5v-120h-123zM469 115l118 5v-120h-123zM268 115l118 5v-120h-123z" />
    <glyph glyph-name="perthousand" unicode="&#x2030;" horiz-adv-x="1116" 
d="M197 620q70 0 110 -42.5t40 -109.5q0 -64 -42 -108t-108 -44q-70 0 -110 42.5t-40 109.5q0 64 42 108t108 44zM197 536q-25 0 -44 -14q-13 -19 -13 -54q0 -67 57 -67q25 0 44 13q13 19 13 54q0 68 -57 68zM576 291q70 0 110 -42.5t40 -109.5q0 -63 -42 -107t-108 -44
q-70 0 -110 42.5t-40 108.5q0 64 42 108t108 44zM576 207q-25 0 -44 -14q-13 -19 -13 -54q0 -67 57 -67q25 0 44 14q13 19 13 53q0 68 -57 68zM918 291q70 0 110 -42.5t40 -109.5q0 -63 -42 -107t-108 -44q-70 0 -110 42.5t-40 108.5q0 64 42 108t108 44zM918 207
q-25 0 -44 -14q-13 -19 -13 -54q0 -67 57 -67q25 0 44 14q13 19 13 53q0 68 -57 68zM565 624l83 -59l-230 -288l-220 -306l-91 46l238 298z" />
    <glyph glyph-name="guilsinglleft" unicode="&#x2039;" horiz-adv-x="297" 
d="M183 405l68 -55l-96 -119l96 -121l-79 -52l-129 156v25z" />
    <glyph glyph-name="guilsinglright" unicode="&#x203a;" horiz-adv-x="297" 
d="M46 345l78 52l129 -156v-25l-140 -166l-67 55l95 119z" />
    <glyph glyph-name="fraction" unicode="&#x2044;" horiz-adv-x="130" 
d="M246 655l80 -59l-229 -310l-225 -325l-81 58l237 319z" />
    <glyph glyph-name="zero.sup" unicode="&#x2070;" horiz-adv-x="385" 
d="M192 729q72 0 114 -44.5t42 -122.5q0 -74 -43 -120.5t-112 -46.5q-73 0 -114.5 44.5t-41.5 122.5q0 74 43 120.5t112 46.5zM191 651q-29 0 -48 -14q-15 -27 -15 -75q0 -89 66 -89q28 0 48 13q15 29 15 76q0 89 -66 89z" />
    <glyph glyph-name="four.sup" unicode="&#x2074;" horiz-adv-x="367" 
d="M150 729l91 -15q-25 -84 -77 -153l-32 -42h77l21 81l63 6v-86l44 4l-4 -75h-40v-49h-88v49h-165l-8 58l62 85q33 46 56 137z" />
    <glyph glyph-name="five.sup" unicode="&#x2075;" horiz-adv-x="345" 
d="M25 443l47 65q33 -26 59 -39q12 -3 27 -3q24 0 40 8q12 12 12 36q0 41 -48 41q-34 0 -53 -15l-56 13l20 175h100l116 4l-10 -82l-98 8h-39l-5 -47q21 6 45 6q55 0 85.5 -28t30.5 -78t-38.5 -81t-101.5 -31q-79 0 -133 48z" />
    <glyph glyph-name="six.sup" unicode="&#x2076;" horiz-adv-x="342" 
d="M260 730l15 -79q-60 -1 -117 -14q-25 -20 -33 -53q29 20 70 20q49 0 79 -27.5t30 -72.5q0 -46 -36 -77.5t-97 -31.5q-60 0 -96.5 36.5t-36.5 102.5q0 84 56.5 137.5t165.5 58.5zM176 543q-30 0 -50 -15q-3 -9 -3 -19q0 -23 13 -35t35 -12q19 0 39 10q9 14 9 33
q0 38 -43 38z" />
    <glyph glyph-name="seven.sup" unicode="&#x2077;" horiz-adv-x="331" 
d="M43 727l83 -3h162l5 -53l-40 -59q-51 -75 -62 -140v-72h-98q5 110 83 225l19 29h-54l-109 -9z" />
    <glyph glyph-name="eight.sup" unicode="&#x2078;" horiz-adv-x="354" 
d="M177 729q55 0 87.5 -25.5t32.5 -66.5q0 -38 -29 -61q49 -27 49 -76q0 -48 -37.5 -76.5t-101.5 -28.5q-68 0 -104.5 29t-36.5 77q0 47 39 74q-21 24 -21 60q0 41 33 67.5t89 26.5zM174 535q-22 2 -38 6q-14 -11 -14 -36q0 -42 56 -42q24 0 43 7q9 10 9 29q0 16 -12.5 24.5
t-43.5 11.5zM184 599q3 -1 9.5 -2t9.5 -1q12 15 12 34q0 15 -10.5 24t-27.5 9q-19 0 -37 -7q-6 -10 -6 -23q0 -30 50 -34z" />
    <glyph glyph-name="nine.sup" unicode="&#x2079;" horiz-adv-x="342" 
d="M74 393l-8 77q71 3 116 17q30 20 34 52q-28 -21 -70 -21q-49 0 -79 27.5t-30 75.5q0 46 36.5 77t97.5 31q62 0 97 -38t35 -108q0 -85 -59.5 -137t-169.5 -53zM166 579q29 0 49 15q3 9 3 21q0 20 -13 33.5t-34 13.5q-22 0 -40 -10q-10 -15 -10 -34q0 -39 45 -39z" />
    <glyph glyph-name="parenleft.sup" unicode="&#x207d;" horiz-adv-x="191" 
d="M123 768l61 -41q-73 -63 -73 -166q0 -97 73 -167l-65 -40q-96 72 -96 207q0 130 100 207z" />
    <glyph glyph-name="parenright.sup" unicode="&#x207e;" horiz-adv-x="191" 
d="M67 354l-60 40q73 64 73 166q0 95 -73 168l65 40q95 -73 95 -208q0 -131 -100 -206z" />
    <glyph glyph-name="zero.inf" unicode="&#x2080;" horiz-adv-x="385" 
d="M192 269q72 0 114 -44.5t42 -122.5q0 -74 -43 -120.5t-112 -46.5q-73 0 -114.5 44.5t-41.5 122.5q0 74 43 120.5t112 46.5zM191 191q-29 0 -48 -14q-15 -27 -15 -75q0 -89 66 -89q28 0 48 13q15 29 15 76q0 89 -66 89z" />
    <glyph glyph-name="one.inf" unicode="&#x2081;" horiz-adv-x="279" 
d="M140 266l66 -6l-5 -79v-241h-90v189l-50 -20l-29 60l64 43z" />
    <glyph glyph-name="two.inf" unicode="&#x2082;" horiz-adv-x="335" 
d="M49 -60l-12 60l122 84q24 15 40 35q6 17 6 37q0 38 -44 38q-16 0 -29 -5q-30 -15 -53 -38l-47 73q58 45 135 45q58 0 92.5 -29.5t34.5 -77.5q0 -79 -83 -125l-49 -27h43l89 8l-8 -84l-108 6h-129z" />
    <glyph glyph-name="three.inf" unicode="&#x2083;" horiz-adv-x="347" 
d="M112 136l48 -2h12q15 0 23 5q8 10 8 27q0 32 -41 32q-9 0 -21 -2q-29 -11 -55 -30l-42 64q55 39 125 39q59 0 91 -24.5t32 -67.5q0 -42 -25 -62q42 -20 42 -71t-39 -80t-107 -29q-77 0 -132 46l45 63q35 -24 59 -34q13 -3 31 -3q23 0 42 7q10 11 10 29q0 32 -34 32h-11
l-51 -5z" />
    <glyph glyph-name="four.inf" unicode="&#x2084;" horiz-adv-x="367" 
d="M150 269l91 -15q-25 -84 -77 -153l-32 -42h77l21 81l63 6v-86l44 4l-4 -75h-40v-49h-88v49h-165l-8 58l62 85q33 46 56 137z" />
    <glyph glyph-name="five.inf" unicode="&#x2085;" horiz-adv-x="345" 
d="M25 -17l47 65q33 -26 59 -39q12 -3 27 -3q24 0 40 8q12 12 12 36q0 41 -48 41q-34 0 -53 -15l-56 13l20 175h100l116 4l-10 -82l-98 8h-39l-5 -47q21 6 45 6q55 0 85.5 -28t30.5 -78t-38.5 -81t-101.5 -31q-79 0 -133 48z" />
    <glyph glyph-name="six.inf" unicode="&#x2086;" horiz-adv-x="342" 
d="M260 270l15 -79q-60 -1 -117 -14q-25 -20 -33 -53q29 20 70 20q49 0 79 -27.5t30 -72.5q0 -46 -36 -77.5t-97 -31.5q-60 0 -96.5 36.5t-36.5 102.5q0 84 56.5 137.5t165.5 58.5zM176 83q-30 0 -50 -15q-3 -9 -3 -19q0 -23 13 -35t35 -12q19 0 39 10q9 14 9 33
q0 38 -43 38z" />
    <glyph glyph-name="seven.inf" unicode="&#x2087;" horiz-adv-x="331" 
d="M43 267l83 -3h162l5 -53l-40 -59q-51 -75 -62 -140v-72h-98q5 110 83 225l19 29h-54l-109 -9z" />
    <glyph glyph-name="eight.inf" unicode="&#x2088;" horiz-adv-x="354" 
d="M177 269q55 0 87.5 -25.5t32.5 -66.5q0 -38 -29 -61q49 -27 49 -76q0 -48 -37.5 -76.5t-101.5 -28.5q-68 0 -104.5 29t-36.5 77q0 47 39 74q-21 24 -21 60q0 41 33 67.5t89 26.5zM174 75q-22 2 -38 6q-14 -11 -14 -36q0 -42 56 -42q24 0 43 7q9 10 9 29q0 16 -12.5 24.5
t-43.5 11.5zM184 139q3 -1 9.5 -2t9.5 -1q12 15 12 34q0 15 -10.5 24t-27.5 9q-19 0 -37 -7q-6 -10 -6 -23q0 -30 50 -34z" />
    <glyph glyph-name="nine.inf" unicode="&#x2089;" horiz-adv-x="342" 
d="M74 -67l-8 77q71 3 116 17q30 20 34 52q-28 -21 -70 -21q-49 0 -79 27.5t-30 75.5q0 46 36.5 77t97.5 31q62 0 97 -38t35 -108q0 -85 -59.5 -137t-169.5 -53zM166 119q29 0 49 15q3 9 3 21q0 20 -13 33.5t-34 13.5q-22 0 -40 -10q-10 -15 -10 -34q0 -39 45 -39z" />
    <glyph glyph-name="parenleft.inf" unicode="&#x208d;" horiz-adv-x="191" 
d="M123 308l61 -41q-73 -63 -73 -166q0 -97 73 -167l-65 -40q-96 72 -96 207q0 130 100 207z" />
    <glyph glyph-name="parenright.inf" unicode="&#x208e;" horiz-adv-x="191" 
d="M67 -106l-60 40q73 64 73 166q0 95 -73 168l65 40q95 -73 95 -208q0 -131 -100 -206z" />
    <glyph glyph-name="Euro" unicode="&#x20ac;" horiz-adv-x="590" 
d="M38 275h336l-10 -94l-133 10h-16q15 -53 50.5 -80.5t83.5 -27.5q85 0 138 72l63 -73q-78 -95 -207 -95q-197 0 -243 204h-74zM51 414h51q24 99 88.5 154t158.5 55q116 0 186 -67l-72 -95q-35 37 -88 64q-22 4 -37 4q-52 0 -92 -31q-23 -38 -34 -84h19l159 10l-10 -94
h-341z" />
    <glyph glyph-name="rur" unicode="&#x20bd;" horiz-adv-x="576" 
d="M94 610h211q104 0 165 -48.5t61 -146.5q0 -93 -60.5 -141.5t-166.5 -48.5q-47 0 -86 7v-65h156l-12 -95l-144 7v-79h-113v79l-72 -3l9 91h63v69h-65l7 96l58 -3v163zM218 516v-195q38 -5 77 -5q66 0 98 19q23 30 23 79q0 54 -28.5 78t-86.5 24h-83z" />
    <glyph glyph-name="afii61352" unicode="&#x2116;" horiz-adv-x="962" 
d="M78 625l115 9l254 -456h9l-8 204v125l-13 118l120 9v-631l-105 -9l-254 452h-9l8 -247v-199h-107v515zM780 531q66 0 103.5 -40.5t37.5 -101.5q0 -59 -39.5 -100.5t-100.5 -41.5q-66 0 -103.5 40.5t-37.5 101.5q0 59 39.5 100.5t100.5 41.5zM657 182l259 5l-9 -89l-262 5
zM780 451q-22 0 -38 -10q-13 -19 -13 -52q0 -29 14 -45.5t38 -16.5q22 0 38 10q13 19 13 52q0 29 -14 45.5t-38 16.5z" />
    <glyph glyph-name="trademark" unicode="&#x2122;" horiz-adv-x="749" 
d="M698 321h-85l-17 199l-74 -199h-61l-72 198l-10 -198h-85l24 228l-97 7v-235h-85v235l-99 -10l7 84h381l72 -184l62 184h106z" />
    <glyph glyph-name="onethird" unicode="&#x2153;" horiz-adv-x="768" 
d="M140 634l66 -6l-5 -79v-241h-90v189l-50 -20l-29 60l64 43zM525 655l80 -59l-229 -310l-225 -325l-81 58l237 319zM533 196l48 -2h12q15 0 23 5q8 10 8 27q0 32 -41 32q-9 0 -21 -2q-29 -11 -55 -30l-42 64q55 39 125 39q59 0 91 -24.5t32 -67.5q0 -42 -25 -62
q42 -20 42 -71t-39 -80t-107 -29q-77 0 -132 46l45 63q35 -24 59 -34q14 -3 31 -3q23 0 42 7q10 11 10 29q0 32 -34 32h-11l-51 -5z" />
    <glyph glyph-name="twothirds" unicode="&#x2154;" horiz-adv-x="833" 
d="M49 308l-12 60l122 84q24 15 40 35q6 17 6 37q0 38 -44 38q-16 0 -29 -5q-30 -15 -53 -38l-47 73q58 45 135 45q58 0 92.5 -29.5t34.5 -77.5q0 -79 -83 -125l-49 -27h43l89 8l-8 -84l-108 6h-129zM594 655l80 -59l-229 -310l-225 -325l-81 58l237 319zM598 196l48 -2h12
q15 0 23 5q8 10 8 27q0 32 -41 32q-9 0 -21 -2q-29 -11 -55 -30l-42 64q55 39 125 39q59 0 91 -24.5t32 -67.5q0 -42 -25 -62q42 -20 42 -71t-39 -80t-107 -29q-77 0 -132 46l45 63q35 -24 59 -34q13 -3 31 -3q23 0 42 7q10 11 10 29q0 32 -34 32h-11l-51 -5z" />
    <glyph glyph-name="oneeighth" unicode="&#x215b;" horiz-adv-x="752" 
d="M140 634l66 -6l-5 -79v-241h-90v189l-50 -20l-29 60l64 43zM526 655l80 -59l-229 -310l-225 -325l-81 58l237 319zM574 329q55 0 87.5 -25.5t32.5 -66.5q0 -38 -29 -61q49 -27 49 -76q0 -48 -37.5 -76.5t-101.5 -28.5q-68 0 -104.5 29t-36.5 77q0 47 39 74q-21 24 -21 60
q0 41 33 67.5t89 26.5zM571 135q-22 2 -38 6q-14 -11 -14 -36q0 -42 56 -42q24 0 43 7q9 10 9 29q0 16 -12.5 24.5t-43.5 11.5zM581 199q3 -1 9.5 -2t9.5 -1q12 15 12 34q0 15 -10.5 24t-27.5 9q-20 0 -37 -7q-6 -10 -6 -23q0 -30 50 -34z" />
    <glyph glyph-name="threeeighths" unicode="&#x215c;" horiz-adv-x="824" 
d="M112 504l48 -2h12q15 0 23 5q8 10 8 27q0 32 -41 32q-9 0 -21 -2q-29 -11 -55 -30l-42 64q55 39 125 39q59 0 91 -24.5t32 -67.5q0 -42 -25 -62q42 -20 42 -71t-39 -80t-107 -29q-77 0 -132 46l45 63q35 -24 59 -34q13 -3 31 -3q23 0 42 7q10 11 10 29q0 32 -34 32h-11
l-51 -5zM598 655l80 -59l-229 -310l-225 -325l-81 58l237 319zM647 329q55 0 87.5 -25.5t32.5 -66.5q0 -38 -29 -61q49 -27 49 -76q0 -48 -37.5 -76.5t-101.5 -28.5q-68 0 -104.5 29t-36.5 77q0 47 39 74q-21 24 -21 60q0 41 33 67.5t89 26.5zM644 135q-22 2 -38 6
q-14 -11 -14 -36q0 -42 56 -42q24 0 43 7q9 10 9 29q0 16 -12.5 24.5t-43.5 11.5zM654 199q3 -1 9.5 -2t9.5 -1q12 15 12 34q0 15 -10.5 24t-27.5 9q-19 0 -37 -7q-6 -10 -6 -23q0 -30 50 -34z" />
    <glyph glyph-name="fiveeighths" unicode="&#x215d;" horiz-adv-x="807" 
d="M25 351l47 65q33 -26 59 -39q12 -3 27 -3q24 0 40 8q12 12 12 36q0 41 -48 41q-34 0 -53 -15l-56 13l20 175h100l116 4l-10 -82l-98 8h-39l-5 -47q21 6 45 6q55 0 85.5 -28t30.5 -78t-38.5 -81t-101.5 -31q-79 0 -133 48zM581 655l80 -59l-229 -310l-225 -325l-81 58
l237 319zM630 329q55 0 87.5 -25.5t32.5 -66.5q0 -38 -29 -61q49 -27 49 -76q0 -48 -37.5 -76.5t-101.5 -28.5q-68 0 -104.5 29t-36.5 77q0 47 39 74q-21 24 -21 60q0 41 33 67.5t89 26.5zM627 135q-22 2 -38 6q-14 -11 -14 -36q0 -42 56 -42q24 0 43 7q9 10 9 29
q0 16 -12.5 24.5t-43.5 11.5zM637 199q3 -1 9.5 -2t9.5 -1q12 15 12 34q0 15 -10.5 24t-27.5 9q-20 0 -37 -7q-6 -10 -6 -23q0 -30 50 -34z" />
    <glyph glyph-name="seveneighths" unicode="&#x215e;" horiz-adv-x="761" 
d="M533 655l80 -59l-229 -310l-225 -325l-81 58l237 319zM583 329q55 0 87.5 -25.5t32.5 -66.5q0 -38 -29 -61q49 -27 49 -76q0 -48 -37.5 -76.5t-101.5 -28.5q-68 0 -104.5 29t-36.5 77q0 47 39 74q-21 24 -21 60q0 41 33 67.5t89 26.5zM580 135q-22 2 -38 6
q-14 -11 -14 -36q0 -42 56 -42q24 0 43 7q9 10 9 29q0 16 -12.5 24.5t-43.5 11.5zM590 199q3 -1 9.5 -2t9.5 -1q12 15 12 34q0 15 -10.5 24t-27.5 9q-19 0 -37 -7q-6 -10 -6 -23q0 -30 50 -34zM43 635l83 -3h162l5 -53l-40 -59q-51 -75 -62 -140v-72h-98q5 110 83 225l19 29
h-54l-109 -9z" />
    <glyph glyph-name="minus" unicode="&#x2212;" horiz-adv-x="469" 
d="M70 365l342 6l-12 -99h-343z" />
    <glyph glyph-name="approxequal" unicode="&#x2248;" horiz-adv-x="469" 
d="M94 173l-46 71q45 37 90 60q20 4 31 4q34 0 58 -17.5t43.5 -35t40.5 -17.5q31 14 61 36l47 -70q-44 -41 -91 -62q-14 -3 -31 -3q-26 0 -47.5 11t-33 24.5t-27.5 24.5t-34 11q-32 -15 -61 -37zM102 362l-46 71q47 38 88 58q13 4 31 4q26 0 46.5 -11t31 -24t26.5 -24
t33 -11q31 14 61 36l47 -70q-42 -40 -91 -61q-18 -4 -31 -4q-33 0 -56 18t-41 35.5t-40 17.5q-33 -16 -59 -35z" />
    <glyph glyph-name="notequal" unicode="&#x2260;" horiz-adv-x="473" 
d="M72 453l142 4l23 104l98 -20l-20 -80l101 3l-5 -104l-120 1l-21 -86l136 2l-5 -104l-155 4l-23 -95l-87 14l18 84l-97 3l6 90l112 1l19 88l-127 1z" />
    <glyph glyph-name="lessequal" unicode="&#x2264;" horiz-adv-x="354" 
d="M245 613l70 -56l-145 -150l147 -127l-79 -64l-194 166v28zM84 276l206 -185l-81 -61l-171 168z" />
    <glyph glyph-name="greaterequal" unicode="&#x2265;" horiz-adv-x="354" 
d="M39 551l72 62l199 -203v-28l-209 -174l-64 68l145 125zM64 91l206 185l46 -78l-182 -166z" />
    <glyph glyph-name="dblgrave" horiz-adv-x="386" 
d="M202 667l85 58h13l28 -95l33 -81l-68 -25zM23 637l72 72h13l114 -156l-62 -34l-52 51z" />
    <glyph glyph-name="commaaccent" horiz-adv-x="163" 
d="M32 -76l108 6l6 -20l-55 -173l-75 18l16 99v70z" />
    <glyph glyph-name="dieresisi" horiz-adv-x="313" 
d="M189 645l109 7v-116l-113 4zM19 643l109 10v-117l-113 5z" />
    <glyph glyph-name="macroni" horiz-adv-x="265" 
d="M33 631l105 6l109 16l9 -8l-11 -96l-220 -5l-9 7z" />
    <glyph glyph-name="Dieresisi" horiz-adv-x="342" 
d="M210 849l116 7v-124l-122 4zM20 846l117 12v-126l-121 4z" />
    <glyph glyph-name="Macroni" horiz-adv-x="335" 
d="M33 833l139 8l125 16l9 -8l-12 -103l-269 -7l-9 7z" />
    <glyph glyph-name="Acute" horiz-adv-x="249" 
d="M16 765l56 61l69 104h13l79 -77l-146 -136z" />
    <glyph glyph-name="Breve" horiz-adv-x="349" 
d="M17 859l100 19q3 -37 20 -58.5t45 -21.5q26 0 40 12q10 19 10 58l100 13q0 -82 -43 -125t-114 -43q-63 0 -106.5 39.5t-51.5 106.5z" />
    <glyph glyph-name="Caron" horiz-adv-x="376" 
d="M93 890l100 -81l98 79l69 -52v-15l-81 -55l-78 -66h-23l-76 61l-86 52v15z" />
    <glyph glyph-name="Cedilla" horiz-adv-x="243" 
d="M150 0v-55q74 -26 74 -110q0 -65 -50 -108.5t-148 -55.5l-9 8l15 93q50 1 89 21q9 15 9 37q0 44 -44 44q-17 0 -33 -7l-12 16l25 117h84z" />
    <glyph glyph-name="Commaaccent" horiz-adv-x="168" 
d="M32 -75l114 5l6 -19l-56 -195l-80 18l16 108v83z" />
    <glyph glyph-name="Circumflex" horiz-adv-x="376" 
d="M176 897h24l76 -60l84 -52v-15l-77 -64l-99 83l-99 -80l-69 53v14l82 56z" />
    <glyph glyph-name="Dieresis" horiz-adv-x="377" 
d="M238 848l119 8v-124l-124 4zM20 846l120 11v-125l-124 4z" />
    <glyph glyph-name="Dotaccent" horiz-adv-x="161" 
d="M20 849l125 11v-131l-129 4z" />
    <glyph glyph-name="Hungarumlaut" horiz-adv-x="407" 
d="M16 751l40 78l34 98h14l87 -60l-106 -152zM171 752l123 152h14l75 -78l-86 -64l-64 -57z" />
    <glyph glyph-name="Grave" horiz-adv-x="249" 
d="M16 853l78 77h14l69 -104l56 -61l-71 -48z" />
    <glyph glyph-name="Dblgrave" horiz-adv-x="407" 
d="M216 867l87 60h13l35 -98l40 -78l-70 -36zM23 826l76 78h13l123 -152l-62 -47l-64 58z" />
    <glyph glyph-name="Macron" horiz-adv-x="387" 
d="M33 833l196 7l133 17l9 -8l-12 -102l-334 -8l-9 7z" />
    <glyph glyph-name="Ogonek" horiz-adv-x="263" 
d="M192 46l25 -46q-35 0 -68 -14q-14 -22 -14 -50q0 -60 87 -60l6 -9l-34 -87q-74 0 -117 38t-43 99q0 47 26.5 86.5t79.5 60.5z" />
    <glyph glyph-name="Ring" horiz-adv-x="300" 
d="M150 957q61 0 97 -36.5t36 -91.5q0 -51 -37.5 -88.5t-95.5 -37.5q-62 0 -97.5 35.5t-35.5 90.5q0 52 37.5 90t95.5 38zM150 876q-22 0 -36 -9q-9 -15 -9 -37q0 -21 12.5 -34t32.5 -13t36 9q9 14 9 38q0 21 -12.5 33.5t-32.5 12.5z" />
    <glyph glyph-name="Tilde" horiz-adv-x="373" 
d="M58 751l-42 66q45 40 82 57q14 2 23 2q37 0 77.5 -27.5t61.5 -27.5q26 10 56 30l41 -68q-35 -35 -84 -57q-14 -2 -23 -2q-37 0 -77 27.5t-61 27.5q-29 -11 -54 -28z" />
    <glyph glyph-name="tildei" horiz-adv-x="330" 
d="M54 547l-38 63q36 36 76 52q9 3 21 3q31 0 61 -23t43 -27q24 9 50 29l37 -65q-36 -34 -77 -52q-21 -3 -22 -3q-31 0 -60 23t-43 27q-24 -6 -48 -27z" />
    <glyph glyph-name="Tildei" horiz-adv-x="343" 
d="M58 751l-42 66q45 39 81 57q14 2 22 2q33 0 63.5 -24t48.5 -28q25 7 55 26l41 -67q-34 -34 -83 -57q-12 -2 -22 -2q-34 0 -65 24t-48 28q-25 -7 -51 -25z" />
    <glyph glyph-name="gjlogo" horiz-adv-x="1150" 
d="M223 468v-344q0 -23 -7 -40l2 -1q23 31 25 88l-1 35v287q0 6 3 9l19 22q2 2 4 2q4 0 4 -5v-69q0 -9 8 -9l70 5q12 -3 12 -18q0 -2 -1 -3q-6 -6 -13 -6h-2l-65 2q-8 0 -8 -9v-222q0 -105 -60 -146l-43 -30q-30 -21 -71 -21q-40 3 -41 29q6 17 22 24h2q3 1 4 1q9 0 28 -10
t30 -10q20 0 33 18q15 24 17 79v9q0 11 -1 27.5t-1 23.5v224q0 7 -8 10q-12 4 -28 4q-30 0 -45 -18q-17 -16 -17 -47q0 -36 18 -57q24 -26 61 -27l1 -5q-25 -11 -52 -11q-29 8 -48 32.5t-19 54.5q0 38 37 70q32 28 65 28q6 0 15.5 -0.5t14.5 -0.5q9 0 15 8l16 20q4 0 5 -3z
M461 315l-8 -14q-13 7 -28 7q-35 0 -35 -34q0 -14 9.5 -23t25.5 -9q10 0 19 3v21l-22 2v14h40v-49q-16 -8 -39 -8t-37.5 13.5t-14.5 35.5t15 36t39 14q21 0 36 -9zM515 323v-80h42v-17h-61v97h19zM650 323v-17h-41v-22h40v-17h-40v-24h45v-17h-64v97h60zM699 323l60 -67v67
h18v-97h-16l-59 68v-68h-18v97h15zM841 323v-92q0 -31 -36 -36l-3 16q20 2 20 21v91h19zM928 324l43 -98h-21l-30 72l-30 -72h-20l43 98h15zM1012 323l60 -67v67h18v-97h-16l-59 68v-68h-18v97h15z" />
    <glyph glyph-name="zero.os" horiz-adv-x="535" 
d="M267 461q100 0 157.5 -65t57.5 -171q0 -105 -60.5 -170.5t-154.5 -65.5q-100 0 -157.5 64.5t-57.5 171.5q0 103 61 169.5t154 66.5zM267 370q-43 0 -77 -24q-29 -46 -29 -121q0 -73 29 -109.5t77 -36.5q45 0 77 24q29 45 29 122q0 73 -29 109t-77 36z" />
    <glyph glyph-name="zero.slash.os" horiz-adv-x="537" 
d="M267 461q100 0 157.5 -65t57.5 -171q0 -105 -60.5 -170.5t-154.5 -65.5q-100 0 -157.5 64.5t-57.5 171.5q0 103 61 169.5t154 66.5zM267 370q-43 0 -77 -24q-29 -46 -29 -121q0 -24 2 -35l173 153q-27 27 -69 27zM373 225q0 12 -2 30l-171 -151q26 -25 67 -25q45 0 77 24
q29 45 29 122z" />
    <glyph glyph-name="one.os" horiz-adv-x="326" 
d="M181 456l78 -9l-7 -133v-314h-109v290l-79 -44l-44 72l91 64z" />
    <glyph glyph-name="two.os" horiz-adv-x="476" 
d="M69 0l-11 77l190 126q33 21 50 42q10 23 10 55q0 33 -19.5 51.5t-54.5 18.5q-29 0 -49 -7q-33 -20 -67 -58l-72 80q79 76 193 76q84 0 130 -40t46 -111q0 -110 -117 -172l-96 -51h30l177 11l10 -11l-10 -96l-147 9h-193z" />
    <glyph glyph-name="three.os" horiz-adv-x="517" 
d="M177 224l65 -6h18q22 0 37 6q20 23 20 66q0 79 -77 79q-24 0 -38 -5q-39 -22 -76 -59l-70 85q80 71 188 71q86 0 132.5 -42.5t46.5 -118.5q0 -73 -53 -109v-7q83 -36 83 -136q0 -86 -59 -139.5t-157 -53.5q-125 0 -209 84l75 85q46 -50 88 -71q17 -5 50 -5q46 0 80 17
q25 29 25 81q0 84 -76 84h-17l-68 -9l-18 93z" />
    <glyph glyph-name="four.os" horiz-adv-x="568" 
d="M262 467l110 -8l8 -13q-34 -155 -133 -272l-74 -87h165v42l17 85l90 10v-137l81 6l-12 -93h-69v-134h-107v134h-275l-11 81l109 139q79 100 101 247z" />
    <glyph glyph-name="five.os" horiz-adv-x="499" 
d="M244 159q-56 0 -97 -30l-66 20l21 301h184l137 9l9 -11l-14 -103l-150 10h-75l-11 -122q35 13 79 13q87 0 135.5 -50.5t48.5 -136.5q0 -93 -58 -148.5t-156 -55.5q-127 0 -208 85l76 85q44 -51 87 -73q23 -5 46 -5q45 0 79 20q26 34 26 93q0 47 -24 73t-69 26z" />
    <glyph glyph-name="six.os" horiz-adv-x="525" 
d="M405 596l21 -105q-107 -1 -188 -34q-57 -44 -69 -127q38 26 87 41q16 3 36 3q86 0 131.5 -50.5t45.5 -136.5q0 -85 -57 -142t-149 -57q-97 0 -152 66t-55 189q0 155 92.5 249.5t256.5 103.5zM168 247q-4 -26 -4 -42q0 -56 26.5 -90.5t71.5 -34.5q48 0 78 21q23 34 23 85
q0 100 -94 100q-57 0 -101 -39z" />
    <glyph glyph-name="seven.os" horiz-adv-x="471" 
d="M63 456l117 -7h237l6 -69l-77 -131q-67 -114 -85 -265l-3 -118h-117q0 208 111 403l52 92h-71l-178 -12l-9 12z" />
    <glyph glyph-name="eight.os" horiz-adv-x="536" 
d="M268 593q85 0 136.5 -45t51.5 -118t-49 -119q81 -49 81 -139q0 -86 -59 -135t-161 -49q-104 0 -162 51t-58 135q0 96 73 148q-40 45 -40 108q0 70 52 116.5t135 46.5zM257 260q-36 5 -65 16q-36 -33 -36 -95q0 -46 30 -74t82 -28q51 0 87 18q24 30 24 72t-27 62.5
t-95 28.5zM279 352q28 -4 41 -7q30 30 30 82q0 37 -21.5 57t-60.5 20q-42 0 -66 -17q-14 -21 -14 -53q0 -35 21 -55.5t70 -26.5z" />
    <glyph glyph-name="nine.os" horiz-adv-x="525" 
d="M116 -148l-14 106q114 3 189 33q50 47 63 128q-38 -27 -85 -41q-18 -3 -36 -3q-84 0 -130.5 51.5t-46.5 136.5t56.5 141.5t149.5 56.5q98 0 152.5 -67t54.5 -191q0 -157 -92.5 -253t-260.5 -98zM357 202q3 20 3 43q0 56 -26.5 90t-71.5 34q-46 0 -76 -21q-24 -34 -24 -84
q0 -102 93 -102q56 0 102 40z" />
    <glyph glyph-name="dollar.os" horiz-adv-x="462" 
d="M43 37l52 90q43 -36 93 -51q14 -3 33 -3q49 0 79 14q12 13 12 35t-17.5 33.5t-71.5 17.5q-163 18 -163 133q0 51 32.5 86t94.5 45l-3 119l102 12l-7 -130q71 -8 128 -42l-53 -84q-34 26 -81 42q-17 3 -36 3q-41 0 -66 -13q-10 -11 -10 -29q0 -23 17.5 -35t61.5 -17
q172 -20 172 -136q0 -55 -36 -90.5t-102 -44.5l4 -112l-101 -12l6 123q-78 7 -140 46z" />
    <glyph glyph-name="Euro.os" horiz-adv-x="489" 
d="M36 196h261l-11 -77l-89 5q27 -47 88 -47q62 0 119 45l48 -78q-71 -55 -173 -55q-77 0 -127.5 36t-70.5 102h-56zM39 299h42q21 67 75.5 104.5t130.5 37.5q97 0 160 -52l-75 -82q-29 26 -68 44q-14 3 -29 3q-40 0 -71 -25q-6 -9 -14 -29l115 7l-10 -77h-267z" />
    <glyph glyph-name="sterling.os" horiz-adv-x="469" 
d="M400 123l30 -97q-44 -37 -115 -37q-30 0 -79 11.5t-71 11.5q-46 0 -79 -23l-31 64q3 2 9 5.5t9 5.5q24 16 31 23q12 26 12 54v7l-54 -8l-13 72l49 10q-14 37 -14 75q0 63 55 103.5t152 40.5l7 -90q-54 -1 -100 -16q-10 -20 -10 -49q0 -20 7 -43l100 23l15 -86l-92 -15
q0 -3 0.5 -7t0.5 -7q0 -32 -14 -57q13 -1 49.5 -9t59.5 -8q43 17 78 47z" />
    <glyph glyph-name="yen.os" horiz-adv-x="471" 
d="M84 253h52l-105 157v17l118 6l29 -80l62 -110h7l57 103l23 84h113v-16l-40 -83l-54 -74l68 4l-11 -83h-331zM101 140h289l-10 -81l-86 4v-63h-107v67h-98z" />
    <glyph glyph-name="numbersign.os" horiz-adv-x="587" 
d="M450 468l-14 -102l99 4l-12 -95h-99l-11 -88l107 4l-11 -95h-106l-1 -99h-103l13 99h-88l-1 -99h-104l13 99h-80v80l92 7l12 92h-90v80l99 8l3 105h102l-13 -103h87l3 103h103zM245 275l-11 -89h90l12 89h-91z" />
    <glyph glyph-name="rur.os" horiz-adv-x="470" 
d="M46 119h44v47h-52l7 75h45v85l-9 104h180q78 0 126 -36.5t48 -103.5q0 -65 -47.5 -102t-123.5 -37q-33 0 -68 8v-40h136l-11 -81l-125 8v-46h-106v44l-53 -2zM196 346v-111q27 -7 57 -7q39 0 62 13q14 19 14 49q0 56 -72 56h-61z" />
    <glyph glyph-name="a.sc" horiz-adv-x="550" 
d="M194 511l148 8l175 -505v-14h-121l-14 82l-12 38l-193 2l-11 -37l-9 -85h-125v14l155 412zM269 410l-65 -205l137 6l-62 199h-10z" />
    <glyph glyph-name="aacute.sc" horiz-adv-x="550" 
d="M194 511l148 8l175 -505v-14h-121l-14 82l-12 38l-193 2l-11 -37l-9 -85h-125v14l155 412zM269 410l-65 -205l137 6l-62 199h-10zM219 635l41 54l70 124h13l73 -68l-128 -144z" />
    <glyph glyph-name="abreve.sc" horiz-adv-x="550" 
d="M194 511l148 8l175 -505v-14h-121l-14 82l-12 38l-193 2l-11 -37l-9 -85h-125v14l155 412zM269 410l-65 -205l137 6l-62 199h-10zM127 743l94 17q7 -77 56 -77q23 0 39 11q11 24 11 59l93 12q0 -80 -40.5 -121t-107.5 -41q-59 0 -98.5 37.5t-46.5 102.5z" />
    <glyph glyph-name="acircumflex.sc" horiz-adv-x="550" 
d="M194 511l148 8l175 -505v-14h-121l-14 82l-12 38l-193 2l-11 -37l-9 -85h-125v14l155 412zM269 410l-65 -205l137 6l-62 199h-10zM264 785h26l71 -63l73 -51v-14l-73 -64l-88 87l-93 -83l-64 52v14l76 57z" />
    <glyph glyph-name="adieresis.sc" horiz-adv-x="550" 
d="M194 511l148 8l175 -505v-14h-121l-14 82l-12 38l-193 2l-11 -37l-9 -85h-125v14l155 412zM269 410l-65 -205l137 6l-62 199h-10zM315 725l113 7v-116l-117 4zM124 723l113 10v-117l-117 5z" />
    <glyph glyph-name="agrave.sc" horiz-adv-x="550" 
d="M194 511l148 8l175 -505v-14h-121l-14 82l-12 38l-193 2l-11 -37l-9 -85h-125v14l155 412zM269 410l-65 -205l137 6l-62 199h-10zM209 813h14l51 -89l62 -89l-68 -34l-136 144z" />
    <glyph glyph-name="amacron.sc" horiz-adv-x="550" 
d="M194 511l148 8l175 -505v-14h-121l-14 82l-12 38l-193 2l-11 -37l-9 -85h-125v14l155 412zM269 410l-65 -205l137 6l-62 199h-10zM144 710l145 7l125 14l8 -8l-11 -94l-275 -8l-9 8z" />
    <glyph glyph-name="aogonek.sc" horiz-adv-x="550" 
d="M194 511l148 8l175 -505v-14h-2q-38 -5 -59 -20q-11 -18 -11 -46q0 -59 74 -59l5 -9l-32 -79q-62 0 -100 34t-38 94q0 63 39 100l-11 67l-12 38l-193 2l-11 -37l-9 -85h-125v14l155 412zM269 410l-65 -205l137 6l-62 199h-10z" />
    <glyph glyph-name="aring.sc" horiz-adv-x="550" 
d="M194 511l148 8l175 -505v-14h-121l-14 82l-12 38l-193 2l-11 -37l-9 -85h-125v14l155 412zM269 410l-65 -205l137 6l-62 199h-10zM274 825q56 0 89 -35t33 -84q0 -47 -34 -82.5t-88 -35.5q-61 0 -92 34t-31 84q0 48 34 83.5t89 35.5zM274 748q-22 0 -35 -9q-7 -11 -7 -33
q0 -19 11.5 -31t30.5 -12q18 0 32 8q8 14 8 35q0 19 -11 30.5t-29 11.5z" />
    <glyph glyph-name="atilde.sc" horiz-adv-x="550" 
d="M194 511l148 8l175 -505v-14h-121l-14 82l-12 38l-193 2l-11 -37l-9 -85h-125v14l155 412zM269 410l-65 -205l137 6l-62 199h-10zM154 624l-40 68q36 36 71 54q11 3 22 3q32 0 73 -22.5t62 -27.5q27 9 53 30l40 -68q-32 -34 -73 -54q-18 -3 -22 -3q-31 0 -71.5 22.5
t-63.5 27.5q-28 -10 -51 -30z" />
    <glyph glyph-name="ae.sc" horiz-adv-x="777" 
d="M394 514h321l-11 -98l-149 8h-79v-120h46l146 7l-7 -98l-185 7v-131h83l163 8l-5 -97h-351v127l-167 3l-21 -43l-22 -87h-131v14l227 416l18 88zM366 407l-1 14h-20l-103 -205l124 4v187z" />
    <glyph glyph-name="b.sc" horiz-adv-x="522" 
d="M70 514h203q86 0 132 -38t46 -102q0 -66 -50 -97v-6q74 -28 74 -114q0 -76 -52 -116.5t-144 -40.5h-199v416zM188 219v-131h90q37 0 68 12q19 19 19 56q0 63 -83 63h-94zM188 426v-121h83q34 0 54 8q17 19 17 53q0 60 -76 60h-78z" />
    <glyph glyph-name="c.sc" horiz-adv-x="530" 
d="M467 462l-74 -87q-35 35 -80 57q-12 3 -28 3q-43 0 -78 -24q-39 -55 -39 -154q0 -81 34.5 -129t88.5 -48q75 0 123 57l63 -66q-68 -83 -191 -83q-109 0 -169.5 74t-60.5 195q0 122 64.5 195.5t168.5 73.5q109 0 178 -64z" />
    <glyph glyph-name="cacute.sc" horiz-adv-x="530" 
d="M467 462l-74 -87q-35 35 -80 57q-12 3 -28 3q-43 0 -78 -24q-39 -55 -39 -154q0 -81 34.5 -129t88.5 -48q75 0 123 57l63 -66q-68 -83 -191 -83q-109 0 -169.5 74t-60.5 195q0 122 64.5 195.5t168.5 73.5q109 0 178 -64zM239 635l41 54l70 124h13l73 -68l-128 -144z" />
    <glyph glyph-name="ccaron.sc" horiz-adv-x="530" 
d="M467 462l-74 -87q-35 35 -80 57q-12 3 -28 3q-43 0 -78 -24q-39 -55 -39 -154q0 -81 34.5 -129t88.5 -48q75 0 123 57l63 -66q-68 -83 -191 -83q-109 0 -169.5 74t-60.5 195q0 122 64.5 195.5t168.5 73.5q109 0 178 -64zM198 786l92 -86l89 83l65 -52v-14l-76 -58
l-69 -64h-25l-67 58l-81 55v15z" />
    <glyph glyph-name="ccedilla.sc" horiz-adv-x="530" 
d="M467 462l-74 -87q-35 35 -80 57q-12 3 -28 3q-43 0 -78 -24q-39 -55 -39 -154q0 -81 34.5 -129t88.5 -48q75 0 123 57l63 -66q-62 -76 -169 -82v-32q74 -22 74 -108q0 -58 -48 -99.5t-140 -53.5l-7 8l14 87q21 1 30 2t24.5 4t22.5 8.5t12.5 15t5.5 23.5q0 19 -11 30.5
t-31 11.5q-15 0 -33 -6l-12 15l24 98q-85 17 -131 88t-46 176q0 122 64.5 195.5t168.5 73.5q109 0 178 -64z" />
    <glyph glyph-name="ccircumflex.sc" horiz-adv-x="530" 
d="M467 462l-74 -87q-35 35 -80 57q-12 3 -28 3q-43 0 -78 -24q-39 -55 -39 -154q0 -81 34.5 -129t88.5 -48q75 0 123 57l63 -66q-68 -83 -191 -83q-109 0 -169.5 74t-60.5 195q0 122 64.5 195.5t168.5 73.5q109 0 178 -64zM278 785h26l71 -63l73 -51v-14l-73 -64l-88 87
l-93 -83l-64 52v14l76 57z" />
    <glyph glyph-name="cdotaccent.sc" horiz-adv-x="530" 
d="M467 462l-74 -87q-35 35 -80 57q-12 3 -28 3q-43 0 -78 -24q-39 -55 -39 -154q0 -81 34.5 -129t88.5 -48q75 0 123 57l63 -66q-68 -83 -191 -83q-109 0 -169.5 74t-60.5 195q0 122 64.5 195.5t168.5 73.5q109 0 178 -64zM228 729l125 11v-131l-129 4z" />
    <glyph glyph-name="d.sc" horiz-adv-x="557" 
d="M70 514h183q112 0 179.5 -66t67.5 -191q0 -120 -65 -188.5t-182 -68.5h-173v406zM190 423v-333h57q60 0 103 25q38 54 38 142q0 83 -35 124.5t-99 41.5h-64z" />
    <glyph glyph-name="dcaron.sc" horiz-adv-x="557" 
d="M70 514h183q112 0 179.5 -66t67.5 -191q0 -120 -65 -188.5t-182 -68.5h-173v406zM190 423v-333h57q60 0 103 25q38 54 38 142q0 83 -35 124.5t-99 41.5h-64zM174 786l92 -86l89 83l65 -52v-14l-76 -58l-69 -64h-25l-67 58l-81 55v15z" />
    <glyph glyph-name="dcroat.sc" horiz-adv-x="572" 
d="M85 514h183q112 0 179.5 -66t67.5 -191q0 -120 -65 -188.5t-182 -68.5h-173v204l-54 -1l-9 7l16 79l47 1v116zM205 423v-127l99 12l8 -8l-9 -91l-98 -3v-116h57q60 0 103 25q38 54 38 142q0 83 -35 124.5t-99 41.5h-64z" />
    <glyph glyph-name="e.sc" horiz-adv-x="500" 
d="M70 514h369l-12 -98l-164 8h-74v-120h65l138 7l-7 -97l-196 6v-131h76l180 8l-5 -97h-360v410z" />
    <glyph glyph-name="eacute.sc" horiz-adv-x="500" 
d="M70 514h369l-12 -98l-164 8h-74v-120h65l138 7l-7 -97l-196 6v-131h76l180 8l-5 -97h-360v410zM210 635l41 54l70 124h13l73 -68l-128 -144z" />
    <glyph glyph-name="ebreve.sc" horiz-adv-x="500" 
d="M70 514h369l-12 -98l-164 8h-74v-120h65l138 7l-7 -97l-196 6v-131h76l180 8l-5 -97h-360v410zM109 743l94 17q7 -77 56 -77q23 0 39 11q11 24 11 59l93 12q0 -80 -40.5 -121t-107.5 -41q-59 0 -98.5 37.5t-46.5 102.5z" />
    <glyph glyph-name="ecaron.sc" horiz-adv-x="500" 
d="M70 514h369l-12 -98l-164 8h-74v-120h65l138 7l-7 -97l-196 6v-131h76l180 8l-5 -97h-360v410zM172 786l92 -86l89 83l65 -52v-14l-76 -58l-69 -64h-25l-67 58l-81 55v15z" />
    <glyph glyph-name="ecircumflex.sc" horiz-adv-x="500" 
d="M70 514h369l-12 -98l-164 8h-74v-120h65l138 7l-7 -97l-196 6v-131h76l180 8l-5 -97h-360v410zM248 785h26l71 -63l73 -51v-14l-73 -64l-88 87l-93 -83l-64 52v14l76 57z" />
    <glyph glyph-name="edieresis.sc" horiz-adv-x="500" 
d="M70 514h369l-12 -98l-164 8h-74v-120h65l138 7l-7 -97l-196 6v-131h76l180 8l-5 -97h-360v410zM302 725l113 7v-116l-117 4zM111 723l113 10v-117l-117 5z" />
    <glyph glyph-name="edotaccent.sc" horiz-adv-x="500" 
d="M70 514h369l-12 -98l-164 8h-74v-120h65l138 7l-7 -97l-196 6v-131h76l180 8l-5 -97h-360v410zM203 729l125 11v-131l-129 4z" />
    <glyph glyph-name="egrave.sc" horiz-adv-x="500" 
d="M70 514h369l-12 -98l-164 8h-74v-120h65l138 7l-7 -97l-196 6v-131h76l180 8l-5 -97h-360v410zM209 813h14l51 -89l62 -89l-68 -34l-136 144z" />
    <glyph glyph-name="emacron.sc" horiz-adv-x="500" 
d="M70 514h369l-12 -98l-164 8h-74v-120h65l138 7l-7 -97l-196 6v-131h76l180 8l-5 -97h-360v410zM128 710l145 7l125 14l8 -8l-11 -94l-275 -8l-9 8z" />
    <glyph glyph-name="eogonek.sc" horiz-adv-x="501" 
d="M70 514h369l-12 -98l-164 8h-74v-120h65l138 7l-7 -97l-196 6v-131h76l180 8l-5 -97h-9q-30 -2 -49 -14q-12 -22 -12 -46q0 -56 76 -56l6 -10l-34 -82q-63 0 -102 36t-39 91q0 46 23 81h-220v410z" />
    <glyph glyph-name="f.sc" horiz-adv-x="491" 
d="M70 514h363l-11 -99l-159 9h-74v-129h58l138 6l-8 -98l-188 8v-211h-109v409z" />
    <glyph glyph-name="g.sc" horiz-adv-x="543" 
d="M472 464l-70 -88q-40 35 -90 57q-18 2 -29 2q-46 0 -78 -25q-38 -57 -38 -153q0 -84 33.5 -130.5t91.5 -46.5q46 0 80 20v109l-101 -4l13 89h201l3 -14l-14 -81v-199l-20 -6l-51 26q-54 -32 -119 -32q-111 0 -169.5 72.5t-58.5 196.5q0 122 65.5 195.5t168.5 73.5
q111 0 182 -62z" />
    <glyph glyph-name="gbreve.sc" horiz-adv-x="543" 
d="M472 464l-70 -88q-40 35 -90 57q-18 2 -29 2q-46 0 -78 -25q-38 -57 -38 -153q0 -84 33.5 -130.5t91.5 -46.5q46 0 80 20v109l-101 -4l13 89h201l3 -14l-14 -81v-199l-20 -6l-51 26q-54 -32 -119 -32q-111 0 -169.5 72.5t-58.5 196.5q0 122 65.5 195.5t168.5 73.5
q111 0 182 -62zM138 743l94 17q7 -77 56 -77q23 0 39 11q11 24 11 59l93 12q0 -80 -40.5 -121t-107.5 -41q-59 0 -98.5 37.5t-46.5 102.5z" />
    <glyph glyph-name="gcircumflex.sc" horiz-adv-x="543" 
d="M472 464l-70 -88q-40 35 -90 57q-18 2 -29 2q-46 0 -78 -25q-38 -57 -38 -153q0 -84 33.5 -130.5t91.5 -46.5q46 0 80 20v109l-101 -4l13 89h201l3 -14l-14 -81v-199l-20 -6l-51 26q-54 -32 -119 -32q-111 0 -169.5 72.5t-58.5 196.5q0 122 65.5 195.5t168.5 73.5
q111 0 182 -62zM283 785h26l71 -63l73 -51v-14l-73 -64l-88 87l-93 -83l-64 52v14l76 57z" />
    <glyph glyph-name="gcommaaccent.sc" horiz-adv-x="543" 
d="M472 464l-70 -88q-40 35 -90 57q-18 2 -29 2q-46 0 -78 -25q-38 -57 -38 -153q0 -84 33.5 -130.5t91.5 -46.5q46 0 80 20v109l-101 -4l13 89h201l3 -14l-14 -81v-199l-20 -6l-51 26q-54 -32 -119 -32q-111 0 -169.5 72.5t-58.5 196.5q0 122 65.5 195.5t168.5 73.5
q111 0 182 -62zM238 -76l108 6l6 -20l-55 -173l-75 18l16 99v70z" />
    <glyph glyph-name="gdotaccent.sc" horiz-adv-x="543" 
d="M472 464l-70 -88q-40 35 -90 57q-18 2 -29 2q-46 0 -78 -25q-38 -57 -38 -153q0 -84 33.5 -130.5t91.5 -46.5q46 0 80 20v109l-101 -4l13 89h201l3 -14l-14 -81v-199l-20 -6l-51 26q-54 -32 -119 -32q-111 0 -169.5 72.5t-58.5 196.5q0 122 65.5 195.5t168.5 73.5
q111 0 182 -62zM226 729l125 11v-131l-129 4z" />
    <glyph glyph-name="hbar.sc" horiz-adv-x="576" 
d="M70 510l121 7v-95l191 9l-7 79l121 7v-78l53 6l8 -8l-5 -90l-56 -2v-345h-111v188l-194 4v-192h-111v332l-54 -1l-8 7l14 76l46 2zM191 278l194 6v58l-194 -6v-58z" />
    <glyph glyph-name="hcircumflex.sc" horiz-adv-x="576" 
d="M70 510l121 7v-214l194 6v97l-10 104l121 7v-517h-111v212l-194 4v-216h-111v406zM275 785h26l71 -63l73 -51v-14l-73 -64l-88 87l-93 -83l-64 52v14l76 57z" />
    <glyph glyph-name="i.sc" horiz-adv-x="271" 
d="M70 510l121 7v-517h-111v407z" />
    <glyph glyph-name="iacute.sc" horiz-adv-x="271" 
d="M70 510l121 7v-517h-111v407zM85 635l41 54l70 124h13l73 -68l-128 -144z" />
    <glyph glyph-name="ibreve.sc" horiz-adv-x="271" 
d="M70 510l121 7v-517h-111v407zM-11 743l94 17q7 -77 56 -77q23 0 39 11q11 24 11 59l93 12q0 -80 -40.5 -121t-107.5 -41q-59 0 -98.5 37.5t-46.5 102.5z" />
    <glyph glyph-name="icircumflex.sc" horiz-adv-x="271" 
d="M70 510l121 7v-517h-111v407zM124 785h26l71 -63l73 -51v-14l-73 -64l-88 87l-93 -83l-64 52v14l76 57z" />
    <glyph glyph-name="idieresis.sc" horiz-adv-x="271" 
d="M70 510l121 7v-517h-111v407zM174 729l116 7v-124l-122 4zM-16 726l117 12v-126l-121 4z" />
    <glyph glyph-name="igrave.sc" horiz-adv-x="271" 
d="M70 510l121 7v-517h-111v407zM75 813h14l51 -89l62 -89l-68 -34l-136 144z" />
    <glyph glyph-name="imacron.sc" horiz-adv-x="271" 
d="M70 510l121 7v-517h-111v407zM10 703l139 8l125 16l9 -8l-12 -103l-269 -7l-9 7z" />
    <glyph glyph-name="iogonek.sc" horiz-adv-x="271" 
d="M70 510l121 7v-517q-29 0 -53 -11q-11 -19 -11 -48q0 -57 77 -57l6 -9l-33 -84q-64 0 -104 38.5t-40 93.5q0 65 47 106v378z" />
    <glyph glyph-name="itilde.sc" horiz-adv-x="271" 
d="M70 510l121 7v-517h-111v407zM29 627l-38 63q36 36 76 52q9 3 21 3q31 0 61 -23t43 -27q24 9 50 29l37 -65q-36 -34 -77 -52q-21 -3 -22 -3q-31 0 -60 23t-43 27q-24 -6 -48 -27z" />
    <glyph glyph-name="dotlessi.sc" horiz-adv-x="271" 
d="M70 510l121 7v-517h-111v407z" />
    <glyph glyph-name="j.sc" horiz-adv-x="271" 
d="M70 510l121 7v-453q0 -96 -51 -155t-148 -76l-31 97q53 8 96 25q27 30 27 89v31l-4 55v278z" />
    <glyph glyph-name="jcircumflex.sc" horiz-adv-x="271" 
d="M70 510l121 7v-453q0 -96 -51 -155t-148 -76l-31 97q53 8 96 25q27 30 27 89v31l-4 55v278zM124 785h26l71 -63l73 -51v-14l-73 -64l-88 87l-93 -83l-64 52v14l76 57z" />
    <glyph glyph-name="dotlessj.sc" horiz-adv-x="271" 
d="M70 510l121 7v-453q0 -96 -51 -155t-148 -76l-31 97q53 8 96 25q27 30 27 89v31l-4 55v278z" />
    <glyph glyph-name="k.sc" horiz-adv-x="560" 
d="M70 510l121 7v-229l65 28q60 60 83 128l24 72l126 -5v-15q-40 -108 -118 -194l-26 -28q73 -149 176 -259v-15l-127 -4q-77 93 -131 224l-72 -34v-186h-111v406z" />
    <glyph glyph-name="kcommaaccent.sc" horiz-adv-x="560" 
d="M70 510l121 7v-229l65 28q60 60 83 128l24 72l126 -5v-15q-40 -108 -118 -194l-26 -28q73 -149 176 -259v-15l-127 -4q-77 93 -131 224l-72 -34v-186h-111v406zM229 -76l108 6l6 -20l-55 -173l-75 18l16 99v70z" />
    <glyph glyph-name="kgreenlandic.sc" horiz-adv-x="560" 
d="M70 510l121 7v-229l65 28q60 60 83 128l24 72l126 -5v-15q-40 -108 -118 -194l-26 -28q73 -149 176 -259v-15l-127 -4q-77 93 -131 224l-72 -34v-186h-111v406z" />
    <glyph glyph-name="l.sc" horiz-adv-x="476" 
d="M70 510l121 7v-427h59l180 14l8 -8l-10 -96h-348v406z" />
    <glyph glyph-name="lacute.sc" horiz-adv-x="476" 
d="M70 510l121 7v-427h59l180 14l8 -8l-10 -96h-348v406zM109 635l41 54l70 124h13l73 -68l-128 -144z" />
    <glyph glyph-name="lcaron.sc" horiz-adv-x="476" 
d="M70 510l121 7v-427h59l180 14l8 -8l-10 -96h-348v406zM306 524l108 6l6 -20l-55 -173l-75 18l16 99v70z" />
    <glyph glyph-name="lcommaaccent.sc" horiz-adv-x="476" 
d="M70 510l121 7v-427h59l180 14l8 -8l-10 -96h-348v406zM206 -76l108 6l6 -20l-55 -173l-75 18l16 99v70z" />
    <glyph glyph-name="ldot.sc" horiz-adv-x="476" 
d="M70 510l121 7v-427h59l180 14l8 -8l-10 -96h-348v406zM304 355l125 11v-131l-129 4z" />
    <glyph glyph-name="lslash.sc" horiz-adv-x="472" 
d="M70 510l121 7v-220l103 35l9 -6l5 -96l-117 -26v-114h53l182 14l8 -8l-10 -96h-344v180l-45 -9l-9 7l4 79l50 12v137z" />
    <glyph glyph-name="m.sc" horiz-adv-x="702" 
d="M95 510l144 7l113 -378h7l106 375h143l41 -514h-116v109l-14 265h-7l-24 -104l-88 -270h-98l-86 262l-27 113h-7l-15 -259v-116h-115l43 406v104z" />
    <glyph glyph-name="n.sc" horiz-adv-x="582" 
d="M70 510l110 7l163 -253l60 -104l-7 149v98l-10 103l116 7v-514l-101 -8l-149 227l-74 125l7 -147v-200h-105v389z" />
    <glyph glyph-name="nacute.sc" horiz-adv-x="582" 
d="M70 510l110 7l163 -253l60 -104l-7 149v98l-10 103l116 7v-514l-101 -8l-149 227l-74 125l7 -147v-200h-105v389zM242 635l41 54l70 124h13l73 -68l-128 -144z" />
    <glyph glyph-name="ncaron.sc" horiz-adv-x="582" 
d="M70 510l110 7l163 -253l60 -104l-7 149v98l-10 103l116 7v-514l-101 -8l-149 227l-74 125l7 -147v-200h-105v389zM203 786l92 -86l89 83l65 -52v-14l-76 -58l-69 -64h-25l-67 58l-81 55v15z" />
    <glyph glyph-name="ncommaaccent.sc" horiz-adv-x="582" 
d="M70 510l110 7l163 -253l60 -104l-7 149v98l-10 103l116 7v-514l-101 -8l-149 227l-74 125l7 -147v-200h-105v389zM242 -76l108 6l6 -20l-55 -173l-75 18l16 99v70z" />
    <glyph glyph-name="ntilde.sc" horiz-adv-x="582" 
d="M70 510l110 7l163 -253l60 -104l-7 149v98l-10 103l116 7v-514l-101 -8l-149 227l-74 125l7 -147v-200h-105v389zM170 624l-40 68q36 36 71 54q11 3 22 3q32 0 73 -22.5t62 -27.5q27 9 53 30l40 -68q-32 -34 -73 -54q-18 -3 -22 -3q-31 0 -71.5 22.5t-63.5 27.5
q-28 -10 -51 -30z" />
    <glyph glyph-name="o.sc" horiz-adv-x="574" 
d="M287 526q106 0 168.5 -70.5t62.5 -198.5q0 -120 -63.5 -194.5t-167.5 -74.5q-106 0 -168.5 70.5t-62.5 198.5q0 120 63.5 194.5t167.5 74.5zM287 435q-51 0 -82 -25q-37 -56 -37 -153q0 -91 32 -134.5t87 -43.5q51 0 83 25q36 53 36 153q0 91 -32 134.5t-87 43.5z" />
    <glyph glyph-name="oacute.sc" horiz-adv-x="574" 
d="M287 526q106 0 168.5 -70.5t62.5 -198.5q0 -120 -63.5 -194.5t-167.5 -74.5q-106 0 -168.5 70.5t-62.5 198.5q0 120 63.5 194.5t167.5 74.5zM287 435q-51 0 -82 -25q-37 -56 -37 -153q0 -91 32 -134.5t87 -43.5q51 0 83 25q36 53 36 153q0 91 -32 134.5t-87 43.5z
M251 635l41 54l70 124h13l73 -68l-128 -144z" />
    <glyph glyph-name="obreve.sc" horiz-adv-x="574" 
d="M287 526q106 0 168.5 -70.5t62.5 -198.5q0 -120 -63.5 -194.5t-167.5 -74.5q-106 0 -168.5 70.5t-62.5 198.5q0 120 63.5 194.5t167.5 74.5zM287 435q-51 0 -82 -25q-37 -56 -37 -153q0 -91 32 -134.5t87 -43.5q51 0 83 25q36 53 36 153q0 91 -32 134.5t-87 43.5z
M140 743l94 17q7 -77 56 -77q23 0 39 11q11 24 11 59l93 12q0 -80 -40.5 -121t-107.5 -41q-59 0 -98.5 37.5t-46.5 102.5z" />
    <glyph glyph-name="ocircumflex.sc" horiz-adv-x="574" 
d="M287 526q106 0 168.5 -70.5t62.5 -198.5q0 -120 -63.5 -194.5t-167.5 -74.5q-106 0 -168.5 70.5t-62.5 198.5q0 120 63.5 194.5t167.5 74.5zM287 435q-51 0 -82 -25q-37 -56 -37 -153q0 -91 32 -134.5t87 -43.5q51 0 83 25q36 53 36 153q0 91 -32 134.5t-87 43.5z
M276 785h26l71 -63l73 -51v-14l-73 -64l-88 87l-93 -83l-64 52v14l76 57z" />
    <glyph glyph-name="odieresis.sc" horiz-adv-x="574" 
d="M287 526q106 0 168.5 -70.5t62.5 -198.5q0 -120 -63.5 -194.5t-167.5 -74.5q-106 0 -168.5 70.5t-62.5 198.5q0 120 63.5 194.5t167.5 74.5zM287 435q-51 0 -82 -25q-37 -56 -37 -153q0 -91 32 -134.5t87 -43.5q51 0 83 25q36 53 36 153q0 91 -32 134.5t-87 43.5z
M328 725l113 7v-116l-117 4zM137 723l113 10v-117l-117 5z" />
    <glyph glyph-name="ograve.sc" horiz-adv-x="574" 
d="M287 526q106 0 168.5 -70.5t62.5 -198.5q0 -120 -63.5 -194.5t-167.5 -74.5q-106 0 -168.5 70.5t-62.5 198.5q0 120 63.5 194.5t167.5 74.5zM287 435q-51 0 -82 -25q-37 -56 -37 -153q0 -91 32 -134.5t87 -43.5q51 0 83 25q36 53 36 153q0 91 -32 134.5t-87 43.5z
M221 812h14l51 -89l62 -89l-68 -34l-136 144z" />
    <glyph glyph-name="ohungarumlaut.sc" horiz-adv-x="574" 
d="M287 526q106 0 168.5 -70.5t62.5 -198.5q0 -120 -63.5 -194.5t-167.5 -74.5q-106 0 -168.5 70.5t-62.5 198.5q0 120 63.5 194.5t167.5 74.5zM287 435q-51 0 -82 -25q-37 -56 -37 -153q0 -91 32 -134.5t87 -43.5q51 0 83 25q36 53 36 153q0 91 -32 134.5t-87 43.5z
M169 629l35 81l26 95h13l84 -58l-90 -143zM310 633l112 156h13l71 -72l-82 -66l-54 -52z" />
    <glyph glyph-name="omacron.sc" horiz-adv-x="574" 
d="M287 526q106 0 168.5 -70.5t62.5 -198.5q0 -120 -63.5 -194.5t-167.5 -74.5q-106 0 -168.5 70.5t-62.5 198.5q0 120 63.5 194.5t167.5 74.5zM287 435q-51 0 -82 -25q-37 -56 -37 -153q0 -91 32 -134.5t87 -43.5q51 0 83 25q36 53 36 153q0 91 -32 134.5t-87 43.5z
M156 710l145 7l125 14l8 -8l-11 -94l-275 -8l-9 8z" />
    <glyph glyph-name="oslash.sc" horiz-adv-x="574" 
d="M287 526q37 0 68 -9l28 84l118 -38l-52 -101q69 -72 69 -205q0 -120 -63.5 -194.5t-167.5 -74.5q-41 0 -74 10l-41 -80l-92 28l49 100q-73 73 -73 211q0 120 63.5 194.5t167.5 74.5zM287 435q-51 0 -82 -25q-37 -56 -37 -153q0 -63 15 -102l135 276q-20 4 -31 4zM406 257
q0 54 -13 95l-137 -269q13 -4 31 -4q51 0 83 25q36 53 36 153z" />
    <glyph glyph-name="otilde.sc" horiz-adv-x="574" 
d="M287 526q106 0 168.5 -70.5t62.5 -198.5q0 -120 -63.5 -194.5t-167.5 -74.5q-106 0 -168.5 70.5t-62.5 198.5q0 120 63.5 194.5t167.5 74.5zM287 435q-51 0 -82 -25q-37 -56 -37 -153q0 -91 32 -134.5t87 -43.5q51 0 83 25q36 53 36 153q0 91 -32 134.5t-87 43.5z
M167 624l-40 68q36 36 71 54q10 3 22 3q32 0 73 -22.5t62 -27.5q27 9 53 30l40 -68q-32 -34 -73 -54q-18 -3 -22 -3q-31 0 -71.5 22.5t-63.5 27.5q-28 -10 -51 -30z" />
    <glyph glyph-name="oe.sc" horiz-adv-x="783" 
d="M268 526q75 0 119 -47v35h336l-11 -99l-155 9h-72v-120h58l134 7l-8 -97l-184 6v-131h73l171 8l-6 -97h-336v37q-43 -49 -119 -49q-102 0 -157 69t-55 199q0 123 57 196.5t155 73.5zM200 410q-33 -61 -33 -154q0 -177 106 -177q40 0 71 20q36 62 36 158q0 178 -107 178
q-46 0 -73 -25z" />
    <glyph glyph-name="p.sc" horiz-adv-x="515" 
d="M70 514h194q94 0 150 -46t56 -131q0 -82 -53.5 -131.5t-137.5 -49.5q-49 0 -90 15v-171h-109v412zM189 424v-165q39 -12 80 -12q38 0 70 17q20 26 20 72q0 42 -25 65t-72 23h-73z" />
    <glyph glyph-name="q.sc" horiz-adv-x="575" 
d="M287 526q106 0 168.5 -70.5t62.5 -198.5q0 -100 -45 -170t-123 -91q78 -43 167 -64v-21l-75 -73q-102 40 -188 137q-42 47 -91 47q-37 0 -58 -28l-28 6q3 47 17 91q-38 64 -38 166q0 120 63.5 194.5t167.5 74.5zM287 435q-51 0 -82 -25q-37 -55 -37 -153q0 -91 32 -134.5
t87 -43.5q51 0 83 25q36 53 36 153q0 91 -32 134.5t-87 43.5z" />
    <glyph glyph-name="r.sc" horiz-adv-x="541" 
d="M70 514h201q93 0 148 -46t55 -128q0 -57 -30 -97.5t-80 -59.5q54 -89 127 -168v-15l-119 -5q-62 80 -105 176q-44 3 -78 15v-186h-109v411zM189 424v-151q39 -12 83 -12q45 0 74 18q18 25 18 61q0 40 -26 62t-73 22h-76z" />
    <glyph glyph-name="racute.sc" horiz-adv-x="541" 
d="M70 514h201q93 0 148 -46t55 -128q0 -57 -30 -97.5t-80 -59.5q54 -89 127 -168v-15l-119 -5q-62 80 -105 176q-44 3 -78 15v-186h-109v411zM189 424v-151q39 -12 83 -12q45 0 74 18q18 25 18 61q0 40 -26 62t-73 22h-76zM207 635l41 54l70 124h13l73 -68l-128 -144z" />
    <glyph glyph-name="rcaron.sc" horiz-adv-x="541" 
d="M70 514h201q93 0 148 -46t55 -128q0 -57 -30 -97.5t-80 -59.5q54 -89 127 -168v-15l-119 -5q-62 80 -105 176q-44 3 -78 15v-186h-109v411zM189 424v-151q39 -12 83 -12q45 0 74 18q18 25 18 61q0 40 -26 62t-73 22h-76zM176 786l92 -86l89 83l65 -52v-14l-76 -58
l-69 -64h-25l-67 58l-81 55v15z" />
    <glyph glyph-name="rcommaaccent.sc" horiz-adv-x="541" 
d="M70 514h201q93 0 148 -46t55 -128q0 -57 -30 -97.5t-80 -59.5q54 -89 127 -168v-15l-119 -5q-62 80 -105 176q-44 3 -78 15v-186h-109v411zM189 424v-151q39 -12 83 -12q45 0 74 18q18 25 18 61q0 40 -26 62t-73 22h-76zM224 -76l108 6l6 -20l-55 -173l-75 18l16 99v70z
" />
    <glyph glyph-name="s.sc" horiz-adv-x="509" 
d="M449 468l-68 -89q-39 32 -84 52q-18 5 -42 5q-40 0 -68 -15q-11 -17 -11 -39q0 -60 99 -73q182 -25 182 -163q0 -73 -56 -115.5t-149 -42.5q-119 0 -206 60l62 97q47 -40 99 -62q25 -5 46 -5q47 0 79 16q17 17 17 52q0 57 -97 68q-184 21 -184 161q0 67 50.5 109
t138.5 42q117 0 192 -58z" />
    <glyph glyph-name="sacute.sc" horiz-adv-x="509" 
d="M449 468l-68 -89q-39 32 -84 52q-18 5 -42 5q-40 0 -68 -15q-11 -17 -11 -39q0 -60 99 -73q182 -25 182 -163q0 -73 -56 -115.5t-149 -42.5q-119 0 -206 60l62 97q47 -40 99 -62q25 -5 46 -5q47 0 79 16q17 17 17 52q0 57 -97 68q-184 21 -184 161q0 67 50.5 109
t138.5 42q117 0 192 -58zM209 635l41 54l70 124h13l73 -68l-128 -144z" />
    <glyph glyph-name="scaron.sc" horiz-adv-x="509" 
d="M449 468l-68 -89q-39 32 -84 52q-18 5 -42 5q-40 0 -68 -15q-11 -17 -11 -39q0 -60 99 -73q182 -25 182 -163q0 -73 -56 -115.5t-149 -42.5q-119 0 -206 60l62 97q47 -40 99 -62q25 -5 46 -5q47 0 79 16q17 17 17 52q0 57 -97 68q-184 21 -184 161q0 67 50.5 109
t138.5 42q117 0 192 -58zM175 786l92 -86l89 83l65 -52v-14l-76 -58l-69 -64h-25l-67 58l-81 55v15z" />
    <glyph glyph-name="scedilla.sc" horiz-adv-x="509" 
d="M449 468l-68 -89q-39 32 -84 52q-18 5 -42 5q-40 0 -68 -15q-11 -17 -11 -39q0 -60 99 -73q182 -25 182 -163q0 -66 -47 -107.5t-126 -48.5v-33q74 -22 74 -108q0 -58 -48 -99.5t-140 -53.5l-7 8l14 87q56 3 86 20q9 12 9 33q0 19 -11 30.5t-31 11.5q-15 0 -33 -6l-12 15
l23 95q-89 7 -162 58l62 97q47 -40 99 -62q25 -5 46 -5q47 0 79 16q17 17 17 52q0 57 -97 68q-184 21 -184 161q0 67 50.5 109t138.5 42q117 0 192 -58z" />
    <glyph glyph-name="scircumflex.sc" horiz-adv-x="509" 
d="M449 468l-68 -89q-39 32 -84 52q-18 5 -42 5q-40 0 -68 -15q-11 -17 -11 -39q0 -60 99 -73q182 -25 182 -163q0 -73 -56 -115.5t-149 -42.5q-119 0 -206 60l62 97q47 -40 99 -62q25 -5 46 -5q47 0 79 16q17 17 17 52q0 57 -97 68q-184 21 -184 161q0 67 50.5 109
t138.5 42q117 0 192 -58zM250 785h26l71 -63l73 -51v-14l-73 -64l-88 87l-93 -83l-64 52v14l76 57z" />
    <glyph glyph-name="scommaaccent.sc" horiz-adv-x="509" 
d="M449 468l-68 -89q-39 32 -84 52q-18 5 -42 5q-40 0 -68 -15q-11 -17 -11 -39q0 -60 99 -73q182 -25 182 -163q0 -73 -56 -115.5t-149 -42.5q-119 0 -206 60l62 97q47 -40 99 -62q25 -5 46 -5q47 0 79 16q17 17 17 52q0 57 -97 68q-184 21 -184 161q0 67 50.5 109
t138.5 42q117 0 192 -58zM203 -76l108 6l6 -20l-55 -173l-75 18l16 99v70z" />
    <glyph glyph-name="t.sc" horiz-adv-x="478" 
d="M34 518l139 -4h131l145 5l-6 -106l-125 8h-27v-421h-109v421h-30l-124 -8z" />
    <glyph glyph-name="tcaron.sc" horiz-adv-x="478" 
d="M34 518l139 -4h131l145 5l-6 -106l-125 8h-27v-421h-109v421h-30l-124 -8zM150 786l92 -86l89 83l65 -52v-14l-76 -58l-69 -64h-25l-67 58l-81 55v15z" />
    <glyph glyph-name="tcommaaccent.sc" horiz-adv-x="478" 
d="M34 518l139 -4h131l145 5l-6 -106l-125 8h-27v-421h-109v421h-30l-124 -8zM182 -76l108 6l6 -20l-55 -173l-75 18l16 99v70z" />
    <glyph glyph-name="u.sc" horiz-adv-x="579" 
d="M70 510l120 7v-294q0 -69 26 -105.5t73 -36.5q43 0 77 24q23 41 23 111v191l-10 103l120 7v-295q0 -106 -55 -170t-155 -64q-96 0 -152.5 59.5t-56.5 169.5v190z" />
    <glyph glyph-name="uacute.sc" horiz-adv-x="579" 
d="M70 510l120 7v-294q0 -69 26 -105.5t73 -36.5q43 0 77 24q23 41 23 111v191l-10 103l120 7v-295q0 -106 -55 -170t-155 -64q-96 0 -152.5 59.5t-56.5 169.5v190zM236 635l41 54l70 124h13l73 -68l-128 -144z" />
    <glyph glyph-name="ubreve.sc" horiz-adv-x="579" 
d="M70 510l120 7v-294q0 -69 26 -105.5t73 -36.5q43 0 77 24q23 41 23 111v191l-10 103l120 7v-295q0 -106 -55 -170t-155 -64q-96 0 -152.5 59.5t-56.5 169.5v190zM139 743l94 17q7 -77 56 -77q23 0 39 11q11 24 11 59l93 12q0 -80 -40.5 -121t-107.5 -41q-59 0 -98.5 37.5
t-46.5 102.5z" />
    <glyph glyph-name="ucircumflex.sc" horiz-adv-x="579" 
d="M70 510l120 7v-294q0 -69 26 -105.5t73 -36.5q43 0 77 24q23 41 23 111v191l-10 103l120 7v-295q0 -106 -55 -170t-155 -64q-96 0 -152.5 59.5t-56.5 169.5v190zM275 785h26l71 -63l73 -51v-14l-73 -64l-88 87l-93 -83l-64 52v14l76 57z" />
    <glyph glyph-name="udieresis.sc" horiz-adv-x="579" 
d="M70 510l120 7v-294q0 -69 26 -105.5t73 -36.5q43 0 77 24q23 41 23 111v191l-10 103l120 7v-295q0 -106 -55 -170t-155 -64q-96 0 -152.5 59.5t-56.5 169.5v190zM327 725l113 7v-116l-117 4zM136 723l113 10v-117l-117 5z" />
    <glyph glyph-name="uhungarumlaut.sc" horiz-adv-x="579" 
d="M70 510l120 7v-294q0 -69 26 -105.5t73 -36.5q43 0 77 24q23 41 23 111v191l-10 103l120 7v-295q0 -106 -55 -170t-155 -64q-96 0 -152.5 59.5t-56.5 169.5v190zM167 629l35 81l26 95h13l84 -58l-90 -143zM308 633l112 156h13l71 -72l-82 -66l-54 -52z" />
    <glyph glyph-name="ugrave.sc" horiz-adv-x="579" 
d="M70 510l120 7v-294q0 -69 26 -105.5t73 -36.5q43 0 77 24q23 41 23 111v191l-10 103l120 7v-295q0 -106 -55 -170t-155 -64q-96 0 -152.5 59.5t-56.5 169.5v190zM226 813h14l51 -89l62 -89l-68 -34l-136 144z" />
    <glyph glyph-name="umacron.sc" horiz-adv-x="579" 
d="M70 510l120 7v-294q0 -69 26 -105.5t73 -36.5q43 0 77 24q23 41 23 111v191l-10 103l120 7v-295q0 -106 -55 -170t-155 -64q-96 0 -152.5 59.5t-56.5 169.5v190zM155 710l145 7l125 14l8 -8l-11 -94l-275 -8l-9 8z" />
    <glyph glyph-name="uogonek.sc" horiz-adv-x="579" 
d="M70 510l120 7v-294q0 -69 26 -105.5t73 -36.5q43 0 77 24q23 41 23 111v191l-10 103l120 7v-295q0 -93 -43.5 -155t-123.5 -75q-9 -19 -9 -45q0 -57 76 -57l5 -9l-33 -83q-65 0 -104 35.5t-39 91.5q0 38 16 67q-77 12 -120.5 70.5t-43.5 154.5v190z" />
    <glyph glyph-name="uring.sc" horiz-adv-x="579" 
d="M70 510l120 7v-294q0 -69 26 -105.5t73 -36.5q43 0 77 24q23 41 23 111v191l-10 103l120 7v-295q0 -106 -55 -170t-155 -64q-96 0 -152.5 59.5t-56.5 169.5v190zM286 825q56 0 89 -35t33 -84q0 -47 -34 -82.5t-88 -35.5q-61 0 -92 34t-31 84q0 48 34 83.5t89 35.5z
M286 748q-22 0 -35 -9q-7 -11 -7 -33q0 -19 11.5 -31t30.5 -12q18 0 32 8q8 14 8 35q0 19 -11 30.5t-29 11.5z" />
    <glyph glyph-name="utilde.sc" horiz-adv-x="579" 
d="M70 510l120 7v-294q0 -69 26 -105.5t73 -36.5q43 0 77 24q23 41 23 111v191l-10 103l120 7v-295q0 -106 -55 -170t-155 -64q-96 0 -152.5 59.5t-56.5 169.5v190zM166 624l-40 68q36 36 71 54q11 3 22 3q32 0 73 -22.5t62 -27.5q27 9 53 30l40 -68q-32 -34 -73 -54
q-18 -3 -22 -3q-31 0 -71.5 22.5t-63.5 27.5q-28 -10 -51 -30z" />
    <glyph glyph-name="v.sc" horiz-adv-x="519" 
d="M27 510l129 7l21 -114l87 -293h7l86 292l11 112h123v-14l-30 -119l-105 -284l-23 -97l-132 -6l-174 502v14z" />
    <glyph glyph-name="w.sc" horiz-adv-x="738" 
d="M27 510l128 7l10 -103l66 -292h9l60 280l12 107l120 5l88 -392h8l56 287l6 105h121v-14l-27 -141l-78 -269l-14 -89l-140 -5l-73 336h-8l-47 -225l-13 -105l-149 -6l-135 500v14z" />
    <glyph glyph-name="wcircumflex.sc" horiz-adv-x="738" 
d="M27 510l128 7l10 -103l66 -292h9l60 280l12 107l120 5l88 -392h8l56 287l6 105h121v-14l-27 -141l-78 -269l-14 -89l-140 -5l-73 336h-8l-47 -225l-13 -105l-149 -6l-135 500v14zM359 785h26l71 -63l73 -51v-14l-73 -64l-88 87l-93 -83l-64 52v14l76 57z" />
    <glyph glyph-name="x.sc" horiz-adv-x="523" 
d="M43 511l129 6l27 -77l63 -123h7l59 111l25 86h127v-13l-53 -105l-91 -134l160 -249v-13h-139l-26 76l-71 131h-7l-67 -122l-29 -85h-130v13l46 85l114 163l-144 236v14z" />
    <glyph glyph-name="y.sc" horiz-adv-x="514" 
d="M27 510l129 7l32 -105l78 -173h6l68 163l26 112h120v-12l-44 -120l-122 -238v-144h-110v144l-183 355v11z" />
    <glyph glyph-name="yacute.sc" horiz-adv-x="514" 
d="M27 510l129 7l32 -105l78 -173h6l68 163l26 112h120v-12l-44 -120l-122 -238v-144h-110v144l-183 355v11zM217 635l41 54l70 124h13l73 -68l-128 -144z" />
    <glyph glyph-name="ycircumflex.sc" horiz-adv-x="514" 
d="M27 510l129 7l32 -105l78 -173h6l68 163l26 112h120v-12l-44 -120l-122 -238v-144h-110v144l-183 355v11zM253 785h26l71 -63l73 -51v-14l-73 -64l-88 87l-93 -83l-64 52v14l76 57z" />
    <glyph glyph-name="ydieresis.sc" horiz-adv-x="514" 
d="M27 510l129 7l32 -105l78 -173h6l68 163l26 112h120v-12l-44 -120l-122 -238v-144h-110v144l-183 355v11zM309 725l113 7v-116l-117 4zM118 723l113 10v-117l-117 5z" />
    <glyph glyph-name="z.sc" horiz-adv-x="490" 
d="M66 514h363l5 -73l-248 -351h64l182 14l8 -9l-10 -95h-375l-5 68l250 355h-70l-167 -15l-7 8z" />
    <glyph glyph-name="zacute.sc" horiz-adv-x="490" 
d="M66 514h363l5 -73l-248 -351h64l182 14l8 -9l-10 -95h-375l-5 68l250 355h-70l-167 -15l-7 8zM194 635l41 54l70 124h13l73 -68l-128 -144z" />
    <glyph glyph-name="zcaron.sc" horiz-adv-x="490" 
d="M66 514h363l5 -73l-248 -351h64l182 14l8 -9l-10 -95h-375l-5 68l250 355h-70l-167 -15l-7 8zM158 786l92 -86l89 83l65 -52v-14l-76 -58l-69 -64h-25l-67 58l-81 55v15z" />
    <glyph glyph-name="zdotaccent.sc" horiz-adv-x="490" 
d="M66 514h363l5 -73l-248 -351h64l182 14l8 -9l-10 -95h-375l-5 68l250 355h-70l-167 -15l-7 8zM186 729l125 11v-131l-129 4z" />
    <glyph glyph-name="eth.sc" horiz-adv-x="572" 
d="M85 514h183q112 0 179.5 -66t67.5 -191q0 -120 -65 -188.5t-182 -68.5h-173v204l-54 -1l-9 7l16 79l47 1v116zM205 423v-127l99 12l8 -8l-9 -91l-98 -3v-116h57q60 0 103 25q38 54 38 142q0 83 -35 124.5t-99 41.5h-64z" />
    <glyph glyph-name="thorn.sc" horiz-adv-x="504" 
d="M65 526l120 6v-85q33 10 81 10q87 0 139.5 -52.5t52.5 -140.5q0 -82 -54.5 -139.5t-139.5 -57.5q-44 0 -79 12v-79h-110v420zM185 357v-188q30 -11 66 -11q42 0 75 22q22 32 22 84q0 49 -25.5 75.5t-70.5 26.5q-41 0 -67 -9z" />
    <glyph glyph-name="germandbls.sc" horiz-adv-x="565" 
d="M283 224l-26 56l82 137q-28 20 -75 20q-43 0 -68 -23q-15 -31 -15 -85v-329h-109v325q0 88 52 144.5t145 56.5q85 0 147 -36l63 -21v-15l-101 -141q61 -5 100.5 -48t39.5 -114q0 -72 -47 -117.5t-118 -45.5q-80 0 -139 48l49 85q25 -23 60 -42q13 -3 31 -3q21 0 41 10
q16 30 16 66q0 82 -69 82q-29 0 -59 -10z" />
    <glyph glyph-name="longs.sc" horiz-adv-x="509" 
d="M449 468l-68 -89q-39 32 -84 52q-18 5 -42 5q-40 0 -68 -15q-11 -17 -11 -39q0 -60 99 -73q182 -25 182 -163q0 -73 -56 -115.5t-149 -42.5q-119 0 -206 60l62 97q47 -40 99 -62q25 -5 46 -5q47 0 79 16q17 17 17 52q0 57 -97 68q-184 21 -184 161q0 67 50.5 109
t138.5 42q117 0 192 -58z" />
    <glyph glyph-name="afii10065.sc" horiz-adv-x="550" 
d="M194 511l148 8l175 -505v-14h-121l-14 82l-12 38l-193 2l-11 -37l-9 -85h-125v14l155 412zM269 410l-65 -205l137 6l-62 199h-10z" />
    <glyph glyph-name="afii10066.sc" horiz-adv-x="514" 
d="M70 514h220l145 5l-13 -104l-147 9h-87v-114q27 12 65 22q20 2 30 2q86 0 135.5 -41t49.5 -120q0 -80 -55 -126.5t-143 -46.5h-190v409zM188 88h82q40 0 69 15q20 25 20 69q0 75 -87 75q-48 0 -84 -23v-136z" />
    <glyph glyph-name="afii10067.sc" horiz-adv-x="522" 
d="M70 514h203q86 0 132 -38t46 -102q0 -66 -50 -97v-6q74 -28 74 -114q0 -76 -52 -116.5t-144 -40.5h-199v416zM188 219v-131h90q37 0 68 12q19 19 19 56q0 63 -83 63h-94zM188 426v-121h83q34 0 54 8q17 19 17 53q0 60 -76 60h-78z" />
    <glyph glyph-name="afii10068.sc" horiz-adv-x="473" 
d="M70 514h209l147 4l-11 -105l-147 10h-77v-423h-111v410z" />
    <glyph glyph-name="afii10069.sc" horiz-adv-x="605" 
d="M141 514h363v-423l60 5l9 -11l-10 -210h-90l-10 125h-322v-125h-93l-16 168v49h29q32 0 57 69t31 195l3 61zM255 423l-2 -66q-5 -192 -56 -266h196v332h-138z" />
    <glyph glyph-name="afii10070.sc" horiz-adv-x="500" 
d="M70 514h369l-12 -98l-164 8h-74v-120h65l138 7l-7 -97l-196 6v-131h76l180 8l-5 -97h-360v410z" />
    <glyph glyph-name="afii10071.sc" horiz-adv-x="500" 
d="M70 514h369l-12 -98l-164 8h-74v-120h65l138 7l-7 -97l-196 6v-131h76l180 8l-5 -97h-360v410zM302 725l113 7v-116l-117 4zM111 723l113 10v-117l-117 5z" />
    <glyph glyph-name="afii10073.sc" horiz-adv-x="509" 
d="M166 312l70 -5h22q25 0 44 8q16 17 16 51q0 69 -85 69q-15 0 -39 -4q-42 -23 -73 -52l-66 84q78 63 187 63q87 0 136 -41.5t49 -106.5q0 -66 -44 -97v-7q69 -34 69 -120q0 -75 -57 -120.5t-155 -45.5q-130 0 -210 83l63 74q63 -67 144 -67q49 0 85 17q20 23 20 61
q0 35 -19.5 51t-63.5 16h-22l-65 -8l-13 89z" />
    <glyph glyph-name="afii10074.sc" horiz-adv-x="581" 
d="M70 510l119 7v-210l-5 -136h5l206 343h106v-514h-110v134l6 200h-5l-210 -338l-102 5v358z" />
    <glyph glyph-name="afii10075.sc" horiz-adv-x="581" 
d="M70 510l119 7v-210l-5 -136h5l206 343h106v-514h-110v134l6 200h-5l-210 -338l-102 5v358zM143 743l94 17q7 -77 56 -77q23 0 39 11q11 24 11 59l93 12q0 -80 -40.5 -121t-107.5 -41q-59 0 -98.5 37.5t-46.5 102.5z" />
    <glyph glyph-name="afii10076.sc" horiz-adv-x="560" 
d="M70 510l121 7v-208h28q31 0 55 8q21 24 27 71q19 135 133 135q36 0 69 -13l-11 -90q-43 0 -67 -6q-22 -25 -29 -73q-10 -55 -49 -81q67 -131 171 -244v-16l-124 -4q-84 103 -134 222l-69 3v-221h-111v407z" />
    <glyph glyph-name="afii10077.sc" horiz-adv-x="586" 
d="M149 514h357v-514h-111v423h-131l-4 -91q-10 -209 -63 -285q-37 -55 -119 -55q-38 0 -68 15l24 92q17 -7 38 -7q28 0 41 22q33 56 43 224l4 70z" />
    <glyph glyph-name="afii10078.sc" horiz-adv-x="702" 
d="M95 510l144 7l113 -378h7l106 375h143l41 -514h-116v109l-14 265h-7l-24 -104l-88 -270h-98l-86 262l-27 113h-7l-15 -259v-116h-115l43 406v104z" />
    <glyph glyph-name="afii10079.sc" horiz-adv-x="573" 
d="M70 510l121 7v-214l194 6v97l-10 104l121 7v-517h-111v212l-194 4v-216h-111v406z" />
    <glyph glyph-name="afii10080.sc" horiz-adv-x="574" 
d="M287 526q106 0 168.5 -70.5t62.5 -198.5q0 -120 -63.5 -194.5t-167.5 -74.5q-106 0 -168.5 70.5t-62.5 198.5q0 120 63.5 194.5t167.5 74.5zM287 435q-51 0 -82 -25q-37 -56 -37 -153q0 -91 32 -134.5t87 -43.5q51 0 83 25q36 53 36 153q0 91 -32 134.5t-87 43.5z" />
    <glyph glyph-name="afii10081.sc" horiz-adv-x="572" 
d="M70 514h422v-514h-111v422h-191v-422h-110v406z" />
    <glyph glyph-name="afii10082.sc" horiz-adv-x="515" 
d="M70 514h194q94 0 150 -46t56 -131q0 -82 -53.5 -131.5t-137.5 -49.5q-49 0 -90 15v-171h-109v412zM189 424v-165q39 -12 80 -12q38 0 70 17q20 26 20 72q0 42 -25 65t-72 23h-73z" />
    <glyph glyph-name="afii10083.sc" horiz-adv-x="530" 
d="M467 462l-74 -87q-35 35 -80 57q-12 3 -28 3q-43 0 -78 -24q-39 -55 -39 -154q0 -81 34.5 -129t88.5 -48q75 0 123 57l63 -66q-68 -83 -191 -83q-109 0 -169.5 74t-60.5 195q0 122 64.5 195.5t168.5 73.5q109 0 178 -64z" />
    <glyph glyph-name="afii10084.sc" horiz-adv-x="478" 
d="M34 518l139 -4h131l145 5l-6 -106l-125 8h-27v-421h-109v421h-30l-124 -8z" />
    <glyph glyph-name="afii10085.sc" horiz-adv-x="506" 
d="M27 510l131 7l39 -126l69 -153h6l64 177l21 99h122v-13l-49 -128l-101 -217l-16 -47q-39 -121 -143 -121q-46 0 -77 12l16 93q24 -7 49 -7q26 0 42 11q9 16 13 38l-186 363v12z" />
    <glyph glyph-name="afii10086.sc" horiz-adv-x="675" 
d="M272 526l120 8v-96q20 10 59 10q83 0 130.5 -49.5t47.5 -136.5q0 -84 -50.5 -136.5t-126.5 -52.5q-36 0 -60 10v-83h-110v83q-23 -10 -61 -10q-81 0 -128 49.5t-47 136.5q0 84 50.5 136.5t128.5 52.5q31 0 55 -9zM441 358q-27 0 -49 -9v-176q24 -10 52 -10q31 0 55 13
q22 34 22 88q0 94 -80 94zM236 163q25 0 46 10v176q-25 9 -49 9q-35 0 -57 -15q-22 -33 -22 -85q0 -44 21 -69.5t61 -25.5z" />
    <glyph glyph-name="afii10087.sc" horiz-adv-x="523" 
d="M43 511l129 6l27 -77l63 -123h7l59 111l25 86h127v-13l-53 -105l-91 -134l160 -249v-13h-139l-26 76l-71 131h-7l-67 -122l-29 -85h-130v13l46 85l114 163l-144 236v14z" />
    <glyph glyph-name="afii10088.sc" horiz-adv-x="582" 
d="M70 510l120 7v-426h178v315l-11 104l121 7v-424l63 4l9 -9l-10 -213h-91l-10 125h-359v406z" />
    <glyph glyph-name="afii10089.sc" horiz-adv-x="550" 
d="M56 510l120 7v-167q0 -50 23 -77t65 -27q53 0 95 30v133l-10 101l121 7v-517h-111v184q-29 -17 -75 -29q-22 -2 -34 -2q-88 0 -136 50t-48 136v70z" />
    <glyph glyph-name="afii10090.sc" horiz-adv-x="799" 
d="M70 510l120 7v-427h154v317l-10 103l120 7v-427h155v317l-10 103l120 7v-517h-639v407z" />
    <glyph glyph-name="afii10091.sc" horiz-adv-x="822" 
d="M70 510l120 7v-427h154v317l-10 103l120 7v-427h155v317l-10 103l120 7v-424l64 4l7 -8l-9 -214h-90l-10 125h-601v407z" />
    <glyph glyph-name="afii10092.sc" horiz-adv-x="567" 
d="M37 518l117 -4h97v-192q31 14 59 23q22 2 34 2q83 0 134 -43.5t51 -125.5t-54 -130t-141 -48h-193v424h-20l-91 -5zM251 89h75q42 0 70 14q23 28 23 73q0 83 -90 83q-41 0 -78 -20v-150z" />
    <glyph glyph-name="afii10093.sc" horiz-adv-x="719" 
d="M519 510l120 7v-517h-110v406zM66 510l120 7v-194q35 16 60 22q16 2 32 2q84 0 134.5 -43.5t50.5 -125.5t-54 -130t-141 -48h-192v407zM186 89h74q39 0 70 14q23 28 23 73q0 82 -90 82q-43 0 -77 -20v-149z" />
    <glyph glyph-name="afii10094.sc" horiz-adv-x="505" 
d="M66 510l120 7v-195q31 16 62 23q18 2 33 2q84 0 135 -43.5t51 -125.5q0 -83 -54.5 -130.5t-143.5 -47.5h-193v409zM186 89h75q43 0 73 14q23 26 23 73q0 82 -91 82q-46 0 -80 -20v-149z" />
    <glyph glyph-name="afii10095.sc" horiz-adv-x="506" 
d="M106 372l-59 93q74 61 172 61q108 0 169.5 -71t61.5 -192q0 -129 -61 -202t-178 -73q-105 0 -175 74l59 73q55 -56 118 -56q49 0 89 25q28 47 34 114h-40l-120 -10l-10 92l9 10l121 -7h40q-14 132 -122 132q-16 0 -28 -3q-43 -23 -80 -60z" />
    <glyph glyph-name="afii10096.sc" horiz-adv-x="761" 
d="M482 526q104 0 163.5 -70t59.5 -200q0 -121 -60 -195.5t-163 -74.5q-94 0 -151.5 58t-67.5 168h-74v-212h-109v409l-10 101l119 7v-216l75 6q12 99 70 159t148 60zM482 435q-43 0 -75 -24q-37 -58 -37 -155q0 -179 112 -179q42 0 75 23q37 58 37 156q0 179 -112 179z" />
    <glyph glyph-name="afii10097.sc" horiz-adv-x="540" 
d="M460 514v-514h-110v186q-37 -13 -78 -19q-27 -88 -72 -133q-41 -41 -100 -41q-39 0 -65 13l15 97q21 -8 42 -8q11 0 31 4q30 33 51 80q-49 19 -76.5 59.5t-27.5 98.5q0 81 57 129t144 48h189zM350 423h-71q-43 0 -75 -16q-23 -27 -23 -71q0 -38 23 -59.5t65 -21.5
q47 0 81 21v147z" />
    <glyph glyph-name="afii10098.sc" horiz-adv-x="470" 
d="M67 514h246l25 112l81 7l6 -8l-13 -210l-148 8h-76v-423h-111v416z" />
    <glyph glyph-name="afii10099.sc" horiz-adv-x="625" 
d="M33 518l133 -4h137l147 5l-5 -102l-128 7h-27v-116q49 21 75 28q16 2 30 2q85 0 128.5 -43.5t43.5 -122.5v-71q0 -79 -49 -130t-146 -70l-25 101q45 9 91 24q19 29 19 73v61q0 87 -81 87q-46 0 -86 -27v-220h-110v424l-29 -1l-123 -6z" />
    <glyph glyph-name="afii10100.sc" horiz-adv-x="473" 
d="M70 514h209l147 4l-11 -105l-147 10h-77v-423h-111v410zM211 635l41 54l70 124h13l73 -68l-128 -144z" />
    <glyph glyph-name="afii10101.sc" horiz-adv-x="528" 
d="M466 461l-74 -86q-37 35 -79 57q-12 3 -28 3q-46 0 -79 -24q-28 -40 -36 -105h67l101 7l9 -9l-12 -93l-109 9h-57q7 -66 41 -103t82 -37q73 0 121 57l63 -66q-68 -83 -190 -83q-110 0 -170 74t-60 195q0 122 64.5 195.5t168.5 73.5q109 0 177 -65z" />
    <glyph glyph-name="afii10102.sc" horiz-adv-x="509" 
d="M449 468l-68 -89q-39 32 -84 52q-18 5 -42 5q-40 0 -68 -15q-11 -17 -11 -39q0 -60 99 -73q182 -25 182 -163q0 -73 -56 -115.5t-149 -42.5q-119 0 -206 60l62 97q47 -40 99 -62q25 -5 46 -5q47 0 79 16q17 17 17 52q0 57 -97 68q-184 21 -184 161q0 67 50.5 109
t138.5 42q117 0 192 -58z" />
    <glyph glyph-name="afii10103.sc" horiz-adv-x="271" 
d="M70 510l121 7v-517h-111v407z" />
    <glyph glyph-name="afii10104.sc" horiz-adv-x="271" 
d="M70 510l121 7v-517h-111v407zM174 729l116 7v-124l-122 4zM-16 726l117 12v-126l-121 4z" />
    <glyph glyph-name="afii10105.sc" horiz-adv-x="271" 
d="M70 510l121 7v-453q0 -96 -51 -155t-148 -76l-31 97q53 8 96 25q27 30 27 89v31l-4 55v278z" />
    <glyph glyph-name="afii10106.sc" horiz-adv-x="805" 
d="M149 514h350v-192q35 17 58 23q18 2 32 2q83 0 131 -43t48 -126t-53 -130.5t-142 -47.5h-184v423h-125l-4 -91q-10 -209 -63 -285q-37 -55 -119 -55q-38 0 -68 15l24 92q17 -7 38 -7q28 0 41 22q33 56 43 224l4 70zM499 89h67q38 0 68 14q24 27 24 73q0 82 -83 82
q-42 0 -76 -20v-149z" />
    <glyph glyph-name="afii10107.sc" horiz-adv-x="793" 
d="M70 510l121 7v-214l185 6v97l-10 104l121 7v-195q32 17 58 23q18 2 32 2q83 0 131 -43t48 -126t-53 -130.5t-143 -47.5h-184v212l-185 4v-216h-111v406zM487 89h66q39 0 69 14q24 27 24 73q0 82 -83 82q-42 0 -76 -20v-149z" />
    <glyph glyph-name="afii10108.sc" horiz-adv-x="625" 
d="M33 518l133 -4h137l147 5l-5 -102l-128 7h-27v-116q49 21 75 28q16 2 30 2q85 0 128.5 -43.5t43.5 -122.5v-172h-110v160q0 87 -81 87q-46 0 -86 -27v-220h-110v424l-29 -1l-123 -6z" />
    <glyph glyph-name="afii10109.sc" horiz-adv-x="560" 
d="M70 510l121 7v-208h28q31 0 55 8q21 24 27 71q19 135 133 135q36 0 69 -13l-11 -90q-43 0 -67 -6q-22 -25 -29 -73q-10 -55 -49 -81q67 -131 171 -244v-16l-124 -4q-84 103 -134 222l-69 3v-221h-111v407zM236 635l41 54l70 124h13l73 -68l-128 -144z" />
    <glyph glyph-name="afii10110.sc" horiz-adv-x="506" 
d="M27 510l131 7l39 -126l69 -153h6l64 177l21 99h122v-13l-49 -128l-101 -217l-16 -47q-39 -121 -143 -121q-46 0 -77 12l16 93q24 -7 49 -7q26 0 42 11q9 16 13 38l-186 363v12zM110 743l94 17q7 -77 56 -77q23 0 39 11q11 24 11 59l93 12q0 -80 -40.5 -121t-107.5 -41
q-59 0 -98.5 37.5t-46.5 102.5z" />
    <glyph glyph-name="afii10193.sc" horiz-adv-x="572" 
d="M70 509l121 8v-426h191v321l-11 97l121 8v-517h-152l-8 -125h-90l-8 125h-154v412z" />
    <glyph glyph-name="ampersand.sc" horiz-adv-x="541" 
d="M363 294l107 28q14 -48 14 -99q0 -92 -53 -155l60 -88v-12l-104 -22l-33 64q-52 -22 -111 -22q-93 0 -146.5 52t-53.5 134q0 98 76 152q-10 30 -10 59q0 59 40.5 100t113.5 41q101 0 165 -62l-69 -85q-27 32 -63 55q-15 5 -35 5q-23 0 -41 -10q-11 -17 -11 -45
q0 -41 25 -73l142 -175q13 34 13 70zM257 76q28 0 47 5l-138 170q-18 -30 -18 -72q0 -46 29 -74.5t80 -28.5z" />
    <glyph glyph-name="idotaccent.sc" horiz-adv-x="271" 
d="M70 510l121 7v-517h-111v407zM75 729l125 11v-131l-129 4z" />
    <glyph glyph-name="adblgrave.sc" horiz-adv-x="550" 
d="M194 511l148 8l175 -505v-14h-121l-14 82l-12 38l-193 2l-11 -37l-9 -85h-125v14l155 412zM269 410l-65 -205l137 6l-62 199h-10zM219 747l85 58h13l28 -95l33 -81l-68 -25zM40 717l72 72h13l114 -156l-62 -34l-52 51z" />
    <glyph glyph-name="acircum.sc" horiz-adv-x="550" 
d="M194 511l148 8l175 -505v-14h-121l-14 82l-12 38l-193 2l-11 -37l-9 -85h-125v14l155 412zM269 410l-65 -205l137 6l-62 199h-10zM263 785h26l71 -63l73 -51v-14l-73 -64l-88 87l-93 -83l-64 52v14l76 57z" />
    <glyph glyph-name="edblgrave.sc" horiz-adv-x="500" 
d="M70 514h369l-12 -98l-164 8h-74v-120h65l138 7l-7 -97l-196 6v-131h76l180 8l-5 -97h-360v410zM227 747l85 58h13l28 -95l33 -81l-68 -25zM48 717l72 72h13l114 -156l-62 -34l-52 51z" />
    <glyph glyph-name="ecircum.sc" horiz-adv-x="500" 
d="M70 514h369l-12 -98l-164 8h-74v-120h65l138 7l-7 -97l-196 6v-131h76l180 8l-5 -97h-360v410zM249 785h26l71 -63l73 -51v-14l-73 -64l-88 87l-93 -83l-64 52v14l76 57z" />
    <glyph glyph-name="idblgrave.sc" horiz-adv-x="271" 
d="M70 510l121 7v-517h-111v407zM95 772l85 47l14 -2l23 -104l25 -87l-68 -22zM-75 748l74 63l15 -2l99 -173l-60 -37l-38 52z" />
    <glyph glyph-name="icircum.sc" horiz-adv-x="271" 
d="M70 510l121 7v-517h-111v407zM124 785h26l71 -63l73 -51v-14l-73 -64l-88 87l-93 -83l-64 52v14l76 57z" />
    <glyph glyph-name="napostrophe.sc" horiz-adv-x="703" 
d="M196 510l110 7l163 -253l60 -104l-7 149v98l-10 103l116 7v-514l-101 -8l-149 227l-74 125l7 -147v-200h-105v389zM28 640l114 5l6 -19l-56 -195l-80 18l16 108v83z" />
    <glyph glyph-name="odblgrave.sc" horiz-adv-x="574" 
d="M287 526q106 0 168.5 -70.5t62.5 -198.5q0 -120 -63.5 -194.5t-167.5 -74.5q-106 0 -168.5 70.5t-62.5 198.5q0 120 63.5 194.5t167.5 74.5zM287 435q-51 0 -82 -25q-37 -56 -37 -153q0 -91 32 -134.5t87 -43.5q51 0 83 25q36 53 36 153q0 91 -32 134.5t-87 43.5z
M243 747l85 58h13l28 -95l33 -81l-68 -25zM64 717l72 72h13l114 -156l-62 -34l-52 51z" />
    <glyph glyph-name="ocircum.sc" horiz-adv-x="574" 
d="M287 526q106 0 168.5 -70.5t62.5 -198.5q0 -120 -63.5 -194.5t-167.5 -74.5q-106 0 -168.5 70.5t-62.5 198.5q0 120 63.5 194.5t167.5 74.5zM287 435q-51 0 -82 -25q-37 -56 -37 -153q0 -91 32 -134.5t87 -43.5q51 0 83 25q36 53 36 153q0 91 -32 134.5t-87 43.5z
M276 785h26l71 -63l73 -51v-14l-73 -64l-88 87l-93 -83l-64 52v14l76 57z" />
    <glyph glyph-name="rdblgrave.sc" horiz-adv-x="541" 
d="M70 514h201q93 0 148 -46t55 -128q0 -57 -30 -97.5t-80 -59.5q54 -89 127 -168v-15l-119 -5q-62 80 -105 176q-44 3 -78 15v-186h-109v411zM189 424v-151q39 -12 83 -12q45 0 74 18q18 25 18 61q0 40 -26 62t-73 22h-76zM229 747l85 58h13l28 -95l33 -81l-68 -25zM50 717
l72 72h13l114 -156l-62 -34l-52 51z" />
    <glyph glyph-name="rcircum.sc" horiz-adv-x="541" 
d="M70 514h201q93 0 148 -46t55 -128q0 -57 -30 -97.5t-80 -59.5q54 -89 127 -168v-15l-119 -5q-62 80 -105 176q-44 3 -78 15v-186h-109v411zM189 424v-151q39 -12 83 -12q45 0 74 18q18 25 18 61q0 40 -26 62t-73 22h-76zM255 785h26l71 -63l73 -51v-14l-73 -64l-88 87
l-93 -83l-64 52v14l76 57z" />
    <glyph glyph-name="tcedilla.sc" horiz-adv-x="478" 
d="M34 518l139 -4h131l145 5l-6 -106l-125 8h-27v-366q46 -30 46 -95q0 -61 -47.5 -103t-141.5 -54l-8 7l15 89q49 1 87 21q8 12 8 36q0 43 -41 43q-19 0 -32 -6l-12 15l17 72v341h-30l-124 -8z" />
    <glyph glyph-name="udblgrave.sc" horiz-adv-x="579" 
d="M70 510l120 7v-294q0 -69 26 -105.5t73 -36.5q43 0 77 24q23 41 23 111v191l-10 103l120 7v-295q0 -106 -55 -170t-155 -64q-96 0 -152.5 59.5t-56.5 169.5v190zM251 747l85 58h13l28 -95l33 -81l-68 -25zM72 717l72 72h13l114 -156l-62 -34l-52 51z" />
    <glyph glyph-name="ucircum.sc" horiz-adv-x="579" 
d="M70 510l120 7v-294q0 -69 26 -105.5t73 -36.5q43 0 77 24q23 41 23 111v191l-10 103l120 7v-295q0 -106 -55 -170t-155 -64q-96 0 -152.5 59.5t-56.5 169.5v190zM275 785h26l71 -63l73 -51v-14l-73 -64l-88 87l-93 -83l-64 52v14l76 57z" />
    <glyph glyph-name="zero.tab" 
d="M300 643q117 0 181.5 -86.5t64.5 -241.5q0 -147 -67 -237.5t-179 -90.5q-118 0 -182.5 86t-64.5 242q0 147 67 237.5t180 90.5zM207 511q-41 -72 -41 -196q0 -232 136 -232q53 0 90 35q41 72 41 197q0 232 -136 232q-54 0 -90 -36z" />
    <glyph glyph-name="nine.tab" 
d="M157 -13l-26 108q107 9 181 34q70 55 84 147q-35 -22 -86 -38q-22 -2 -36 -2q-90 0 -140.5 54t-50.5 146q0 86 59.5 146.5t157.5 60.5q102 0 159 -71t57 -197q0 -170 -89.5 -270t-269.5 -118zM400 365q3 17 3 51q0 62 -28 99t-75 37q-50 0 -82 -24q-24 -38 -24 -93
q0 -109 98 -109q64 0 108 39z" />
    <glyph glyph-name="five.tab" 
d="M72 71l73 90q47 -49 99 -77q15 -3 33 -3q56 0 95 21q32 38 32 101q0 118 -107 118q-66 0 -103 -41l-66 22l22 328h143l195 9l10 -11l-15 -104l-160 11h-78l-14 -141q40 17 86 17q94 0 147.5 -55.5t53.5 -150.5q0 -98 -66 -158t-166 -60q-68 0 -118 19.5t-96 64.5z" />
    <glyph glyph-name="space.tab" 
 />
    <glyph glyph-name="one.tab" 
d="M112 0v91l150 7v354l-99 -65l-50 69l114 95l71 84l82 -10l-8 -129v-399l114 -6v-91h-374z" />
    <glyph glyph-name="zero.slash.tab" 
d="M300 643q117 0 181.5 -86.5t64.5 -241.5q0 -147 -67 -237.5t-179 -90.5q-118 0 -182.5 86t-64.5 242q0 147 67 237.5t180 90.5zM207 511q-41 -72 -41 -196q0 -37 3 -68l235 232q-34 68 -107 68q-54 0 -90 -36zM433 315q0 31 -3 60l-237 -221q34 -71 109 -71q53 0 90 35
q41 72 41 197z" />
    <glyph glyph-name="two.tab" 
d="M106 0l-12 80l204 174q51 43 76 78q17 42 17 106q0 53 -27.5 82.5t-78.5 29.5q-22 0 -44 -8q-38 -25 -80 -71l-73 88q86 84 206 84q96 0 152.5 -54t56.5 -147q0 -79 -34 -140t-106 -116l-123 -94h56l200 16l10 -11l-10 -102l-187 5h-203z" />
    <glyph glyph-name="three.tab" 
d="M221 381l71 -5h18q22 0 42 6q28 29 28 78q0 90 -91 90q-22 0 -37 -4q-44 -20 -85 -59l-69 86q86 70 195 70q94 0 146.5 -47t52.5 -128q0 -83 -56 -123v-7q85 -38 85 -143q0 -99 -64.5 -153.5t-172.5 -54.5q-129 0 -212 92l70 84q47 -49 101 -78q17 -4 42 -4q54 0 94 20
q29 32 29 89q0 94 -93 94h-20l-67 -9l-17 96z" />
    <glyph glyph-name="four.tab" 
d="M263 634l113 -9l8 -13q-32 -151 -132 -297l-79 -115h183v78l14 89l95 10v-180l79 7l-11 -97h-68v-107h-109v107h-291l-11 82l113 177q77 120 96 268z" />
    <glyph glyph-name="six.tab" 
d="M446 643l25 -109q-92 -7 -185 -36q-70 -55 -83 -145q43 27 85 38q11 2 36 2q90 0 140.5 -54t50.5 -145q0 -86 -59.5 -146.5t-158.5 -60.5q-104 0 -159 69.5t-55 197.5q0 161 95.5 267t267.5 122zM198 264q-3 -26 -3 -51q0 -63 27.5 -98.5t73.5 -35.5q53 0 84 23
q24 38 24 93q0 109 -97 109q-61 0 -109 -40z" />
    <glyph glyph-name="seven.tab" 
d="M112 634l141 -4h244l6 -79l-80 -139q-77 -135 -99 -283v-129h-122q0 209 132 444l52 93h-77l-203 -11l-9 12z" />
    <glyph glyph-name="eight.tab" 
d="M300 643q86 0 139 -47t53 -125q0 -79 -56 -132q89 -56 89 -156q0 -87 -63 -141.5t-162 -54.5q-104 0 -165.5 54t-61.5 140q0 104 79 169q-47 49 -47 118q0 74 54.5 124.5t140.5 50.5zM292 286q-29 4 -62 16q-47 -43 -47 -114q0 -48 31.5 -77.5t85.5 -29.5q52 0 86 20
q28 33 28 81q0 43 -29 68.5t-93 35.5zM318 381q21 -4 34 -7q32 33 32 96q0 40 -22.5 61t-61.5 21q-44 0 -70 -18q-16 -23 -16 -61q0 -39 23.5 -61t80.5 -31z" />
    </font>
</defs>
</svg>
